<svg width="24" height="25" viewBox="0 0 24 25" fill="none" xmlns="http://www.w3.org/2000/svg">
<g clip-path="url(#clip0_1039_347)">
<path d="M19.749 13.495C20.6018 10.5521 19.6669 7.87251 17.7182 4.66794C17.9869 4.73034 18.2631 4.77302 18.5504 4.77302C19.9193 4.77302 21.268 4.0689 22.0703 2.93603L22.3001 2.61115L21.9867 2.37322C21.3913 1.92152 20.6606 1.68279 19.8731 1.68279C18.7464 1.68279 17.6385 2.16508 16.8323 2.96542C16.2035 1.52941 14.6577 0.5 12.9532 0.5C12.7432 0.5 12.5336 0.516506 12.3302 0.549115L11.9459 0.610308L12.0051 1.00806C12.2854 2.89336 14.1054 4.37003 16.1487 4.37044C16.2389 4.37044 16.3287 4.36601 16.4182 4.35997C16.2401 7.89948 13.6831 11.0581 11.1316 12.071C10.2061 10.8069 8.84767 10.007 7.33333 10.007H6.55556C3.768 10.007 1.5 12.716 1.5 16.0458C1.5 19.1537 3.94222 21.6819 6.94444 21.6819C8.92817 21.6819 10.6626 20.5744 11.6142 18.9286C11.6481 22.0064 14.0743 24.5 17.0556 24.5C20.0578 24.5 22.5 21.9718 22.5 18.8638C22.5004 16.5252 21.38 14.4978 19.749 13.495ZM3.03533 14.9986C3.1415 14.4535 3.33478 13.941 3.60933 13.4749C3.72133 13.2848 3.96089 13.2257 4.14406 13.3408C4.32722 13.4567 4.38517 13.7043 4.27356 13.8943C4.04644 14.28 3.88622 14.7051 3.79833 15.1581C3.761 15.3493 3.59883 15.4809 3.41761 15.4809C3.39233 15.4809 3.36628 15.4785 3.34022 15.4729C3.12906 15.429 2.99294 15.2168 3.03533 14.9986ZM6.5295 19.6646C6.48906 19.8518 6.32844 19.9794 6.15033 19.9794C6.12233 19.9794 6.09356 19.9762 6.06517 19.9697C4.68228 19.6493 3.55761 18.603 3.12983 17.2386C3.06372 17.0273 3.17533 16.8002 3.37989 16.7314C3.58483 16.6633 3.80378 16.7789 3.86989 16.9902C4.20783 18.0683 5.1365 18.9295 6.23511 19.1839C6.44433 19.2322 6.57656 19.4476 6.5295 19.6646ZM10.0559 14.435C8.76911 14.435 7.72261 13.3517 7.72261 12.0195C7.72261 11.7973 7.89683 11.6169 8.1115 11.6169C8.32617 11.6169 8.50039 11.7973 8.50039 12.0195C8.50039 12.9076 9.19806 13.6298 10.0559 13.6298C10.2706 13.6298 10.4448 13.8102 10.4448 14.0324C10.4448 14.2547 10.2706 14.435 10.0559 14.435ZM16.5858 22.6215C16.5453 22.8092 16.3843 22.9364 16.2066 22.9364C16.1786 22.9364 16.1498 22.9331 16.1214 22.9267C14.7386 22.6062 13.6139 21.5595 13.1861 20.1952C13.12 19.9838 13.2316 19.7568 13.4362 19.6879C13.6407 19.6199 13.8601 19.735 13.9262 19.9468C14.2641 21.0249 15.1928 21.886 16.2914 22.1409C16.5006 22.1896 16.6328 22.405 16.5858 22.6215ZM16.6671 12.8247C14.8548 12.8247 13.2666 13.9733 12.3741 15.6895C12.3212 14.6105 12.0261 13.6105 11.5598 12.7558C14.149 11.6592 16.6352 8.69659 17.1213 5.19694C19.1124 8.5106 19.6953 10.8146 19.0506 13.1419C18.5454 12.939 18.0068 12.8243 17.4448 12.8243L16.6671 12.8247ZM19.3893 17.2531C18.1024 17.2531 17.0559 16.1697 17.0559 14.8376C17.0559 14.6154 17.2302 14.435 17.4448 14.435C17.6595 14.435 17.8337 14.6154 17.8337 14.8376C17.8337 15.7257 18.5314 16.4479 19.3893 16.4479C19.6039 16.4479 19.7782 16.6283 19.7782 16.8505C19.7782 17.0727 19.6039 17.2531 19.3893 17.2531Z" fill="#00FAEB"/>
</g>
<defs>
<clipPath id="clip0_1039_347">
<rect width="24" height="24" fill="white" transform="translate(0 0.5)"/>
</clipPath>
</defs>
</svg>
