<svg width="24" height="24" viewBox="0 0 24 24" fill="none" xmlns="http://www.w3.org/2000/svg">
<path d="M11.2955 15.6382C10.8351 15.5309 10.4138 15.321 10.0572 15.0335C9.75291 15.3061 9.36996 15.6288 8.97946 15.9046L10.3256 16.9141L11.2956 16.4808V15.6382H11.2955Z" fill="#445058"/>
<path d="M14.3537 10.2309C14.432 9.96439 14.5435 9.61964 14.6926 9.23495L13.7134 9.42589C13.4301 9.48128 13.1414 9.35784 12.9855 9.11455L11.9906 7.56193L10.9583 9.12308C10.8021 9.35915 10.5199 9.47903 10.2414 9.42697L9.25589 9.24292C9.43042 9.63149 9.55382 9.97002 9.63819 10.231H14.3537V10.2309Z" fill="#445058"/>
<path d="M12.7044 15.6382V16.4807L13.6744 16.9141L15.0191 15.9056C14.6275 15.6303 14.2435 15.3081 13.939 15.0366C13.5831 15.3224 13.1632 15.5312 12.7044 15.6382Z" fill="#445058"/>
<path d="M13.6927 12.6184V11.6406H10.3073V12.6184C10.3073 13.5518 11.0666 14.3111 12 14.3111C12.9333 14.3111 13.6927 13.5517 13.6927 12.6184Z" fill="#445058"/>
<path d="M18.572 0H5.42797C4.89565 0 4.46414 0.431507 4.46414 0.963824V23.0362C4.46414 23.5685 4.89565 24 5.42797 24H18.572C19.1043 24 19.5358 23.5685 19.5358 23.0362V0.963824C19.5358 0.431507 19.1043 0 18.572 0V0ZM6.40735 2.48017C6.40735 2.06755 6.74184 1.73306 7.15446 1.73306C7.56708 1.73306 7.90157 2.06755 7.90157 2.48017C7.90157 2.89279 7.56708 3.22728 7.15446 3.22728C6.74189 3.22728 6.40735 2.89279 6.40735 2.48017ZM13.7654 18.4308C13.668 18.4308 13.5701 18.4106 13.4782 18.3695L12 17.7091L10.5219 18.3695C10.43 18.4106 10.332 18.4308 10.2347 18.4308C10.0847 18.4308 9.93603 18.3829 9.81193 18.2899L7.25757 16.3741C7.03903 16.2102 6.93494 15.9348 6.99052 15.6673C7.0461 15.3998 7.25129 15.1886 7.51703 15.1254C7.81187 15.0552 8.54145 14.5011 9.18615 13.9205C9.00206 13.5243 8.89853 13.0833 8.89853 12.6184V11.6092C8.65726 11.5354 8.4674 11.3355 8.41449 11.0779C8.41256 11.0689 8.17232 9.96336 7.34526 8.65741C7.19533 8.42063 7.20002 8.1175 7.35716 7.88546C7.5144 7.65346 7.7942 7.53676 8.06968 7.58808L10.0409 7.95623L11.4124 5.88221C11.5438 5.68349 11.7661 5.56426 12.005 5.56637C12.2433 5.56811 12.4645 5.69015 12.593 5.89074L13.9135 7.95145L15.7715 7.58916C16.0395 7.53705 16.3135 7.64418 16.4748 7.86455C16.6359 8.08492 16.6553 8.37855 16.5245 8.61823C15.866 9.82388 15.5863 11.0743 15.5836 11.0868C15.5279 11.3401 15.3395 11.5361 15.1014 11.6092V12.6184C15.1014 13.0851 14.9971 13.5278 14.8117 13.9252C15.4579 14.5034 16.1884 15.0553 16.4829 15.1254C16.7486 15.1886 16.9538 15.3998 17.0094 15.6673C17.065 15.9348 16.9609 16.2102 16.7423 16.3741L14.188 18.2899C14.0641 18.3829 13.9153 18.4308 13.7654 18.4308ZM16.8839 22.325C16.4713 22.325 16.1368 21.9905 16.1368 21.5779C16.1368 21.1653 16.4713 20.8308 16.8839 20.8308C17.2965 20.8308 17.631 21.1653 17.631 21.5779C17.631 21.9905 17.2965 22.325 16.8839 22.325Z" fill="#445058"/>
</svg>
