<svg width="24" height="25" viewBox="0 0 24 25" fill="none" xmlns="http://www.w3.org/2000/svg">
<g clip-path="url(#clip0_1039_370)">
<path d="M12 24.5C18.6274 24.5 24 19.1274 24 12.5C24 5.87258 18.6274 0.5 12 0.5C5.37258 0.5 0 5.87258 0 12.5C0 19.1274 5.37258 24.5 12 24.5Z" fill="#FFD164"/>
<path d="M19.8598 17.4509C20.9239 15.7665 21.4628 13.7175 21.2411 11.5319C20.8015 7.19661 17.303 3.69818 12.9676 3.25882C10.7822 3.03734 8.73338 3.57617 7.04902 4.64023C6.75867 4.82365 6.38438 4.57807 6.45656 4.24231C6.67327 3.23478 7.02005 2.27562 7.47961 1.38364C3.09347 3.16911 9.37528e-05 7.47204 2.77682e-09 12.4997C-0.000140622 19.1592 5.34094 24.5002 12.0004 24.5C17.028 24.4999 21.3309 21.4065 23.1164 17.0203C22.2244 17.4799 21.2653 17.8266 20.2577 18.0433C19.9219 18.1156 19.6763 17.7413 19.8598 17.4509Z" fill="#FFC350"/>
<path d="M12 21.0163C16.7034 21.0163 20.5163 17.2034 20.5163 12.5C20.5163 7.79662 16.7034 3.98376 12 3.98376C7.29662 3.98376 3.48376 7.79662 3.48376 12.5C3.48376 17.2034 7.29662 21.0163 12 21.0163Z" fill="#FFEDB1"/>
<path d="M5.85451 8.4656C4.9494 9.83937 4.49011 11.5323 4.69229 13.3422C5.06846 16.7096 7.78979 19.4312 11.1571 19.8076C12.9673 20.01 14.6604 19.5507 16.0343 18.6454C16.2383 18.5111 16.1675 18.1935 15.9264 18.1542C11.0189 17.3554 7.14455 13.481 6.34566 8.57351C6.30647 8.33248 5.9889 8.2616 5.85451 8.4656Z" fill="#FFE17D"/>
<path d="M13.3711 12.5416V8.67893C13.8874 8.96538 14.2258 9.40427 14.2258 9.88708C14.2258 10.1544 14.4424 10.371 14.7097 10.371C14.977 10.371 15.1936 10.1544 15.1936 9.88708C15.1936 8.88673 14.4469 8.02343 13.3711 7.61815V7.08063C13.3711 6.81335 13.1545 6.59674 12.8873 6.59674C12.62 6.59674 12.4034 6.81335 12.4034 7.08063V7.39329C12.2709 7.38007 12.1369 7.37093 12 7.37093C11.8631 7.37093 11.7291 7.38007 11.5966 7.39329V7.08063C11.5966 6.81335 11.38 6.59674 11.1128 6.59674C10.8455 6.59674 10.6289 6.81335 10.6289 7.08063V7.61815C9.55318 8.02338 8.80641 8.88677 8.80641 9.88708C8.80641 11.2231 9.60338 11.95 10.6289 12.4584V16.3211C10.1125 16.0346 9.77415 15.5957 9.77415 15.1129C9.77415 14.8456 9.55754 14.629 9.29026 14.629C9.02298 14.629 8.80637 14.8456 8.80637 15.1129C8.80637 16.1133 9.55313 16.9766 10.6288 17.3818V17.9194C10.6288 18.1866 10.8454 18.4032 11.1127 18.4032C11.38 18.4032 11.5966 18.1866 11.5966 17.9194V17.6067C11.729 17.6199 11.863 17.6291 12 17.6291C12.1369 17.6291 12.2709 17.6199 12.4033 17.6067V17.9194C12.4033 18.1866 12.6199 18.4032 12.8872 18.4032C13.1545 18.4032 13.3711 18.1866 13.3711 17.9194V17.3818C14.4468 16.9766 15.1936 16.1132 15.1936 15.1129C15.1936 13.7769 14.3966 13.05 13.3711 12.5416ZM12 8.33871C12.1374 8.33871 12.272 8.34902 12.4034 8.3666V12.1323C12.3233 12.1026 12.2431 12.0732 12.1626 12.0445C11.9608 11.9724 11.7722 11.902 11.5966 11.8319V8.36665C11.728 8.34902 11.8626 8.33871 12 8.33871ZM9.77419 9.88708C9.77419 9.40427 10.1126 8.96538 10.6289 8.67893V11.3532C10.0576 10.9865 9.77419 10.5526 9.77419 9.88708ZM12 16.6613C11.8626 16.6613 11.728 16.651 11.5966 16.6334V12.8677C11.6767 12.8973 11.757 12.9267 11.8374 12.9555C12.0392 13.0276 12.2278 13.098 12.4034 13.1681V16.6333C12.272 16.651 12.1374 16.6613 12 16.6613ZM13.3711 16.3211V13.6467C13.9425 14.0135 14.2258 14.4474 14.2258 15.1129C14.2258 15.5957 13.8874 16.0346 13.3711 16.3211Z" fill="#E1A546"/>
<path d="M12 23.3387C6.02344 23.3387 1.16129 18.4766 1.16129 12.5C1.16129 6.52344 6.02344 1.66129 12 1.66129C17.9766 1.66129 22.8387 6.52344 22.8387 12.5C22.8387 18.4766 17.9766 23.3387 12 23.3387ZM12 2.43547C6.45024 2.43547 1.93547 6.95024 1.93547 12.5C1.93547 18.0498 6.45024 22.5645 12 22.5645C17.5498 22.5645 22.0645 18.0498 22.0645 12.5C22.0645 6.95024 17.5498 2.43547 12 2.43547Z" fill="#FFC350"/>
<path d="M20.4186 18.0061C18.6188 20.7486 15.5184 22.5645 12 22.5645C6.45024 22.5645 1.93547 18.0498 1.93547 12.5C1.93547 8.98164 3.75141 5.88114 6.49388 4.08138C6.57957 3.71055 6.68382 3.34717 6.80405 2.99078C3.44438 4.83391 1.16129 8.40499 1.16129 12.5C1.16129 18.4765 6.02344 23.3387 12 23.3387C16.095 23.3387 19.6661 21.0556 21.5092 17.6959C21.1529 17.8161 20.7895 17.9204 20.4186 18.0061Z" fill="#E1A546"/>
</g>
<defs>
<clipPath id="clip0_1039_370">
<rect width="24" height="24" fill="white" transform="translate(0 0.5)"/>
</clipPath>
</defs>
</svg>
