<svg width="24" height="25" viewBox="0 0 24 25" fill="none" xmlns="http://www.w3.org/2000/svg">
<g clip-path="url(#clip0_1039_353)">
<path d="M17.4057 15.5385L13.5384 19.406C13.4872 19.4572 13.4872 19.5412 13.5384 19.5926L14.6919 20.746C14.7431 20.7971 14.8271 20.7971 14.8783 20.746L15.4698 20.1544C15.521 20.1033 15.6048 20.1033 15.6562 20.1545L18.8083 23.3064C20.3893 24.8878 20.4854 24.792 21.6387 23.6388C22.7918 22.4855 22.888 22.3894 21.3065 20.8081L18.1546 17.6559C18.1034 17.6049 18.1032 17.5211 18.1544 17.4697L18.7458 16.8782C18.7972 16.8268 18.7969 16.7431 18.7458 16.6918L17.5924 15.538C17.5408 15.4873 17.457 15.4873 17.4057 15.5385ZM20.3534 21.2463L19.2455 22.3545C19.1022 22.4977 18.87 22.4977 18.7269 22.3545C18.5836 22.211 18.5836 21.979 18.7269 21.8357L19.8348 20.7277C19.9781 20.5845 20.2102 20.5843 20.3535 20.7277C20.4966 20.8708 20.4966 21.1031 20.3534 21.2463ZM18.7589 19.6519L17.651 20.76C17.5078 20.9032 17.2756 20.9032 17.1324 20.76C16.9892 20.6169 16.9892 20.3845 17.1323 20.2414L18.2404 19.1333C18.3836 18.99 18.6158 18.99 18.7589 19.1332C18.9023 19.2765 18.9023 19.5087 18.7589 19.6519Z" fill="#9553D2"/>
<path d="M14.2095 14.0511C13.4413 14.7875 12.7681 15.4022 12.0547 16.0378C12.0195 16.0692 11.9631 16.1478 12.0342 16.206C13.2608 17.2752 14.152 18.0011 14.5914 18.356C14.7552 18.4887 14.8448 18.5587 14.9547 18.4374C15.3235 18.0297 16.0333 17.2453 16.4298 16.8072C16.5401 16.6856 16.5115 16.5846 16.406 16.4585C16.085 16.0754 15.3205 15.1629 14.3839 14.0456C14.359 14.0158 14.3082 13.9572 14.2095 14.0511Z" fill="#9553D2"/>
<path d="M8.15257 12.4681C8.95536 11.6461 9.67928 10.9054 10.4825 10.0844C10.5221 10.0345 10.4864 9.9536 10.4556 9.92212C9.83657 9.29 9.29396 8.73668 8.90909 8.34602C7.03801 6.44566 2.21597 0.673338 2.21597 0.673338C2.21597 0.673338 1.87973 0.250919 1.75578 0.72494C1.55037 1.5111 1.17599 3.32319 2.06777 5.79966C2.74697 7.68565 5.30981 10.2202 7.94997 12.4561C7.98907 12.4893 8.07666 12.5294 8.15257 12.4681Z" fill="#9553D2"/>
<path d="M20.741 0.737653C20.6154 0.236837 20.2748 0.683142 20.2748 0.683142C20.2748 0.683142 15.3914 6.78078 13.4963 8.78834C11.7914 10.5941 7.03232 15.6803 6.09337 16.6839C5.9885 16.7962 5.96028 16.886 6.06964 16.9941C6.46355 17.3838 7.16894 18.0817 7.53529 18.4443C7.64444 18.5522 7.73367 18.49 7.89634 18.3719C9.56463 17.1643 19.0127 10.1878 20.4248 6.09821C21.3281 3.48237 20.9491 1.56812 20.741 0.737653Z" fill="#9553D2"/>
<path d="M4.90773 15.5383L3.75408 16.692C3.70288 16.7432 3.70281 16.827 3.75408 16.8785L4.34549 17.47C4.39677 17.5212 4.39654 17.6049 4.34534 17.6562L1.19344 20.8082C-0.387918 22.3896 -0.291903 22.4855 0.861358 23.6387C2.01462 24.7919 2.11048 24.8879 3.69183 23.3064L6.84373 20.1547C6.89501 20.1035 6.97889 20.1035 7.03008 20.1545L7.62157 20.7461C7.67269 20.7972 7.75673 20.7972 7.808 20.7461L8.96157 19.5927C9.01285 19.5414 9.01277 19.4574 8.96157 19.4062L5.09408 15.5388C5.04296 15.4871 4.95893 15.4871 4.90773 15.5383ZM2.14627 20.7273C2.28951 20.584 2.52177 20.5841 2.66501 20.7273L3.77307 21.8353C3.91623 21.9786 3.91623 22.2106 3.77307 22.3541C3.62982 22.4972 3.39757 22.4972 3.2544 22.3541L2.14635 21.246C2.00318 21.1027 2.0031 20.8705 2.14627 20.7273ZM3.74078 19.1329C3.88394 18.9897 4.11627 18.9897 4.25952 19.1331L5.36757 20.241C5.51082 20.3842 5.51074 20.6165 5.36757 20.7597C5.22441 20.9028 4.99215 20.9028 4.84891 20.7597L3.74085 19.6516C3.59753 19.5084 3.59745 19.2762 3.74078 19.1329Z" fill="#9553D2"/>
</g>
<defs>
<clipPath id="clip0_1039_353">
<rect width="24" height="24" fill="white" transform="translate(0 0.5)"/>
</clipPath>
</defs>
</svg>
