<svg width="24" height="25" viewBox="0 0 24 25" fill="none" xmlns="http://www.w3.org/2000/svg">
<path d="M3.30573 15.1826V18.8353L12.0002 19.8071L20.6946 18.8353V15.1826L12.0002 14.2109L3.30573 15.1826Z" fill="#FFD782"/>
<path d="M6.54482 17.6463C6.89675 17.6463 7.18205 17.361 7.18205 17.0091C7.18205 16.6572 6.89675 16.3719 6.54482 16.3719C6.19289 16.3719 5.90759 16.6572 5.90759 17.0091C5.90759 17.361 6.19289 17.6463 6.54482 17.6463Z" fill="#FF6465"/>
<path opacity="0.1" d="M6.16275 18.8353V15.1826L13.4287 14.3705L12.0002 14.2109L3.30573 15.1826V18.8353L12.0002 19.8071L13.4287 19.6474L6.16275 18.8353Z" fill="#16171B"/>
<path d="M12 17.6463C12.3519 17.6463 12.6372 17.361 12.6372 17.0091C12.6372 16.6572 12.3519 16.3719 12 16.3719C11.6481 16.3719 11.3628 16.6572 11.3628 17.0091C11.3628 17.361 11.6481 17.6463 12 17.6463Z" fill="#FF6465"/>
<path d="M17.4557 17.6463C17.8077 17.6463 18.093 17.361 18.093 17.0091C18.093 16.6572 17.8077 16.3719 17.4557 16.3719C17.1038 16.3719 16.8185 16.6572 16.8185 17.0091C16.8185 17.361 17.1038 17.6463 17.4557 17.6463Z" fill="#FF6465"/>
<path d="M20.6946 14.2109L23.0709 7.176L22.5715 6.64097C22.5715 6.64097 16.4047 14.1322 12.4572 5.89185H11.543C7.59563 14.1322 1.42876 6.64097 1.42876 6.64097L0.929352 7.176L3.30562 14.2109H20.6946Z" fill="#FFD782"/>
<g opacity="0.1">
<path d="M1.42892 6.64087L0.929504 7.176L3.30577 14.2109H6.16279L4.43177 9.08646C2.68772 8.16986 1.42892 6.64087 1.42892 6.64087Z" fill="#16171B"/>
</g>
<path d="M12 6.7376C12.6949 6.7376 13.2582 6.17427 13.2582 5.47937C13.2582 4.78446 12.6949 4.22113 12 4.22113C11.3051 4.22113 10.7417 4.78446 10.7417 5.47937C10.7417 6.17427 11.3051 6.7376 12 6.7376Z" fill="#E6B95C"/>
<path d="M1.25824 8.19811C1.95314 8.19811 2.51647 7.63478 2.51647 6.93988C2.51647 6.24497 1.95314 5.68164 1.25824 5.68164C0.563331 5.68164 0 6.24497 0 6.93988C0 7.63478 0.563331 8.19811 1.25824 8.19811Z" fill="#E6B95C"/>
<path d="M22.7418 8.19811C23.4367 8.19811 24 7.63478 24 6.93988C24 6.24497 23.4367 5.68164 22.7418 5.68164C22.0469 5.68164 21.4835 6.24497 21.4835 6.93988C21.4835 7.63478 22.0469 8.19811 22.7418 8.19811Z" fill="#E6B95C"/>
<path d="M12 11.8408C12.5842 11.8408 13.0579 11.1437 13.0579 10.2838C13.0579 9.42381 12.5842 8.72668 12 8.72668C11.4157 8.72668 10.9421 9.42381 10.9421 10.2838C10.9421 11.1437 11.4157 11.8408 12 11.8408Z" fill="#FF6465"/>
<path d="M20.6946 13.2392H3.30572C2.76904 13.2392 2.33398 13.6743 2.33398 14.2109C2.33398 14.7476 2.76904 15.1827 3.30572 15.1827H20.6946C21.2313 15.1827 21.6663 14.7476 21.6663 14.2109C21.6663 13.6742 21.2312 13.2392 20.6946 13.2392Z" fill="#E6B95C"/>
<path opacity="0.1" d="M5.19101 14.2109C5.19101 13.6742 5.62606 13.2391 6.16274 13.2391H3.30572C2.76904 13.2391 2.33398 13.6742 2.33398 14.2109C2.33398 14.7475 2.76904 15.1826 3.30572 15.1826H6.16274C5.62606 15.1826 5.19101 14.7475 5.19101 14.2109Z" fill="#16171B"/>
<path d="M20.6946 18.8354H3.30572C2.76904 18.8354 2.33398 19.2704 2.33398 19.8071C2.33398 20.3438 2.76904 20.7789 3.30572 20.7789H20.6946C21.2313 20.7789 21.6663 20.3438 21.6663 19.8071C21.6663 19.2705 21.2312 18.8354 20.6946 18.8354Z" fill="#E6B95C"/>
<path opacity="0.1" d="M5.19101 19.8071C5.19101 19.2704 5.62606 18.8354 6.16274 18.8354H3.30572C2.76904 18.8354 2.33398 19.2704 2.33398 19.8071C2.33398 20.3438 2.76904 20.7789 3.30572 20.7789H6.16274C5.62606 20.7789 5.19101 20.3438 5.19101 19.8071Z" fill="#16171B"/>
</svg>
