<svg width="32" height="33" viewBox="0 0 32 33" fill="none" xmlns="http://www.w3.org/2000/svg">
<g clip-path="url(#clip0_156_1292)">
<path d="M19.3328 32.4999C20.4003 32.4999 21.3312 31.5834 21.3312 30.5324V25.9375H22.6656C23.4664 25.9375 24 25.4119 24 24.6238V11.5H8V24.6239C8 25.4121 8.53376 25.9376 9.33439 25.9376H10.6689V30.5325C10.6689 31.5835 11.5996 32.5 12.6673 32.5C13.7347 32.5 14.6656 31.5835 14.6656 30.5325V25.9376H17.3344V30.5325C17.3343 31.5834 18.2653 32.4999 19.3328 32.4999Z" fill="white"/>
<path d="M28.0001 24.5C29.0685 24.5 30 23.5922 30 22.5511V13.4481C30 12.4125 29.0685 11.5 28.0001 11.5C26.9316 11.5 26 12.4125 26 13.4481V22.5511C26 23.5921 26.9315 24.5 28.0001 24.5Z" fill="white"/>
<path d="M4.99989 24.5C6.0684 24.5 7 23.5922 7 22.5511V13.4481C7 12.4125 6.06851 11.5 4.99989 11.5C3.93149 11.5 3 12.4125 3 13.4481V22.5511C3 23.5921 3.93149 24.5 4.99989 24.5Z" fill="white"/>
<path d="M22.3986 0.69567C22.1319 0.434777 21.7347 0.434777 21.4679 0.69567L19.6782 2.42906L19.5956 2.50919C18.5344 1.99279 17.3446 1.7349 16.0195 1.73241C16.0131 1.73241 16.0067 1.7322 16.0002 1.7322H15.9999C15.9932 1.7322 15.9871 1.73241 15.9803 1.73241C14.6554 1.7349 13.4656 1.99279 12.4045 2.50919L12.3217 2.42906L10.5321 0.69567C10.2651 0.434777 9.86815 0.434777 9.60137 0.69567C9.33439 0.955114 9.33439 1.34014 9.60137 1.59938L11.3326 3.28204C10.7748 3.64397 10.2689 4.08687 9.82905 4.59344C8.77592 5.80649 8.10419 7.38521 8.01183 9.09572C8.01097 9.11353 8.00916 9.13113 8.00831 9.14893C8.00266 9.2654 8 9.38249 8 9.5H24C24 9.38249 23.9971 9.2654 23.9917 9.14893C23.9908 9.13113 23.989 9.11353 23.988 9.09572C23.8958 7.38521 23.2239 5.80639 22.1707 4.59354C21.7311 4.08698 21.225 3.64408 20.6672 3.28214L22.3986 1.59948C22.6656 1.34014 22.6656 0.955114 22.3986 0.69567ZM12.6648 7.23592C12.1127 7.23592 11.6651 6.80099 11.6651 6.26451C11.6651 5.72802 12.1127 5.29309 12.6648 5.29309C13.2169 5.29309 13.6644 5.72802 13.6644 6.26451C13.6644 6.80099 13.2169 7.23592 12.6648 7.23592ZM19.3352 7.23592C18.7831 7.23592 18.3356 6.80099 18.3356 6.26451C18.3356 5.72802 18.7831 5.29309 19.3352 5.29309C19.8873 5.29309 20.3349 5.72802 20.3349 6.26451C20.3349 6.80099 19.8873 7.23592 19.3352 7.23592Z" fill="white"/>
</g>
<defs>
<clipPath id="clip0_156_1292">
<rect width="32" height="32" fill="white" transform="translate(0 0.5)"/>
</clipPath>
</defs>
</svg>
