<svg width="33" height="33" viewBox="0 0 33 33" fill="none" xmlns="http://www.w3.org/2000/svg">
<g clip-path="url(#clip0_156_1282)">
<path d="M22.4372 0.5C20.6244 0.622563 18.5057 1.75679 17.2709 3.23378C16.1446 4.57366 15.218 6.56376 15.5793 8.49776C17.56 8.558 19.6065 7.39677 20.7923 5.89485C21.9017 4.4968 22.7411 2.51917 22.4372 0.5Z" fill="white"/>
<path d="M28.5853 10.8109C26.9673 8.71582 24.6933 7.5 22.5458 7.5C19.7108 7.5 18.5116 8.90146 16.5419 8.90146C14.511 8.90146 12.968 7.50408 10.5163 7.50408C8.10803 7.50408 5.54368 9.02385 3.91775 11.6228C1.63196 15.2825 2.02314 22.1633 5.72742 28.0241C7.05305 30.1212 8.8232 32.4794 11.1386 32.4998C13.1992 32.5202 13.78 31.135 16.5716 31.1208C19.3631 31.1044 19.8926 32.5181 21.9492 32.4957C24.2666 32.4773 26.1336 29.8641 27.4592 27.7671C28.4095 26.2636 28.7631 25.5068 29.5 23.8095C24.1402 21.7022 23.2808 13.8321 28.5853 10.8109Z" fill="white"/>
</g>
<defs>
<clipPath id="clip0_156_1282">
<rect width="32" height="32" fill="white" transform="translate(0.5 0.5)"/>
</clipPath>
</defs>
</svg>
