<svg width="32" height="25" viewBox="0 0 32 25" fill="none" xmlns="http://www.w3.org/2000/svg">
<g clip-path="url(#clip0_156_54)">
<mask id="mask0_156_54" style="mask-type:luminance" maskUnits="userSpaceOnUse" x="0" y="0" width="32" height="25">
<path d="M31.5 0H0.5V25H31.5V0Z" fill="white"/>
</mask>
<g mask="url(#mask0_156_54)">
<mask id="mask1_156_54" style="mask-type:luminance" maskUnits="userSpaceOnUse" x="0" y="0" width="32" height="26">
<path d="M31.5 0.15625H0.5V25.1562H31.5V0.15625Z" fill="white"/>
</mask>
<g mask="url(#mask1_156_54)">
<path d="M1.96553 8.72332C1.67568 8.72332 1.39233 8.63026 1.15133 8.45585C0.910322 8.28148 0.722481 8.03363 0.611558 7.74363C0.500635 7.45366 0.471612 7.13457 0.528161 6.82673C0.584709 6.51888 0.724287 6.2361 0.929245 6.01413C1.1342 5.79219 1.39534 5.64104 1.67962 5.57982C1.96391 5.51857 2.25858 5.55001 2.52637 5.67013C2.79416 5.79022 3.02305 5.99366 3.18408 6.25463C3.34511 6.5156 3.43107 6.82244 3.43107 7.13632C3.43051 7.55704 3.27592 7.96035 3.0012 8.25782C2.72649 8.55532 2.35404 8.72273 1.96553 8.72332ZM0.776116 19.7633V9.75832H3.1762V19.7633H0.776116Z" fill="#958E97"/>
<path d="M7.18495 7.10158C6.61151 6.38858 5.82563 5.76758 4.40258 5.76758H4.08396C4.24538 6.11802 4.33245 6.50305 4.33884 6.89458C4.34312 7.37536 4.2176 7.84702 3.97778 8.25158H4.38131C4.57658 8.24308 4.77005 8.29477 4.93922 8.40064C5.10845 8.50648 5.24643 8.66217 5.33713 8.84958C5.63442 9.49358 5.63449 11.1036 5.63449 12.6446C5.63449 14.1856 5.63442 15.8416 5.33713 16.4626C5.24643 16.65 5.10845 16.8057 4.93922 16.9115C4.77005 17.0174 4.57658 17.0691 4.38131 17.0606H4.08396V19.5446H4.42381C5.84687 19.5446 6.63272 18.9236 7.20622 18.2106C8.22568 16.9456 8.16195 14.4616 8.16195 12.6676C8.11951 10.8506 8.20445 8.36658 7.18495 7.10158Z" fill="#958E97"/>
<path d="M11.1315 15.3128C11.1315 16.0028 11.174 16.8308 11.3014 17.1068C11.3593 17.2302 11.4474 17.334 11.556 17.407C11.6646 17.48 11.7896 17.5194 11.9174 17.5208C12.0461 17.524 12.1729 17.4866 12.2823 17.4131C12.3917 17.3395 12.4789 17.2331 12.5334 17.1068C12.6082 16.9011 12.6513 16.6836 12.6608 16.4628H15.0396C15.0079 17.3676 14.7102 18.2378 14.19 18.9468C13.659 19.5908 12.8519 19.8438 11.9174 19.8438C10.9828 19.8438 10.3456 19.6598 9.666 18.9468C8.73147 17.9808 8.71021 16.0718 8.71021 14.5078C8.71021 12.9438 8.73147 11.0118 9.666 10.0458C10.3456 9.33275 11.1103 9.14875 11.9174 9.14875C12.7245 9.14875 13.4891 9.30975 14.1475 10.0458C15.2095 11.2648 15.0821 13.6798 15.1033 15.3358H11.1315V15.3128ZM12.5546 11.8398C12.4899 11.7244 12.3997 11.6283 12.2922 11.56C12.1847 11.4918 12.0632 11.4535 11.9386 11.4488C11.8135 11.4505 11.6909 11.4875 11.5829 11.556C11.4749 11.6246 11.3853 11.7223 11.3227 11.8398C11.1952 12.0468 11.1528 12.7368 11.1528 13.4498H12.7457C12.7245 12.7368 12.682 12.0468 12.5546 11.8398ZM21.7938 18.9928C21.3265 19.6368 20.7956 19.8438 20.0097 19.8438C19.691 19.839 19.378 19.7523 19.0964 19.5908C18.8259 19.4184 18.5881 19.1921 18.3955 18.9238V19.6828H16.1016V5.92875H18.5017V9.90775C18.6746 9.7005 18.8751 9.52225 19.0964 9.37875C19.378 9.21725 19.691 9.13053 20.0097 9.12575C20.7956 9.12575 21.3265 9.33275 21.7938 9.97675C22.4523 10.8738 22.4523 12.4148 22.4523 14.4848C22.4523 16.5548 22.4523 18.0958 21.7938 18.9928ZM19.8822 11.8628C19.8285 11.7358 19.7414 11.6289 19.6318 11.5553C19.5223 11.4817 19.3952 11.4446 19.2663 11.4488C19.0786 11.4473 18.8971 11.521 18.7566 11.6558C18.6749 11.7558 18.6122 11.8723 18.5721 11.9986C18.532 12.1249 18.5153 12.2585 18.5229 12.3918V16.5548C18.5153 16.688 18.532 16.8216 18.5721 16.9479C18.6122 17.0742 18.6749 17.1907 18.7566 17.2908C18.8971 17.4255 19.0786 17.4993 19.2663 17.4978C19.3957 17.5047 19.5239 17.4688 19.634 17.3948C19.744 17.3209 19.8306 17.2124 19.8822 17.0838C20.0521 16.6698 20.0521 15.6348 20.0521 14.4618C20.0521 13.2888 20.0734 12.2768 19.8822 11.8628ZM24.7036 8.64275C24.4138 8.64275 24.1304 8.54969 23.8894 8.37528C23.6485 8.20091 23.4606 7.95306 23.3497 7.66306C23.2387 7.3731 23.2097 7.054 23.2663 6.74616C23.3228 6.43828 23.4624 6.15553 23.6674 5.93356C23.8723 5.71163 24.1335 5.56047 24.4177 5.49925C24.702 5.438 24.9967 5.46944 25.2645 5.58956C25.5323 5.70966 25.7611 5.9131 25.9222 6.17406C26.0832 6.43503 26.1692 6.74188 26.1692 7.05575C26.1686 7.47647 26.0141 7.87978 25.7393 8.17725C25.4646 8.47475 25.0922 8.64213 24.7036 8.64275ZM23.5143 19.6828V9.67775H25.9143V19.6828H23.5143ZM27.1887 6.84875H29.5887V9.67775H31.5004V11.6328H29.5887V16.1638C29.5887 16.9688 29.9711 17.3598 30.757 17.3598V19.6828C29.7799 19.6828 28.9941 19.5908 28.2932 19.0388C27.5922 18.4868 27.1887 17.6818 27.1887 16.3248V6.84875Z" fill="#958E97"/>
</g>
</g>
</g>
<defs>
<clipPath id="clip0_156_54">
<rect width="31" height="25" fill="white" transform="translate(0.5)"/>
</clipPath>
</defs>
</svg>
