<svg width="70" height="25" viewBox="0 0 70 25" fill="none" xmlns="http://www.w3.org/2000/svg">
<g clip-path="url(#clip0_156_36)">
<mask id="mask0_156_36" style="mask-type:luminance" maskUnits="userSpaceOnUse" x="0" y="0" width="70" height="25">
<path d="M69.5 0H0.5V25H69.5V0Z" fill="white"/>
</mask>
<g mask="url(#mask0_156_36)">
<mask id="mask1_156_36" style="mask-type:luminance" maskUnits="userSpaceOnUse" x="0" y="0" width="70" height="26">
<path d="M69.5 0.15625H0.5V25.1562H69.5V0.15625Z" fill="white"/>
</mask>
<g mask="url(#mask1_156_36)">
<path fill-rule="evenodd" clip-rule="evenodd" d="M12.9205 11.9572C12.9205 11.7244 12.8055 11.608 12.5755 11.608H11.4255C11.0805 11.608 10.9655 11.8408 10.9655 12.0737V14.1692C10.9655 14.5185 11.1955 14.6349 11.4255 14.6349H12.5755C12.6905 14.6349 12.6905 14.6349 12.8055 14.5185C12.9205 14.5185 12.9205 14.4021 12.9205 14.2856V11.9572ZM9.47052 11.7244C9.47052 11.1423 9.5855 10.7931 9.81552 10.4438C9.9305 10.3274 10.1605 10.3274 10.2755 10.2109C10.5055 10.0945 10.6205 10.0945 10.8505 10.0945H13.0355C13.9555 10.0945 14.4155 10.5602 14.4155 11.608V14.8678C14.4155 15.217 14.3005 15.5663 13.9555 15.7991C13.7255 16.032 13.3805 16.2648 13.0355 16.2648H10.9655V18.5932H9.47052V11.7244ZM17.1755 14.4021C17.1755 14.4021 17.1755 14.5185 17.2905 14.5185C17.2905 14.6349 17.4055 14.6349 17.5205 14.6349H18.6705C18.9005 14.6349 19.0155 14.5185 19.1305 14.4021V13.9364C19.1305 13.7036 18.9005 13.5871 18.6705 13.5871H17.1755V14.4021ZM19.1305 11.9572C19.1305 11.7244 18.9005 11.608 18.6705 11.608H15.6805V10.0945H19.0155C20.0505 10.0945 20.5105 10.5602 20.6255 11.4916V14.7513C20.5105 15.217 20.3955 15.5663 20.1655 15.7991C19.9355 16.1484 19.5905 16.2648 19.2455 16.2648H17.1755C16.1405 16.2648 15.6805 15.7991 15.6805 14.8678V13.5871C15.6805 12.6558 16.1405 12.1901 17.0605 12.0737H19.1305V11.9572ZM24.7655 16.9633C24.8805 16.9633 24.9955 16.9633 25.1105 16.8469C25.2255 16.7305 25.2255 16.7305 25.2255 16.6141V16.2648H23.2705C23.0405 16.2648 22.8105 16.1484 22.6955 16.1484C22.5805 16.032 22.3505 15.9156 22.2355 15.7991C22.1205 15.6827 22.0055 15.4499 21.8905 15.3335C21.7755 15.1006 21.7755 14.8678 21.7755 14.6349V10.0945H23.2705V14.1692C23.2705 14.5185 23.3855 14.6349 23.7305 14.6349H24.7655C24.8805 14.6349 24.9955 14.6349 25.1105 14.5185C25.1105 14.5185 25.2255 14.4021 25.2255 14.2856V10.0945H26.7205V16.8469C26.7205 17.3126 26.6055 17.7783 26.3755 18.1276C26.0305 18.3604 25.6855 18.5932 25.3405 18.5932H21.7755V16.9633H24.7655ZM27.8705 14.6349H30.5156C30.7455 14.6349 30.9755 14.5185 30.9755 14.4021V14.2856C30.9755 14.1692 30.9755 14.1692 30.8605 14.0528C30.8605 13.9364 30.7455 13.9364 30.6305 13.9364H29.3655C28.9055 13.9364 28.6755 13.82 28.3305 13.4707C28.1006 13.2379 27.8705 13.005 27.8705 12.6558V11.4916C27.8705 10.5602 28.4456 10.0945 29.3655 10.0945H32.4705V11.608H29.8256C29.4806 11.608 29.3655 11.7244 29.3655 11.9572V12.0737C29.3655 12.3065 29.4806 12.3065 29.8256 12.3065H31.2056C31.5506 12.4229 31.7805 12.5394 32.1255 12.7722C32.3554 13.005 32.4705 13.3543 32.4705 13.7036V14.8678C32.4705 15.217 32.3554 15.4499 32.0104 15.7991C31.8956 16.032 31.7805 16.032 31.6655 16.1484C31.4355 16.2648 31.3205 16.2648 30.9755 16.2648H27.8705V14.6349ZM35.0006 14.4021L35.1154 14.5185C35.2305 14.6349 35.3456 14.6349 35.4604 14.6349H36.6105C36.8404 14.6349 36.9555 14.5185 36.9555 14.4021V13.9364C36.9555 13.7036 36.8404 13.5871 36.6105 13.5871H35.1154C35.1154 13.7036 35.0006 13.82 35.0006 13.9364V14.4021ZM36.9555 11.9572C36.9555 11.7244 36.8404 11.608 36.6105 11.608H33.5055V10.0945H36.9555C37.9905 10.0945 38.4506 10.5602 38.4506 11.4916V14.7513C38.4506 15.217 38.3355 15.5663 38.1056 15.7991C37.8754 16.1484 37.5304 16.2648 37.0706 16.2648H35.0006C34.0804 16.2648 33.5055 15.7991 33.5055 14.8678V13.5871C33.5055 12.6558 34.0804 12.1901 35.0006 12.0737H36.9555V11.9572ZM39.7155 9.16314C39.7155 8.81389 39.8306 8.46461 40.1756 8.11536C40.4055 7.88252 40.8656 7.76611 41.3254 7.76611H42.2456V9.27958H41.6704C41.3254 9.27958 41.2106 9.39599 41.2106 9.74524V10.0945H42.2456V11.608H41.2106V16.2648H39.7155V9.16314ZM46.5004 11.9572V11.8408C46.5004 11.8408 46.5004 11.7244 46.3856 11.7244C46.3856 11.608 46.2705 11.608 46.1554 11.608H45.1204C45.0056 11.608 44.8905 11.608 44.7754 11.7244C44.6606 11.8408 44.6606 11.9572 44.6606 12.0737V12.6558L46.5004 11.9572ZM44.6606 14.1692V14.2856C44.6606 14.4021 44.6606 14.5185 44.7754 14.5185C44.7754 14.6349 44.8905 14.6349 45.0056 14.6349H47.9955V16.2648H44.7754C44.4304 16.2648 44.2005 16.1484 44.0854 16.1484C43.8555 16.032 43.7404 16.032 43.6256 15.7991C43.3954 15.6827 43.2806 15.5663 43.2806 15.3335C43.1655 15.217 43.1655 14.9842 43.1655 14.6349V11.4916C43.1655 10.5602 43.6256 10.0945 44.6606 10.0945H46.6155C47.5354 10.0945 47.9955 10.5602 48.1106 11.608V12.7722L44.6606 14.1692ZM51.2156 16.2648C50.9854 16.2648 50.7555 16.2648 50.6404 16.1484C50.4105 16.1484 50.1806 16.032 50.0655 15.9156C49.8356 15.6827 49.7205 15.5663 49.6054 15.3335C49.4906 15.1006 49.4906 14.8678 49.4906 14.5185V11.0259C49.6054 10.7931 49.7205 10.6766 49.8356 10.4438C50.0655 10.3274 50.1806 10.2109 50.4105 10.0945C50.6404 10.0945 50.8706 9.97808 51.1005 9.97808H53.4004V10.4438H51.1005C50.7555 10.4438 50.4105 10.4438 50.1806 10.6766C49.9504 10.7931 49.8356 11.1423 49.8356 11.608V14.5185C49.8356 14.6349 49.8356 14.8678 49.9504 15.1006C49.9504 15.217 50.0655 15.4499 50.1806 15.5663C50.4105 15.6827 50.5256 15.7991 50.7555 15.7991C50.8706 15.7991 51.1005 15.9156 51.2156 15.9156H53.4004V16.2648H51.2156ZM59.2654 12.4229H56.2755C55.9305 12.4229 55.5855 12.5394 55.4704 12.7722C55.2405 13.005 55.1254 13.3543 55.1254 13.7036V15.1006C55.2405 15.3335 55.2405 15.4499 55.4704 15.5663C55.7006 15.7991 55.9305 15.9156 56.2755 15.9156H58.1156C58.9204 15.9156 59.2654 15.4499 59.2654 14.6349V12.4229ZM59.6104 14.5185V15.217C59.4956 15.3335 59.4956 15.5663 59.2654 15.7991C58.9204 16.032 58.5754 16.2648 58.1156 16.2648H56.2755C55.8154 16.2648 55.4704 16.1484 55.2405 15.7991C54.8955 15.5663 54.7804 15.1006 54.7804 14.6349V13.7036C54.7804 12.6558 55.2405 12.0737 56.2755 12.0737H59.2654V11.7244C59.2654 11.3751 59.1506 11.0259 59.0355 10.7931C58.9204 10.6766 58.6905 10.5602 58.5754 10.4438H54.7804V9.97808H57.8854C58.1156 9.97808 58.3455 10.0945 58.5754 10.0945C58.6905 10.0945 58.8056 10.2109 58.9204 10.2109C59.0355 10.3274 59.1506 10.3274 59.2654 10.5602C59.4956 10.9095 59.6104 11.2587 59.6104 11.7244V14.5185ZM63.0604 10.4438C62.1405 10.4438 61.7955 10.9095 61.7955 11.7244V16.2648H61.4505V11.7244C61.4505 10.5602 61.9106 9.97808 63.0604 9.97808H63.5205V10.4438H63.0604ZM69.0405 10.4438H65.7056C65.4754 10.4438 65.3606 10.5602 65.2455 10.7931C65.0156 10.9095 64.9005 11.1423 64.9005 11.2587C64.9005 11.3751 64.7854 11.608 64.7854 11.8408V14.6349C64.7854 15.1006 65.0156 15.4499 65.2455 15.5663C65.3606 15.6827 65.5905 15.7991 65.7056 15.7991C65.8204 15.7991 66.0506 15.9156 66.2805 15.9156H67.5457C68.0055 15.9156 68.3505 15.7991 68.5808 15.5663C68.9258 15.3335 69.0405 14.9842 69.0405 14.5185V10.4438ZM69.5006 14.5185C69.3855 15.6827 68.8106 16.2648 67.5457 16.2648H66.2805C65.9355 16.2648 65.7056 16.2648 65.4754 16.1484C65.2455 16.1484 65.0156 15.9156 64.9005 15.7991C64.6706 15.5663 64.5555 15.3335 64.5555 15.1006C64.4404 14.9842 64.4404 14.7513 64.4404 14.4021V11.8408C64.4404 10.5602 65.1304 9.97808 66.2805 9.97808H69.0405V7.99896H69.5006V14.5185Z" fill="#958E97"/>
<path fill-rule="evenodd" clip-rule="evenodd" d="M1.19 9.86209C1.305 9.74569 1.42 9.74569 1.535 9.74569C1.765 8.69791 2.685 7.88297 3.72001 7.88297C4.87002 7.88297 5.79001 8.69791 5.90502 9.74569C6.25002 9.74569 6.59502 9.86209 6.82501 10.0949V9.51284C6.59502 7.99937 5.33 6.71875 3.72001 6.71875C2.11 6.71875 0.73 7.99937 0.615 9.74569V10.0949C0.845 9.97853 0.960001 9.86209 1.19 9.86209ZM5.56002 10.0949H1.88C1.65 10.0949 1.535 10.0949 1.305 10.2114C1.075 10.3278 0.960001 10.3278 0.845 10.4442C0.615 10.7935 0.5 11.1428 0.5 11.7248V14.6353C0.5 15.101 0.615 15.5667 0.845 15.7996C0.960001 15.916 1.075 16.0324 1.305 16.1488C1.535 16.1488 1.65 16.2653 1.88 16.2653H5.56002C6.48001 16.2653 6.94002 15.6832 6.94002 14.6353V11.6084C6.94002 10.5606 6.48001 10.0949 5.56002 10.0949Z" fill="#958E97"/>
</g>
</g>
</g>
<defs>
<clipPath id="clip0_156_36">
<rect width="69" height="25" fill="white" transform="translate(0.5)"/>
</clipPath>
</defs>
</svg>
