<svg width="51" height="25" viewBox="0 0 51 25" fill="none" xmlns="http://www.w3.org/2000/svg">
<g clip-path="url(#clip0_156_118)">
<path d="M13.5042 7.74544V6.37369C13.5042 5.40228 14.0998 4.84375 15.1991 4.84375C15.6656 4.84375 16.0523 4.97109 16.3534 5.22025C16.6545 5.46937 16.8086 5.83956 16.8086 6.34175V6.40244H15.8518V6.34175C15.8518 5.90459 15.5388 5.70428 15.1397 5.70428C14.6851 5.70428 14.4578 5.90472 14.4578 6.30547V7.81253C14.4578 8.21287 14.6851 8.41331 15.1397 8.41375C15.5508 8.41375 15.8518 8.23156 15.8518 7.77584V7.71519H16.8086V7.77584C16.8086 8.27997 16.6552 8.65647 16.3545 8.90516C16.0539 9.15403 15.6667 9.27537 15.2003 9.27537C14.0999 9.27537 13.5042 8.71713 13.5042 7.74544Z" fill="#958E97"/>
<path fill-rule="evenodd" clip-rule="evenodd" d="M17.5544 9.18404V4.93457H19.4208C20.3052 4.93457 20.7764 5.42013 20.7764 6.27007C20.7764 6.84685 20.5491 7.2596 20.0887 7.49648L20.8993 8.87616V9.18557H19.9734L19.0771 7.60876H18.5062V9.18557L17.5544 9.18404ZM18.5062 6.82273H19.2614C19.6297 6.82273 19.814 6.67095 19.814 6.28235C19.814 5.90001 19.6297 5.75407 19.2614 5.75407H18.5062V6.82273Z" fill="#958E97"/>
<path d="M22.8044 9.18404V7.50232L21.4229 5.24398V4.93457H22.3623L23.2898 6.62213L24.2662 4.93457H25.1434V5.24382L23.7625 7.46591V9.18388L22.8044 9.18404Z" fill="#958E97"/>
<path fill-rule="evenodd" clip-rule="evenodd" d="M25.6978 9.18404V4.93457H27.626C28.3935 4.93457 28.854 5.45054 28.854 6.27007C28.854 7.08957 28.3935 7.5997 27.626 7.5997H26.6495V9.18404H25.6978ZM26.6495 6.77948H27.447C27.6861 6.77948 27.8891 6.60957 27.8891 6.26935C27.8891 5.92901 27.6874 5.75407 27.4477 5.75407H26.6503L26.6495 6.77948Z" fill="#958E97"/>
<path d="M30.3777 9.18404V5.75451H29.1926V4.93457H32.5084V5.75407H31.3294V9.1836L30.3777 9.18404Z" fill="#958E97"/>
<path fill-rule="evenodd" clip-rule="evenodd" d="M36.4469 7.73959C36.4469 8.21928 36.2931 8.59578 35.98 8.86891C35.6666 9.14216 35.2491 9.27537 34.7213 9.27537C34.1931 9.27537 33.7753 9.14216 33.4622 8.86891C33.1494 8.59578 32.9972 8.21928 32.9972 7.73959V6.38581C32.9972 5.41456 33.6591 4.84375 34.7213 4.84375C35.7835 4.84375 36.4469 5.41456 36.4469 6.38581V7.73959ZM35.495 6.337C35.495 5.99122 35.2306 5.70622 34.7213 5.70622C34.2116 5.70622 33.9475 5.99163 33.9475 6.337V7.78212C33.9475 8.12822 34.2116 8.41291 34.7213 8.41291C35.2306 8.41291 35.495 8.1275 35.495 7.78212V6.337ZM13.73 14.9168V10.6674H15.6581C16.4257 10.6674 16.8862 11.1833 16.8862 12.0028C16.8862 12.8224 16.4257 13.3325 15.6581 13.3325H14.6817V14.9168H13.73ZM14.6817 12.5121H15.4791C15.7184 12.5121 15.9214 12.342 15.9214 12.002C15.9214 11.6622 15.7188 11.486 15.4791 11.486H14.6817V12.5121ZM17.5556 14.9168V10.6674H19.422C20.3064 10.6674 20.7776 11.1529 20.7776 12.0028C20.7776 12.5795 20.5503 12.9922 20.0899 13.2292L20.9005 14.6088V14.9185H19.9746L19.0783 13.3415H18.5074V14.9183L17.5556 14.9168ZM18.5074 12.5553H19.2626C19.6309 12.5553 19.8152 12.4033 19.8152 12.0151C19.8152 11.6268 19.6309 11.4869 19.2626 11.4869H18.5074V12.5553ZM24.9362 13.472C24.9362 13.9514 24.7827 14.3279 24.4698 14.601C24.1567 14.8743 23.7389 15.0079 23.211 15.0079C22.683 15.0079 22.2653 14.8743 21.9518 14.601C21.6385 14.3279 21.4854 13.9514 21.4854 13.4721V12.1179C21.4854 11.1467 22.1485 10.5763 23.211 10.5763C24.2736 10.5763 24.9362 11.1467 24.9362 12.1179V13.472ZM23.986 12.0695C23.986 11.7233 23.7222 11.4388 23.2126 11.4388C22.7031 11.4388 22.4387 11.7237 22.4387 12.0695V13.5162C22.4387 13.8618 22.7026 14.147 23.2126 14.147C23.7225 14.147 23.986 13.8616 23.986 13.5162V12.0695Z" fill="#958E97"/>
<path d="M25.6355 13.4766V12.1046C25.6355 11.1334 26.2311 10.5747 27.33 10.5747C27.797 10.5747 28.1837 10.7021 28.4863 10.9512C28.7889 11.2003 28.9404 11.5701 28.9404 12.0742V12.1362H27.9835V12.0755C27.9835 11.6383 27.6702 11.438 27.271 11.438C26.817 11.438 26.5899 11.6383 26.5896 12.0388V13.5446C26.5896 13.9451 26.8167 14.1454 27.271 14.1454C27.6826 14.1454 27.9835 13.9632 27.9835 13.5079V13.4473H28.9404V13.5079C28.9404 14.0118 28.7869 14.3881 28.4863 14.6374C28.1857 14.8865 27.7985 15.0075 27.33 15.0075C26.2311 15.0075 25.6355 14.4491 25.6355 13.4766ZM29.6945 14.9165V10.6671H32.5253V11.4866H30.6462V12.3972H32.2409V13.1804H30.6462V14.0969H32.5372V14.9165H29.6945ZM33.5106 14.6251C33.1853 14.3701 33.0253 14.0058 33.0253 13.5384H33.9775C33.9731 13.6772 34.0237 13.8123 34.1187 13.9148C34.315 14.1031 34.5484 14.1454 34.8247 14.1454C35.2362 14.1454 35.4512 13.9878 35.4512 13.7386C35.4519 13.6824 35.4359 13.6271 35.4053 13.5797C35.3747 13.5323 35.3309 13.4948 35.2787 13.4718C35.1625 13.4047 34.9475 13.3199 34.6281 13.2167L34.2844 13.1012C33.9656 12.9982 33.7625 12.9073 33.5106 12.7188C33.265 12.5308 33.1297 12.2458 33.1297 11.8812C33.1297 11.4869 33.2712 11.1716 33.5597 10.935C33.8478 10.6985 34.2412 10.5771 34.7387 10.5771C35.2237 10.5771 35.6156 10.6985 35.9175 10.9473C36.2194 11.196 36.3656 11.5544 36.3656 12.0282H35.4087C35.4087 11.6395 35.1078 11.4393 34.715 11.4393C34.3222 11.4393 34.0947 11.5846 34.0947 11.8335C34.0947 11.9671 34.1562 12.0336 34.2481 12.1066C34.2941 12.146 34.4041 12.1857 34.4731 12.2107L34.4875 12.2158L34.8003 12.325L35.1194 12.4341C35.9481 12.7196 36.4153 13.0353 36.4153 13.691C36.4153 14.4865 35.8256 15.0083 34.7406 15.0083C34.2475 15.0076 33.8359 14.8802 33.5106 14.6251ZM37.3884 14.6251C37.0631 14.3701 36.9037 14.0058 36.9037 13.5384H37.8553C37.8509 13.6772 37.9016 13.8123 37.9966 13.9148C38.1931 14.1031 38.4262 14.1454 38.7025 14.1454C39.1141 14.1454 39.3291 13.9878 39.3291 13.7386C39.33 13.6824 39.3141 13.6272 39.2834 13.5797C39.2528 13.5323 39.2091 13.4948 39.1572 13.4718C39.0403 13.4047 38.8253 13.3199 38.5066 13.2167L38.1625 13.1012C37.8434 12.9982 37.6403 12.9073 37.3887 12.7188C37.1431 12.5308 37.0081 12.2458 37.0081 11.8812C37.0081 11.4869 37.1494 11.1716 37.4378 10.935C37.7266 10.6985 38.1194 10.5771 38.6169 10.5771C39.1016 10.5771 39.4941 10.6985 39.7959 10.9473C40.0978 11.196 40.2441 11.5544 40.2441 12.0282H39.2872C39.2872 11.6395 38.9866 11.4393 38.5934 11.4393C38.2003 11.4393 37.9734 11.5846 37.9734 11.8335C37.9734 11.9671 38.0347 12.0336 38.1269 12.1066C38.1728 12.146 38.2828 12.1857 38.3519 12.2107L38.3659 12.2158L38.6794 12.325L38.9984 12.4341C39.8275 12.7196 40.2941 13.0353 40.2941 13.691C40.2941 14.4865 39.7047 15.0083 38.6194 15.0083C38.1253 15.0076 37.7137 14.8802 37.3884 14.6251ZM41.0603 14.9165V10.6671H42.0119V14.9165H41.0603ZM42.9575 14.9165V10.6671H43.8297L45.3587 13.1612V10.6671H46.3106V14.9165H45.4384L43.9094 12.4216V14.9165H42.9575ZM47.5569 14.5949C47.2747 14.3153 47.1331 13.9452 47.1331 13.4775V12.1058C47.1331 11.1405 47.7656 10.576 48.8525 10.576C49.3375 10.576 49.7294 10.7033 50.0378 10.9642C50.3459 11.2252 50.4997 11.5898 50.4997 12.0574H49.5428C49.5428 11.675 49.2481 11.4385 48.8 11.4385C48.3272 11.4385 48.0875 11.675 48.0875 12.0636V13.4764C48.0875 13.8652 48.3453 14.1443 48.7878 14.1443C48.9412 14.1474 49.0934 14.1131 49.2306 14.0443C49.3675 13.9756 49.4853 13.8745 49.5734 13.7501V13.3735H48.8366V12.5915H50.4997V14.9172H49.9903L49.7937 14.5409C49.5787 14.8263 49.1672 15.0083 48.725 15.0083C48.2322 15.0076 47.8456 14.868 47.5569 14.5949Z" fill="#958E97"/>
<path fill-rule="evenodd" clip-rule="evenodd" d="M13.5042 19.8984V17.3945H13.9711V18.1679C14.1098 18.0504 14.288 17.9883 14.4705 17.9939C14.8585 17.9939 15.1388 18.2305 15.1388 18.676V19.2581C15.1388 19.7024 14.8597 19.9401 14.4705 19.9401C14.3666 19.9407 14.2635 19.921 14.1673 19.8821C14.0711 19.8431 13.9837 19.7857 13.91 19.7132L13.7737 19.8976L13.5042 19.8984ZM13.9711 19.3267C14.1042 19.458 14.2369 19.5238 14.3737 19.5238C14.4135 19.5247 14.4529 19.5176 14.4897 19.5029C14.5265 19.4882 14.5599 19.4662 14.5878 19.4382C14.6157 19.4103 14.6375 19.377 14.6519 19.3404C14.6663 19.3038 14.673 19.2647 14.6716 19.2255V18.713C14.6736 18.6539 14.6573 18.5956 14.6247 18.546C14.5922 18.4963 14.545 18.4578 14.4896 18.4356C14.4528 18.4209 14.4134 18.4137 14.3737 18.4146C14.2369 18.4146 14.1043 18.4785 13.971 18.6098L13.9711 19.3267Z" fill="#958E97"/>
<path d="M15.8239 20.4668V20.2996L16.0001 19.8983L15.3535 18.2537V18.0372H15.7844L16.2302 19.2716L16.6505 18.0392H17.0743V18.2557L16.2051 20.4687L15.8239 20.4668ZM18.0731 19.0566V18.2537C18.0731 17.6857 18.4251 17.3589 19.0611 17.3589C19.3301 17.3589 19.553 17.4334 19.7288 17.5789C19.9048 17.7244 19.9948 17.9411 19.9948 18.2289V18.2643H19.4849V18.2289C19.4849 17.9554 19.2855 17.8205 19.0284 17.8205C18.7305 17.8205 18.583 17.9659 18.583 18.2183V19.0922C18.583 19.3444 18.7305 19.4899 19.0284 19.4899C19.2871 19.4899 19.4849 19.3623 19.4849 19.0815V19.046H19.9948V19.0815C19.9948 19.3692 19.905 19.5892 19.7288 19.7351C19.5526 19.881 19.3301 19.9515 19.0611 19.9515C18.4251 19.9515 18.0731 19.6263 18.0731 19.0566Z" fill="#958E97"/>
<path fill-rule="evenodd" clip-rule="evenodd" d="M20.3267 19.2512V18.6832C20.3267 18.2745 20.6177 17.9941 21.1456 17.9941C21.6666 17.9941 21.9613 18.2745 21.9613 18.6832V19.2512C21.9613 19.6597 21.6666 19.9403 21.1456 19.9403C20.6177 19.9412 20.3267 19.6597 20.3267 19.2512ZM21.4941 19.2316V18.7046C21.4941 18.5338 21.3721 18.4132 21.1456 18.4132C20.9192 18.4132 20.7935 18.5373 20.7935 18.7046V19.2316C20.7935 19.3987 20.9159 19.5228 21.1456 19.5228C21.3753 19.5228 21.4941 19.4006 21.4941 19.2316Z" fill="#958E97"/>
<path d="M22.364 19.8979V18.0368H22.8306V19.8979H22.364ZM23.3162 19.8979V18.0368H23.5856L23.722 18.2213C23.7949 18.1483 23.8818 18.0906 23.9777 18.0515C24.0736 18.0125 24.1765 17.993 24.2802 17.9942C24.686 17.9942 24.9341 18.2639 24.9341 18.7153V19.8979H24.4651V18.7436C24.4651 18.5268 24.3456 18.4133 24.1745 18.4133C24.0306 18.4133 23.9014 18.4772 23.7826 18.6084V19.8979H23.3162ZM25.5362 19.756C25.4611 19.6961 25.4006 19.6203 25.3591 19.5342C25.3178 19.4481 25.2965 19.3538 25.2969 19.2584H25.7602C25.7781 19.4256 25.9432 19.5214 26.1989 19.5214C26.3679 19.5214 26.4755 19.4611 26.4755 19.3638C26.4755 19.296 26.4325 19.2533 26.35 19.2356L25.8288 19.1043C25.5019 19.0227 25.3369 18.8485 25.3369 18.5892C25.3369 18.2198 25.6244 17.9927 26.1019 17.9927C26.5868 17.9927 26.8814 18.2233 26.8958 18.6316H26.4273C26.4165 18.4862 26.2941 18.4117 26.0644 18.4117C25.874 18.4117 25.7877 18.4756 25.7877 18.5607C25.7877 18.6211 25.8416 18.6676 25.9493 18.6924L26.4847 18.8236C26.7792 18.8946 26.9264 19.0602 26.9264 19.3279C26.9264 19.7083 26.6174 19.9389 26.1399 19.9389C25.8919 19.9413 25.691 19.8801 25.5362 19.756Z" fill="#958E97"/>
<path fill-rule="evenodd" clip-rule="evenodd" d="M27.3665 19.8979V17.4116H28.4904C28.9393 17.4116 29.2125 17.7136 29.2125 18.1965C29.2125 18.6794 28.9393 18.9778 28.4904 18.9778H27.8769V19.8979H27.3665ZM27.8769 18.5374H28.3975C28.5666 18.5374 28.6957 18.4193 28.6957 18.1929C28.6957 17.9667 28.5666 17.852 28.3975 17.852H27.8769V18.5374ZM29.5542 19.795C29.4347 19.6993 29.3749 19.5585 29.3749 19.3867C29.3749 18.9994 29.6336 18.7827 30.1363 18.7827H30.5238V18.6644C30.5238 18.4973 30.4234 18.4122 30.222 18.4122C30.0207 18.4122 29.9203 18.4973 29.9203 18.6251H29.4646C29.4646 18.2414 29.7233 17.9943 30.222 17.9943C30.7207 17.9943 30.991 18.2462 30.991 18.6333V19.8979H30.7231L30.5864 19.717C30.4302 19.8645 30.2215 19.9451 30.0055 19.9413C29.8425 19.9453 29.6831 19.8937 29.5542 19.795ZM30.5238 19.3405V19.1343H30.136C29.917 19.1343 29.8413 19.2265 29.8413 19.3263C29.8413 19.4575 29.9277 19.5234 30.1037 19.5234C30.183 19.5251 30.2616 19.5096 30.3342 19.478C30.4068 19.4464 30.4715 19.3994 30.5238 19.3405Z" fill="#958E97"/>
<path d="M31.4595 19.8981V18.0371H31.9263V19.8981H31.4595Z" fill="#958E97"/>
<path fill-rule="evenodd" clip-rule="evenodd" d="M33.9937 17.3945V19.8985H33.7228L33.5862 19.714C33.5128 19.7868 33.4253 19.8444 33.329 19.8836C33.2328 19.9227 33.1296 19.9425 33.0256 19.9419C32.6384 19.9419 32.359 19.7053 32.359 19.2591V18.6769C32.359 18.2326 32.6384 17.9949 33.0274 17.9949C33.2093 17.9894 33.3868 18.051 33.5253 18.1679V17.3945H33.9937ZM33.5268 18.6091C33.3937 18.4778 33.2609 18.4139 33.124 18.4139C33.0843 18.413 33.0449 18.4202 33.0081 18.4349C32.9712 18.4497 32.9381 18.4717 32.9103 18.4997C32.8824 18.5277 32.8606 18.5609 32.8462 18.5975C32.8318 18.634 32.8249 18.6731 32.8262 18.7123V19.2248C32.8249 19.264 32.8315 19.3031 32.8462 19.3397C32.8606 19.3763 32.8824 19.4095 32.9103 19.4375C32.9381 19.4654 32.9715 19.4875 33.0081 19.5022C33.0449 19.517 33.0843 19.5242 33.124 19.5233C33.2609 19.5233 33.3937 19.4594 33.5268 19.3262V18.6091Z" fill="#958E97"/>
<path d="M6.40944 8.1928C6.85763 7.74965 7.46419 7.49871 8.098 7.49424C8.44497 7.49306 8.79116 7.52705 9.13113 7.59565V5.05062C8.79444 5.00584 8.45509 4.9834 8.11538 4.9834H8.08575C7.04391 4.98777 6.01409 5.2034 5.05991 5.61693C4.10569 6.03046 3.24743 6.63309 2.53815 7.38759C1.82887 8.14212 1.28364 9.03243 0.936175 10.0036C0.588712 10.9747 0.446397 12.0059 0.518029 13.0336C0.58966 14.0613 0.873716 15.0635 1.35263 15.9783C1.83155 16.8931 2.49516 17.7011 3.30242 18.3522C4.10969 19.0034 5.04344 19.4839 6.046 19.7641C7.04853 20.0443 8.09856 20.1182 9.13113 19.9812V17.4362C8.29563 17.6048 7.43066 17.5627 6.61594 17.3137C5.80122 17.0648 5.063 16.6171 4.46937 16.0118C3.87575 15.4065 3.44579 14.6632 3.21917 13.8504C2.99255 13.0376 2.97655 12.1815 3.17265 11.3609C3.18887 11.305 3.2295 11.2605 3.28537 11.2605C3.34251 11.2655 3.37679 11.2956 3.39188 11.3609C3.63313 12.1083 4.05219 12.7876 4.61391 13.3417C5.54256 14.2599 6.80206 14.7757 8.11538 14.7757C8.52166 14.7708 8.82641 14.7475 9.13113 14.7084V12.1633C8.82216 12.2256 8.50728 12.2595 8.19069 12.2643C8.16559 12.2637 8.14047 12.2629 8.11538 12.2615V12.2648C7.63822 12.2649 7.17175 12.125 6.775 11.8629C6.37825 11.6008 6.06903 11.2282 5.88641 10.7924C5.70381 10.3565 5.65603 9.87687 5.74912 9.41415C5.84222 8.95143 6.072 8.5264 6.40944 8.1928Z" fill="#958E97"/>
</g>
<defs>
<clipPath id="clip0_156_118">
<rect width="50" height="25" fill="white" transform="translate(0.5)"/>
</clipPath>
</defs>
</svg>
