<svg width="38" height="25" viewBox="0 0 38 25" fill="none" xmlns="http://www.w3.org/2000/svg">
<g clip-path="url(#clip0_156_11)">
<path fill-rule="evenodd" clip-rule="evenodd" d="M15.4543 6.62238L13.5713 18.6984H16.584L18.4672 6.62238H15.4543ZM11.0366 6.62238L8.16424 14.9282L7.82449 13.1397L7.82474 13.1402L7.74984 12.7394C7.40223 11.9576 6.59711 10.4717 5.07684 9.20359C4.62738 8.82878 4.17432 8.50887 3.73633 8.23566L6.34683 18.6984H9.48576L14.2791 6.62238H11.0366ZM22.7944 9.97494C22.7944 8.60962 25.7284 8.78506 27.0177 9.52641L27.4476 6.93281C27.4476 6.93281 26.1208 6.40625 24.7378 6.40625C23.2426 6.40625 19.6923 7.08856 19.6923 10.4039C19.6923 13.5241 23.8593 13.5629 23.8593 15.201C23.8593 16.8391 20.1219 16.5464 18.8885 15.513L18.4403 18.2239C18.4403 18.2239 19.7854 18.9062 21.8413 18.9062C23.8969 18.9062 26.9989 17.7949 26.9989 14.772C26.9989 11.6323 22.7944 11.3399 22.7944 9.97494ZM35.0882 6.62238H32.666C31.5473 6.62238 31.2751 7.52234 31.2751 7.52234L26.7822 18.6984H29.9224L30.5505 16.9048H34.3806L34.734 18.6984H37.5L35.0882 6.62238ZM31.4188 14.4267L33.0018 9.90753L33.8925 14.4267H31.4188Z" fill="#958E97"/>
<path fill-rule="evenodd" clip-rule="evenodd" d="M6.84982 7.7598C6.84982 7.7598 6.7251 6.66992 5.39371 6.66992H0.556658L0.5 6.87473C0.5 6.87473 2.82507 7.3693 5.05569 9.22223C7.18735 10.9932 7.88273 13.2007 7.88273 13.2007L6.84982 7.7598Z" fill="#958E97"/>
</g>
<defs>
<clipPath id="clip0_156_11">
<rect width="37" height="25" fill="white" transform="translate(0.5)"/>
</clipPath>
</defs>
</svg>
