<svg width="58" height="54" viewBox="0 0 58 54" fill="none" xmlns="http://www.w3.org/2000/svg">
<g clip-path="url(#clip0_156_177)">
<path d="M26.2582 51.3644C26.2574 51.4774 26.2328 51.5889 26.1861 51.6916C26.1375 51.7953 26.077 51.893 26.0057 51.9824C25.9398 52.0782 25.8675 52.1692 25.7892 52.255L25.5367 52.5095L25.3924 52.6367L25.2481 52.7821L25.1218 52.9457C25.0914 52.9773 25.067 53.0143 25.0497 53.0548H26.3484V53.6H24.3462C24.3413 53.5578 24.3413 53.5151 24.3462 53.4728V53.3637C24.3437 53.2404 24.362 53.1174 24.4003 53.0002C24.4448 52.8775 24.5054 52.7613 24.5807 52.6549C24.6563 52.5563 24.7409 52.4651 24.8332 52.3823L25.1038 52.1096L25.2842 51.9279L25.4646 51.7461C25.4995 51.6945 25.5297 51.6397 25.5547 51.5825C25.5796 51.5252 25.5919 51.4633 25.5908 51.4008C25.5966 51.3498 25.5898 51.2983 25.5709 51.2507C25.552 51.2031 25.5217 51.161 25.4826 51.1281C25.4074 51.0792 25.3195 51.0539 25.2301 51.0554C25.1503 51.0525 25.0707 51.0648 24.9956 51.0918C24.9328 51.1163 24.8724 51.1468 24.8152 51.1827C24.7645 51.2085 24.7162 51.2389 24.6709 51.2735C24.6385 51.3014 24.6083 51.3318 24.5807 51.3644L24.274 50.91C24.4001 50.7833 24.5465 50.6788 24.707 50.601C24.8777 50.5266 25.0621 50.4894 25.2481 50.492C25.4003 50.4875 25.5523 50.5059 25.699 50.5465C25.8198 50.581 25.9309 50.6432 26.0237 50.7283C26.1071 50.8011 26.1694 50.8953 26.2041 51.0009C26.2451 51.1174 26.2635 51.2409 26.2582 51.3644ZM28.8737 52.0914C28.8979 52.4998 28.7972 52.9058 28.5851 53.2547C28.4983 53.3846 28.3795 53.4897 28.2405 53.5598C28.1014 53.6298 27.9467 53.6625 27.7915 53.6546C27.6364 53.6607 27.4824 53.6273 27.3436 53.5574C27.2048 53.4875 27.0859 53.3834 26.9978 53.2547C26.7821 52.9007 26.6812 52.4877 26.7092 52.0733C26.7058 51.847 26.73 51.6211 26.7813 51.4008C26.8304 51.2246 26.9098 51.0585 27.0158 50.91C27.1034 50.7851 27.2197 50.6835 27.3548 50.6138C27.4899 50.5442 27.6397 50.5086 27.7915 50.5102C27.9467 50.5022 28.1014 50.5349 28.2405 50.6049C28.3795 50.675 28.4983 50.7801 28.5851 50.91C28.7994 51.2579 28.9003 51.6647 28.8737 52.0733V52.0914ZM28.2244 52.0914C28.2266 51.9519 28.2206 51.8123 28.2063 51.6734C28.1952 51.5619 28.171 51.452 28.1342 51.3462C28.1102 51.2643 28.0669 51.1894 28.0079 51.1281C27.9786 51.1018 27.9443 51.0818 27.9071 51.0693C27.8699 51.0568 27.8305 51.0521 27.7915 51.0554C27.7186 51.0535 27.6477 51.0795 27.593 51.1281C27.5365 51.1913 27.4935 51.2656 27.4668 51.3462C27.4309 51.4523 27.4067 51.562 27.3946 51.6734C27.3811 51.8062 27.375 51.9397 27.3766 52.0733C27.3686 52.2125 27.3686 52.3521 27.3766 52.4913C27.3945 52.6034 27.4247 52.7131 27.4668 52.8185C27.4957 52.8927 27.5385 52.9606 27.593 53.0184C27.6477 53.067 27.7186 53.093 27.7915 53.0911C27.8305 53.0944 27.8699 53.0897 27.9071 53.0772C27.9443 53.0647 27.9786 53.0447 28.0079 53.0184C28.0645 52.9623 28.1077 52.8939 28.1342 52.8185C28.171 52.7127 28.1952 52.6028 28.2063 52.4913C28.2143 52.3521 28.2143 52.2125 28.2063 52.0733L28.2244 52.0914ZM31.1826 51.3644C31.1817 51.4774 31.1572 51.5889 31.1104 51.6916C31.0619 51.7953 31.0014 51.893 30.9301 51.9824C30.8642 52.0782 30.7919 52.1692 30.7136 52.255L30.443 52.5095L30.3168 52.6367L30.1725 52.7821L30.0462 52.9457C30.0158 52.9773 29.9913 53.0143 29.974 53.0548H31.2728V53.6H29.2706C29.2656 53.5578 29.2656 53.5151 29.2706 53.4728V53.3637C29.2681 53.2404 29.2864 53.1174 29.3247 53.0002C29.3691 52.8775 29.4298 52.7613 29.5051 52.6549C29.575 52.5571 29.6535 52.4659 29.7396 52.3823L30.0101 52.1096L30.2085 51.9279L30.3889 51.7461C30.4239 51.6945 30.4541 51.6397 30.4791 51.5825C30.5039 51.5252 30.5162 51.4633 30.5152 51.4008C30.521 51.3498 30.5142 51.2983 30.4953 51.2507C30.4764 51.2031 30.446 51.161 30.407 51.1281C30.3267 51.0756 30.232 51.0501 30.1364 51.0554C30.0627 51.0547 29.9894 51.067 29.9199 51.0918C29.8571 51.1163 29.7967 51.1468 29.7396 51.1827C29.6888 51.2085 29.6405 51.2389 29.5953 51.2735C29.5629 51.3014 29.5327 51.3318 29.5051 51.3644L29.1804 50.8918C29.3119 50.7634 29.4644 50.6589 29.6313 50.5829C29.802 50.5084 29.9865 50.4712 30.1725 50.4738C30.3246 50.4693 30.4766 50.4877 30.6234 50.5283C30.7377 50.5653 30.8424 50.6274 30.9301 50.7101C31.0134 50.783 31.0758 50.8771 31.1104 50.9827C31.1576 51.098 31.1821 51.2215 31.1826 51.3462V51.3644ZM32.4813 53.6546C32.3973 53.6608 32.3129 53.6608 32.2288 53.6546C32.1436 53.6414 32.0593 53.6232 31.9763 53.6L31.7598 53.5455C31.7044 53.5313 31.6502 53.5131 31.5975 53.491L31.7237 52.9457L32.0123 53.0548C32.1533 53.0936 32.2991 53.112 32.4453 53.1093C32.5995 53.1159 32.7516 53.0712 32.8782 52.982C32.923 52.9482 32.9593 52.9043 32.9844 52.8538C33.0094 52.8033 33.0225 52.7477 33.0225 52.6912C33.0241 52.6207 33.0053 52.5512 32.9684 52.4913C32.9389 52.4378 32.8951 52.3938 32.8421 52.3641C32.7759 52.3246 32.7021 52.2998 32.6256 52.2914C32.5427 52.2718 32.4582 52.2596 32.3731 52.255H32.1206V51.7461H32.4092C32.4697 51.7457 32.5301 51.7396 32.5896 51.7279C32.6523 51.7202 32.7133 51.7017 32.7699 51.6734C32.811 51.6401 32.8421 51.5961 32.8601 51.5462C32.8938 51.4915 32.9125 51.4288 32.9142 51.3644C32.9136 51.3177 32.9017 51.2718 32.8798 51.2307C32.8578 51.1896 32.8263 51.1544 32.788 51.1281C32.7505 51.1006 32.7073 51.0819 32.6617 51.0736C32.6148 51.0603 32.5661 51.0542 32.5174 51.0554C32.3949 51.0518 32.2727 51.0703 32.1566 51.11C32.0615 51.1483 31.9707 51.1971 31.8861 51.2554L31.6516 50.7828L31.832 50.6919C31.89 50.6575 31.9502 50.6272 32.0123 50.601C32.0945 50.57 32.1789 50.5457 32.2649 50.5283C32.3542 50.513 32.4449 50.5069 32.5354 50.5102C32.6887 50.5095 32.841 50.534 32.9864 50.5829C33.1066 50.6185 33.2175 50.6806 33.3111 50.7646C33.3897 50.8344 33.4514 50.9215 33.4915 51.0191C33.5315 51.1296 33.5499 51.2469 33.5456 51.3644C33.5422 51.4873 33.5072 51.6073 33.444 51.7124C33.3807 51.8176 33.2914 51.9043 33.1848 51.9642C33.3337 52.0172 33.4624 52.1158 33.553 52.2462C33.6435 52.3765 33.6914 52.5321 33.6899 52.6912C33.6923 52.828 33.6677 52.9639 33.6177 53.0911C33.5718 53.2104 33.4974 53.3165 33.4013 53.4001C33.2894 53.4915 33.1607 53.5594 33.0225 53.6C32.8465 53.6505 32.6642 53.6749 32.4813 53.6727V53.6546Z" fill="white"/>
<path fill-rule="evenodd" clip-rule="evenodd" d="M19.3316 53.9817C19.813 53.9119 20.2655 53.7082 20.6383 53.3935C21.0111 53.0789 21.2894 52.6657 21.4421 52.2005C21.4421 52.2005 21.4962 52.1641 20.9551 51.9279C18.9348 51.0918 16.7703 53.2002 16.7703 53.2002C16.7703 53.2002 18.3576 54.1453 19.3316 53.9817ZM21.7307 48.0928C21.1715 47.2204 19.7826 46.766 19.7826 46.766C19.7826 46.766 19.512 49.8195 21.4782 50.801C22.0193 51.0554 21.9832 50.9827 21.9832 50.9827C22.1889 50.5192 22.2736 50.0105 22.2294 49.5047C22.1852 48.999 22.0136 48.5129 21.7307 48.0928ZM17.0047 50.4556C15.1649 49.2924 12.6756 50.9827 12.6756 50.9827C12.6756 50.9827 14.0646 52.1823 15.0566 52.2005C15.5412 52.2134 16.02 52.0912 16.4401 51.8475C16.8602 51.6037 17.2054 51.2479 17.4377 50.8191C17.4377 50.8191 17.5098 50.801 17.0047 50.4556ZM17.7263 49.4378C18.1772 49.8013 18.1772 49.7104 18.1772 49.7104C18.4633 49.2882 18.6367 48.7989 18.681 48.2896C18.7252 47.7804 18.6387 47.2682 18.4297 46.8023C18.0329 45.8572 16.7522 45.1665 16.7522 45.1665C16.7522 45.1665 15.9585 48.1291 17.7082 49.4378H17.7263ZM13.3611 48.3472C11.7737 46.8568 9.01392 48.0928 9.01392 48.0928C9.01392 48.0928 10.1864 49.5287 11.1604 49.7286C11.6368 49.8253 12.1304 49.7864 12.586 49.6162C13.0416 49.4461 13.4412 49.1514 13.7399 48.7653C13.7399 48.7653 13.794 48.7653 13.3791 48.3472H13.3611ZM14.6598 47.8201C15.0136 47.4546 15.2675 47.0031 15.3971 46.5095C15.5267 46.0159 15.5275 45.4969 15.3994 45.0029C15.1649 43.9851 14.0285 43.0945 14.0285 43.0945C14.0285 43.0945 12.7478 45.8572 14.2449 47.4566C14.6418 47.8929 14.6598 47.8201 14.6598 47.8201ZM5.91139 44.5849C5.91139 44.5849 6.81329 46.2207 7.73323 46.5842C8.18498 46.7635 8.67736 46.8126 9.15523 46.7259C9.63309 46.6393 10.0776 46.4203 10.4389 46.0935C10.4389 46.0935 10.5111 46.0935 10.1503 45.6209C8.83354 43.8578 5.91139 44.5849 5.91139 44.5849ZM11.1604 44.8939C11.5032 45.3846 11.5212 45.3301 11.5212 45.3301C11.9329 45.0306 12.2606 44.6287 12.4724 44.1637C12.6842 43.6986 12.7729 43.1863 12.7297 42.6764C12.6756 41.6404 11.7016 40.5499 11.7016 40.5499C11.7016 40.5499 9.96994 43.0581 11.1604 44.8939ZM3.45823 40.6044C3.45823 40.6044 4.07152 42.3674 4.90127 42.8764C5.31554 43.1356 5.7935 43.273 6.28117 43.273C6.76884 43.273 7.2468 43.1356 7.66108 42.8764C7.66108 42.8764 7.73323 42.8764 7.46266 42.3674C6.45253 40.4045 3.45823 40.6044 3.45823 40.6044ZM8.85158 42.3129C9.30947 42.0904 9.70271 41.7527 9.99339 41.3325C10.2841 40.9122 10.4624 40.4236 10.5111 39.9137C10.6193 38.8777 9.86171 37.6418 9.86171 37.6418C9.86171 37.6418 7.71519 39.8047 8.58101 41.8222C8.81551 42.3674 8.85158 42.3129 8.85158 42.3129ZM1.72658 36.2422C1.72658 36.2422 2.01519 38.078 2.77278 38.7323C3.13597 39.0561 3.58134 39.2717 4.05913 39.3552C4.53693 39.4386 5.02834 39.3866 5.47848 39.2049C5.47848 39.2049 5.53259 39.2412 5.37025 38.6596C4.72089 36.5694 1.72658 36.2422 1.72658 36.2422ZM6.74114 38.8595C7.22851 38.7267 7.67372 38.4696 8.03388 38.1131C8.39404 37.7565 8.65701 37.3125 8.79747 36.8239C9.10411 35.8242 8.56297 34.461 8.56297 34.461C8.56297 34.461 6.07373 36.2241 6.5788 38.3506C6.7231 38.9322 6.75918 38.8777 6.75918 38.8777L6.74114 38.8595ZM0.770569 31.662C0.770569 31.662 0.752531 33.5341 1.38386 34.3156C1.68603 34.6969 2.08666 34.9868 2.54172 35.1535C2.99679 35.3203 3.48866 35.3574 3.96329 35.2607C3.96329 35.2607 4.0174 35.2971 3.94525 34.7155C3.65664 32.5344 0.770569 31.662 0.770569 31.662ZM5.28006 35.1153C5.77788 35.0621 6.25416 34.8824 6.66428 34.5932C7.0744 34.3039 7.40496 33.9145 7.625 33.4614C8.09399 32.5162 7.80538 31.0985 7.80538 31.0985C7.80538 31.0985 5.04557 32.389 5.17183 34.5882C5.20791 35.1699 5.26202 35.1335 5.26202 35.1335L5.28006 35.1153ZM3.11551 31.0803C3.11551 31.0803 3.16962 31.1167 3.2057 30.5351C3.33196 28.3176 0.626265 26.9726 0.626265 26.9726C0.626265 26.9726 0.265506 28.7902 0.752531 29.6626C0.984787 30.0914 1.32999 30.4472 1.7501 30.691C2.17021 30.9347 2.64894 31.0569 3.13354 31.044L3.11551 31.0803ZM4.43228 31.1712C4.9351 31.2097 5.43934 31.118 5.89711 30.9049C6.35488 30.6917 6.75097 30.3642 7.04778 29.9534C7.67911 29.0992 7.625 27.6633 7.625 27.6633C7.625 27.6633 4.68481 28.4449 4.43228 30.6259C4.37816 31.2076 4.43228 31.1712 4.43228 31.1712ZM1.27563 22.356C1.27563 22.356 0.626265 24.1009 0.950949 25.046C1.10361 25.5112 1.38197 25.9244 1.75478 26.239C2.12758 26.5537 2.58006 26.7574 3.06139 26.8272C3.06139 26.8272 3.09747 26.8817 3.24177 26.282C3.71076 24.1554 1.27563 22.356 1.27563 22.356ZM4.34209 27.1544C4.82969 27.2801 5.34117 27.2777 5.82756 27.1472C6.31394 27.0167 6.75893 26.7626 7.11994 26.4092C7.87753 25.6822 8.07595 24.2281 8.07595 24.2281C8.07595 24.2281 5.06361 24.5007 4.43228 26.5909C4.2519 27.1907 4.34209 27.1362 4.34209 27.1362V27.1544ZM3.98133 22.1197C4.81108 20.1022 2.71867 17.903 2.71867 17.903C2.71867 17.903 1.7807 19.5024 1.94304 20.4839C2.01236 20.9689 2.2145 21.4248 2.52677 21.8005C2.83903 22.1761 3.24904 22.4566 3.71076 22.6105C3.71076 22.6105 3.74683 22.6832 3.98133 22.1197ZM4.90127 23.1739C5.36319 23.3862 5.8718 23.4743 6.37757 23.4297C6.88333 23.3851 7.36902 23.2093 7.78734 22.9194C8.6712 22.3378 9.10411 20.9565 9.10411 20.9565C9.10411 20.9565 6.09177 20.6838 5.11772 22.6468C4.84715 23.1921 4.90127 23.1739 4.90127 23.1739ZM5.08164 18.5936C5.08164 18.5936 5.09968 18.6482 5.42437 18.1574C6.59683 16.3035 4.9193 13.7952 4.9193 13.7952C4.9193 13.7952 3.71076 15.1948 3.71076 16.1944C3.69798 16.6827 3.81922 17.1651 4.0611 17.5884C4.30298 18.0118 4.65613 18.3596 5.08164 18.5936ZM6.45253 18.8663C6.09177 19.3388 6.18196 19.3388 6.18196 19.3388C6.60099 19.6271 7.08655 19.8019 7.59197 19.8464C8.09739 19.891 8.6057 19.8038 9.06804 19.5933C10.006 19.1753 10.6915 17.8848 10.6915 17.8848C10.6915 17.8848 7.75127 17.085 6.45253 18.8481V18.8663ZM6.18196 12.2503C6.08599 12.7303 6.1246 13.2277 6.29346 13.6867C6.46232 14.1458 6.75476 14.5484 7.13797 14.8494C7.13797 14.8494 7.13797 14.9221 7.53481 14.4859C9.01392 12.8865 7.80538 10.1056 7.80538 10.1056C7.80538 10.1056 6.36234 11.2688 6.18196 12.2503ZM8.43671 15.3402C8.0038 15.7582 8.07595 15.7582 8.07595 15.7582C8.43333 16.118 8.87668 16.3789 9.36324 16.5158C9.84979 16.6527 10.3631 16.6609 10.8538 16.5398C11.8639 16.3035 12.7478 15.1402 12.7478 15.1402C12.7478 15.1402 10.006 13.8679 8.41867 15.3584L8.43671 15.3402ZM10.2766 11.2325C12.0082 9.90565 11.2867 6.94301 11.2867 6.94301C11.2867 6.94301 9.66329 7.85179 9.30253 8.79693C9.12457 9.25213 9.07586 9.74827 9.16188 10.2298C9.2479 10.7113 9.46523 11.1592 9.78956 11.5233C9.78956 11.5233 9.78956 11.596 10.2766 11.2325ZM13.1627 13.8134C14.2089 13.7589 15.2731 12.7774 15.2731 12.7774C15.2731 12.7774 12.7839 11.0144 10.962 12.2321C10.475 12.5593 10.5472 12.5775 10.5472 12.5775C10.8419 12.9916 11.2371 13.3226 11.695 13.539C12.1529 13.7554 12.6582 13.8499 13.1627 13.8134ZM13.4873 8.52429C15.4174 7.50645 15.219 4.47111 15.219 4.47111C15.219 4.47111 13.4873 5.08909 12.9642 5.94334C12.7042 6.35909 12.5648 6.8398 12.5616 7.33119C12.5584 7.82259 12.6916 8.30509 12.9462 8.72423C12.9462 8.72423 12.9462 8.8151 13.4693 8.54247L13.4873 8.52429ZM18.1772 10.9417C18.1772 10.9417 16.0127 8.76058 14.0104 9.65119C13.4693 9.88747 13.5415 9.92382 13.5415 9.92382C13.7591 10.3803 14.0887 10.7734 14.499 11.066C14.9092 11.3585 15.3867 11.541 15.8864 11.596C16.9326 11.705 18.1592 10.9417 18.1592 10.9417H18.1772ZM20.5222 5.67071C20.5222 5.67071 17.5098 5.3799 16.5177 7.34287C16.2472 7.86997 16.3193 7.85179 16.3193 7.85179C16.7797 8.06669 17.2875 8.15787 17.7932 8.11646C18.2989 8.07506 18.7854 7.90248 19.2054 7.61551C20.0712 7.05206 20.5402 5.67071 20.5402 5.67071H20.5222ZM37.063 51.946C36.5218 52.1641 36.5759 52.2005 36.5759 52.2005C36.7286 52.6657 37.007 53.0789 37.3798 53.3935C37.7526 53.7082 38.2051 53.9119 38.6864 53.9817C39.6604 54.1453 41.2478 53.182 41.2478 53.182C41.2478 53.182 39.0652 51.0918 37.0449 51.9279L37.063 51.946ZM36.5218 50.801C38.488 49.8195 38.2354 46.766 38.2354 46.766C38.2354 46.766 36.8465 47.2204 36.2873 48.0928C35.9967 48.5127 35.8191 49.0013 35.7717 49.5109C35.7243 50.0206 35.8087 50.5339 36.0168 51.0009C36.0168 51.0009 36.0168 51.0736 36.5218 50.801ZM41.0133 50.4738C40.5082 50.801 40.5804 50.8191 40.5804 50.8191C40.811 51.2493 41.1559 51.6063 41.5764 51.8502C41.9969 52.0942 42.4764 52.2154 42.9614 52.2005C43.9535 52.2005 45.3604 50.9827 45.3604 50.9827C45.3604 50.9827 42.8351 49.2924 41.0133 50.4738ZM40.2918 49.4378C42.0415 48.1291 41.2658 45.1847 41.2658 45.1847C41.2658 45.1847 39.9851 45.8572 39.5703 46.8205C39.3613 47.2864 39.2748 47.7985 39.319 48.3078C39.3633 48.8171 39.5367 49.3064 39.8228 49.7286C39.8228 49.7286 39.8228 49.8013 40.2918 49.4378ZM46.8576 49.7104C47.8316 49.5287 49.0041 48.0746 49.0041 48.0746C49.0041 48.0746 46.2443 46.8568 44.6389 48.3291C44.206 48.7471 44.2782 48.7471 44.2782 48.7471C44.5782 49.1316 44.9779 49.4251 45.4331 49.5951C45.8883 49.7651 46.3813 49.805 46.8576 49.7104ZM42.6006 45.0029C42.4725 45.4969 42.4733 46.0159 42.6029 46.5095C42.7325 47.0031 42.9864 47.4546 43.3402 47.8201C43.3402 47.8201 43.3402 47.8929 43.7551 47.4566C45.2522 45.8572 43.9715 43.0945 43.9715 43.0945C43.9715 43.0945 42.8351 44.0033 42.6006 45.0029ZM50.2668 46.566C51.2047 46.2025 52.1066 44.5849 52.1066 44.5849C52.1066 44.5849 49.1665 43.8578 47.8497 45.6027C47.4889 46.0753 47.5611 46.0753 47.5611 46.0753C47.9224 46.4021 48.3669 46.6211 48.8448 46.7077C49.3226 46.7944 49.815 46.7454 50.2668 46.566ZM45.2703 42.6764C45.2341 43.1847 45.3278 43.6939 45.5426 44.1553C45.7573 44.6167 46.0859 45.0149 46.4968 45.3119C46.4968 45.3119 46.5149 45.3846 46.8576 44.8939C48.0481 43.0581 46.3165 40.5499 46.3165 40.5499C46.3165 40.5499 45.3424 41.6404 45.2883 42.6764H45.2703ZM54.5598 40.6044C54.5598 40.6044 51.5475 40.4226 50.5373 42.3674C50.2668 42.8945 50.357 42.8764 50.357 42.8764C50.7672 43.1284 51.2384 43.2618 51.7188 43.2618C52.1993 43.2618 52.6705 43.1284 53.0807 42.8764C53.9465 42.3674 54.5598 40.6044 54.5598 40.6044ZM47.507 39.9137C47.5557 40.4236 47.734 40.9122 48.0247 41.3325C48.3153 41.7527 48.7086 42.0904 49.1665 42.3129C49.1665 42.3129 49.1845 42.3674 49.419 41.8222C50.2848 39.8228 48.1563 37.6418 48.1563 37.6418C48.1563 37.6418 47.3807 38.8777 47.507 39.9137ZM56.2734 36.2604C56.2734 36.2604 53.2791 36.5876 52.6297 38.6778C52.4494 39.2594 52.5215 39.223 52.5215 39.223C52.9717 39.4048 53.4631 39.4568 53.9409 39.3733C54.4187 39.2899 54.864 39.0742 55.2272 38.7505C55.9848 38.0962 56.2734 36.2604 56.2734 36.2604ZM51.2589 38.8777C51.2589 38.8777 51.2949 38.9322 51.4392 38.3506C51.9443 36.2241 49.4551 34.461 49.4551 34.461C49.4551 34.461 48.9139 35.8242 49.2206 36.8239C49.3583 37.3129 49.6179 37.7584 49.9746 38.1179C50.3314 38.4774 50.7735 38.7389 51.2589 38.8777ZM56.6342 34.2974C57.2655 33.5341 57.2475 31.662 57.2475 31.662C57.2475 31.662 54.3614 32.5162 54.0728 34.6973C53.9826 35.2789 54.0547 35.2426 54.0547 35.2426C54.5294 35.3413 55.0219 35.3052 55.4774 35.1383C55.9328 34.9714 56.3333 34.6803 56.6342 34.2974ZM52.8282 34.5882C52.9544 32.389 50.2127 31.0985 50.2127 31.0985C50.2127 31.0985 49.906 32.5344 50.393 33.4614C50.6093 33.9189 50.9385 34.3129 51.349 34.6057C51.7596 34.8984 52.2378 35.0802 52.738 35.1335C52.738 35.1335 52.7921 35.1699 52.8282 34.5882ZM54.7763 30.5169C54.8123 31.1167 54.8665 31.0622 54.8665 31.0622C55.3511 31.075 55.8298 30.9529 56.2499 30.7091C56.67 30.4654 57.0152 30.1096 57.2475 29.6808C57.7345 28.8084 57.3918 26.9726 57.3918 26.9726C57.3918 26.9726 54.6861 28.3176 54.7763 30.5169ZM53.5497 31.1712C53.5497 31.1712 53.6218 31.2076 53.5497 30.6259C53.2972 28.4449 50.375 27.6633 50.375 27.6633C50.375 27.6633 50.3209 29.1174 50.9342 29.9534C51.231 30.3642 51.6271 30.6917 52.0849 30.9049C52.5426 31.118 53.0469 31.2097 53.5497 31.1712ZM54.9386 26.809C55.4199 26.7392 55.8724 26.5355 56.2452 26.2209C56.618 25.9062 56.8964 25.4931 57.049 25.0278C57.3737 24.0827 56.7244 22.356 56.7244 22.356C56.7244 22.356 54.2892 24.1554 54.7763 26.282C54.9025 26.8817 54.9566 26.8272 54.9566 26.8272L54.9386 26.809ZM53.5677 26.6091C52.9544 24.5007 49.924 24.2463 49.924 24.2463C49.924 24.2463 50.1225 25.7003 50.8801 26.4092C51.2438 26.7641 51.6919 27.019 52.1815 27.1495C52.671 27.28 53.1856 27.2817 53.6759 27.1544C53.6759 27.1544 53.7481 27.1726 53.5677 26.6091ZM54.2892 22.6105C54.751 22.4566 55.161 22.1761 55.4732 21.8005C55.7855 21.4248 55.9876 20.9689 56.057 20.4839C56.2193 19.4842 55.2813 17.8848 55.2813 17.8848C55.2813 17.8848 53.1889 20.084 54.0187 22.1197C54.2532 22.665 54.2892 22.5923 54.2892 22.5923V22.6105ZM48.8959 20.9383C48.8959 20.9383 49.3468 22.3378 50.2127 22.9013C50.631 23.1912 51.1167 23.367 51.6224 23.4115C52.1282 23.4561 52.6368 23.368 53.0987 23.1557C53.0987 23.1557 53.1709 23.1739 52.9003 22.6468C51.9263 20.6657 48.8959 20.9383 48.8959 20.9383ZM52.5756 18.1392C52.9003 18.63 52.9184 18.5573 52.9184 18.5573C53.3452 18.3249 53.6995 17.9774 53.9416 17.5537C54.1837 17.13 54.3041 16.6468 54.2892 16.1581C54.2892 15.1584 53.0807 13.7589 53.0807 13.7589C53.0807 13.7589 51.4032 16.3035 52.5756 18.1211V18.1392ZM47.3446 17.8666C47.3446 17.8666 48.012 19.1571 48.968 19.5751C49.43 19.7874 49.9386 19.8755 50.4443 19.8309C50.9501 19.7863 51.4358 19.6105 51.8541 19.3207C51.8541 19.3207 51.9263 19.3207 51.5655 18.8481C50.2668 17.085 47.3266 17.8666 47.3266 17.8666H47.3446ZM50.2127 10.0692C50.2127 10.0692 48.9861 12.8501 50.4652 14.4677C50.862 14.904 50.8801 14.8313 50.8801 14.8313C51.2584 14.5268 51.5462 14.1231 51.7116 13.6646C51.8771 13.206 51.9139 12.7104 51.818 12.2321C51.6377 11.2506 50.1946 10.0692 50.1946 10.0692H50.2127ZM49.5813 15.3402C47.994 13.8498 45.2522 15.1221 45.2522 15.1221C45.2522 15.1221 46.1541 16.2853 47.1642 16.5216C47.6534 16.6451 48.1658 16.6397 48.6522 16.506C49.1387 16.3723 49.5829 16.1148 49.9421 15.7582C49.9421 15.7582 50.0142 15.7582 49.5813 15.3584V15.3402ZM47.7595 11.2325C48.2285 11.596 48.2285 11.5233 48.2285 11.5233C48.5498 11.1573 48.7638 10.7086 48.8466 10.2271C48.9294 9.74567 48.8778 9.25051 48.6975 8.79693C48.3547 7.85179 46.7494 6.96118 46.7494 6.96118C46.7494 6.96118 46.0278 9.90565 47.7595 11.2325ZM47.038 12.2503C45.2342 11.0325 42.7269 12.7956 42.7269 12.7956C42.7269 12.7956 43.8092 13.7771 44.8373 13.8316C45.3402 13.8701 45.8444 13.7784 46.3022 13.5653C46.7599 13.3521 47.156 13.0246 47.4528 12.6138C47.4528 12.6138 47.525 12.5775 47.038 12.2503ZM45.0358 5.94334C44.5307 5.08909 42.781 4.48929 42.781 4.48929C42.781 4.48929 42.5826 7.50645 44.5127 8.52429C45.0538 8.79693 45.0177 8.70605 45.0177 8.70605C45.2714 8.29065 45.4058 7.81246 45.4058 7.3247C45.4058 6.83693 45.2714 6.35874 45.0177 5.94334H45.0358ZM43.9896 9.65119C42.0054 8.77875 39.8408 10.9235 39.8408 10.9235C39.8408 10.9235 41.0674 11.705 42.1136 11.5778C42.6133 11.5228 43.0908 11.3404 43.501 11.0478C43.9113 10.7552 44.2409 10.3621 44.4585 9.90565C44.4585 9.90565 44.5307 9.88747 43.9896 9.65119ZM38.8127 7.61551C39.2342 7.89957 39.7215 8.06894 40.2272 8.10716C40.7329 8.14538 41.2398 8.05115 41.6987 7.83362C41.6987 7.83362 41.7709 7.85179 41.5003 7.3247C40.5082 5.36172 37.4778 5.65253 37.4778 5.65253C37.4778 5.65253 37.9468 7.05206 38.8127 7.61551ZM28.1702 3.74408C28.168 3.5915 28.2113 3.44175 28.2944 3.31417C28.3775 3.18658 28.4966 3.08702 28.6364 3.02833C28.7762 2.96963 28.9302 2.95451 29.0786 2.9849C29.227 3.01529 29.363 3.0898 29.469 3.19881C29.539 3.2708 29.5942 3.35605 29.6313 3.44964C29.6685 3.54322 29.6869 3.6433 29.6854 3.74408C29.6879 3.84501 29.67 3.94538 29.6328 4.03911C29.5956 4.13284 29.5398 4.21798 29.469 4.28936C29.3984 4.3619 29.3143 4.41953 29.2213 4.45887C29.1284 4.49822 29.0286 4.51848 28.9278 4.51848C28.8271 4.51848 28.7273 4.49822 28.6344 4.45887C28.5414 4.41953 28.4572 4.3619 28.3867 4.28936C28.3065 4.22457 28.2433 4.14103 28.2024 4.04601C28.1615 3.95098 28.1443 3.84734 28.1522 3.74408H28.1702ZM30.0823 5.68888C30.0799 5.48401 30.1584 5.28658 30.3004 5.14001C30.4425 4.99344 30.6366 4.90974 30.8399 4.90733C31.0432 4.90492 31.2391 4.98399 31.3846 5.12715C31.5301 5.27031 31.6131 5.46584 31.6155 5.67071C31.6179 5.77328 31.5982 5.87516 31.5577 5.9693C31.5172 6.06344 31.4569 6.14761 31.381 6.21598C31.2392 6.35695 31.0481 6.43598 30.8489 6.43598C30.6497 6.43598 30.4585 6.35695 30.3168 6.21598C30.2366 6.15119 30.1733 6.06765 30.1325 5.97263C30.0916 5.8776 30.0744 5.77396 30.0823 5.67071V5.68888ZM27.0699 4.83463C26.9689 4.8322 26.8685 4.85016 26.7745 4.88743C26.6805 4.92471 26.5948 4.98056 26.5225 5.05169C26.4503 5.12281 26.3928 5.20779 26.3536 5.30161C26.3145 5.39543 26.2943 5.49621 26.2943 5.59801C26.2931 5.70041 26.3133 5.80192 26.3537 5.89588C26.3941 5.98985 26.4538 6.07416 26.5288 6.14328C26.5987 6.21711 26.6827 6.27607 26.7756 6.31666C26.8686 6.35724 26.9686 6.37863 27.0699 6.37956C27.2742 6.37567 27.4686 6.29076 27.6111 6.14328C27.6811 6.07129 27.7363 5.98604 27.7734 5.89245C27.8106 5.79887 27.829 5.69879 27.8275 5.59801C27.8239 5.50175 27.8012 5.4072 27.761 5.31983C27.7207 5.23247 27.6636 5.15403 27.593 5.08909C27.5314 5.00866 27.4521 4.9438 27.3613 4.89963C27.2705 4.85547 27.1707 4.83321 27.0699 4.83463ZM29 6.76125C28.7967 6.76125 28.6017 6.84263 28.4579 6.9875C28.3142 7.13237 28.2334 7.32885 28.2334 7.53372C28.2334 7.73859 28.3142 7.93507 28.4579 8.07993C28.6017 8.2248 28.7967 8.30618 29 8.30618C29.1016 8.30742 29.2024 8.28702 29.2956 8.2463C29.3889 8.20558 29.4725 8.14547 29.5411 8.0699C29.6098 8.00067 29.6643 7.91849 29.7014 7.82805C29.7385 7.73761 29.7576 7.64068 29.7576 7.5428C29.7588 7.4404 29.7386 7.33889 29.6982 7.24493C29.6578 7.15096 29.5981 7.06665 29.5231 6.99753C29.458 6.92244 29.3775 6.86243 29.2872 6.82164C29.1969 6.78086 29.0989 6.76025 29 6.76125ZM28.9459 -0.000109511C28.6015 0.00100824 28.2713 0.138029 28.0259 0.38158L23.7149 4.72557C23.5911 4.84746 23.4927 4.99306 23.4255 5.1538C23.3583 5.31455 23.3237 5.48721 23.3237 5.66162C23.3237 5.83603 23.3583 6.00869 23.4255 6.16944C23.4927 6.33018 23.5911 6.47578 23.7149 6.59767L25.4646 8.32436L26.2763 7.48828L24.4544 5.63436L24.725 5.36172L28.982 1.10861L34.2851 6.43409L34.3032 6.47044L34.3392 6.43409C34.5087 6.20871 34.6034 5.93523 34.6098 5.65253C34.6089 5.47908 34.5733 5.3076 34.5051 5.14833C34.4369 4.98906 34.3375 4.84528 34.213 4.72557L29.9019 0.38158C29.7761 0.256591 29.6266 0.158386 29.4624 0.0928122C29.2982 0.0272385 29.1225 -0.00436257 28.9459 -0.000109511ZM27.1241 8.34254L26.2943 9.16044L28.044 10.9235C28.2923 11.1631 28.6238 11.2953 28.9676 11.2919C29.3114 11.2885 29.6402 11.1498 29.8839 10.9053L33.4554 7.3247L32.6256 6.48861L28.9639 10.1783L27.1241 8.32436V8.34254Z" fill="#FFCB3D"/>
<path d="M24.0396 22.756C23.8231 22.756 23.6067 22.756 23.3902 22.7197C23.1597 22.708 22.9305 22.6776 22.7048 22.6288V18.721C22.9076 18.6849 23.1124 18.6606 23.3181 18.6483C23.5219 18.6271 23.7265 18.615 23.9313 18.612C24.1675 18.6151 24.4029 18.6395 24.6348 18.6847C24.8244 18.7126 25.0077 18.7741 25.176 18.8664C25.3267 18.9524 25.4514 19.0781 25.5367 19.2299C25.6358 19.3939 25.6859 19.5833 25.681 19.7752C25.6776 19.9307 25.6321 20.0822 25.5494 20.2135C25.4668 20.3449 25.3501 20.451 25.212 20.5204C25.4285 20.5858 25.6143 20.7278 25.7351 20.9203C25.8306 21.0924 25.8803 21.2865 25.8795 21.4837C25.8903 21.6714 25.8528 21.8587 25.7707 22.0275C25.6885 22.1963 25.5644 22.3408 25.4105 22.447C24.9996 22.682 24.5289 22.7895 24.0576 22.756H24.0396ZM23.5886 20.9384V21.9745H24.0576C24.2793 21.9853 24.5008 21.9482 24.707 21.8654C24.7857 21.8292 24.8519 21.77 24.8969 21.6954C24.9419 21.6209 24.9637 21.5345 24.9595 21.4474C24.9657 21.3668 24.9485 21.2861 24.9101 21.2151C24.8717 21.1441 24.8136 21.0859 24.7431 21.0475C24.5589 20.9538 24.3538 20.91 24.1478 20.9203L23.5886 20.9384ZM23.5886 20.2296H24.0215C24.2243 20.2488 24.4287 20.2176 24.6168 20.1387C24.6794 20.1031 24.73 20.0495 24.7621 19.9847C24.7942 19.92 24.8065 19.847 24.7972 19.7752C24.7994 19.7093 24.7838 19.6441 24.752 19.5864C24.7202 19.5288 24.6735 19.481 24.6168 19.448C24.4474 19.3695 24.262 19.3321 24.0757 19.339H23.8412C23.7631 19.334 23.6848 19.334 23.6067 19.339V20.2478L23.5886 20.2296ZM26.5829 22.6833V18.6665H29.2886V19.4299H27.4848V20.2114H29.0902V20.9566H27.4848V21.9381H29.4329V22.7015L26.5829 22.6833ZM31.1826 21.9926C31.2859 21.9923 31.3888 21.9802 31.4893 21.9563C31.5587 21.9425 31.6257 21.918 31.6877 21.8836C31.7367 21.8464 31.7742 21.796 31.7959 21.7382C31.8179 21.6864 31.8301 21.6309 31.832 21.5746C31.8342 21.5087 31.8186 21.4435 31.7868 21.3858C31.755 21.3282 31.7083 21.2804 31.6516 21.2474C31.4559 21.1208 31.2433 21.0229 31.0203 20.9566L30.6234 20.8112C30.4928 20.7499 30.3713 20.6704 30.2627 20.5749C30.1595 20.4823 30.0739 20.3714 30.0101 20.2478C29.9381 20.1009 29.9011 19.9391 29.9019 19.7752C29.8994 19.5995 29.9364 19.4255 30.0101 19.2663C30.0793 19.1256 30.1777 19.0016 30.2988 18.9028C30.4362 18.7866 30.5958 18.7 30.7677 18.6483C30.9663 18.5861 31.1732 18.5555 31.381 18.5574C31.6186 18.5537 31.8555 18.5843 32.0845 18.6483C32.2466 18.6926 32.4038 18.7535 32.5535 18.8301L32.301 19.5571C32.185 19.4986 32.0643 19.4499 31.9402 19.4117C31.777 19.3595 31.6063 19.335 31.4351 19.339C31.278 19.3351 31.1225 19.3727 30.9842 19.448C30.9372 19.4752 30.8987 19.5152 30.8731 19.5634C30.8476 19.6117 30.8361 19.6662 30.8399 19.7207C30.8386 19.7855 30.8575 19.8491 30.894 19.9024C30.9334 19.9589 30.9823 20.0081 31.0383 20.0478C31.1081 20.0888 31.1804 20.1252 31.2548 20.1569L31.5434 20.2478C31.728 20.3162 31.9087 20.3951 32.0845 20.4841C32.2179 20.5482 32.3398 20.6342 32.4453 20.7385C32.5574 20.8373 32.6441 20.962 32.6978 21.102C32.7503 21.2601 32.7747 21.4262 32.77 21.5928C32.777 21.7595 32.7448 21.9255 32.6758 22.0771C32.6068 22.2288 32.5031 22.3618 32.3731 22.4652C32.1086 22.6712 31.7117 22.7742 31.1826 22.7742C31.0256 22.7736 30.8689 22.7615 30.7136 22.7378C30.586 22.7217 30.4594 22.6974 30.3348 22.6651C30.237 22.6405 30.1406 22.6101 30.0462 22.5743L29.8658 22.4652L30.1003 21.7382C30.2381 21.8134 30.3832 21.8743 30.5332 21.9199C30.7448 21.9789 30.9631 22.0095 31.1826 22.0108V21.9926ZM36.3054 18.6483V19.448H35.0969V22.7197H34.195V19.448H32.9864V18.6665L36.3054 18.6483ZM15.8323 29.4992C15.1829 29.4992 14.6779 29.3174 14.3351 28.9539C13.9924 28.5904 13.8481 28.0815 13.8481 27.409C13.8429 27.0983 13.898 26.7896 14.0105 26.5002C14.1028 26.2558 14.244 26.033 14.4253 25.8459C14.6108 25.6671 14.8322 25.5307 15.0747 25.446C15.3346 25.3496 15.6094 25.3004 15.8864 25.3006C16.0381 25.3045 16.1891 25.3227 16.3374 25.3551C16.4595 25.3685 16.5803 25.3928 16.6981 25.4278C16.7914 25.4559 16.882 25.4924 16.9687 25.5369C17.018 25.5586 17.0661 25.5829 17.113 25.6096L16.8605 26.3366C16.722 26.2676 16.5769 26.2128 16.4276 26.173C16.2453 26.1233 16.0572 26.0988 15.8684 26.1003C15.7271 26.1017 15.5869 26.1262 15.4535 26.173C15.3184 26.2173 15.1951 26.2919 15.0927 26.3912C14.987 26.5059 14.907 26.6423 14.8582 26.791C14.7913 26.9835 14.7607 27.187 14.7681 27.3908C14.7658 27.568 14.784 27.7449 14.8222 27.9179C14.8574 28.0613 14.9185 28.1968 15.0026 28.3178C15.0989 28.4415 15.2224 28.541 15.3633 28.6086C15.5352 28.6774 15.7197 28.7083 15.9045 28.6995C16.025 28.703 16.1456 28.6969 16.2652 28.6813L16.5538 28.6268C16.6211 28.6059 16.6873 28.5816 16.7522 28.5541L16.9326 28.4814L17.1851 29.2084C17.0148 29.2999 16.8327 29.3671 16.644 29.4083C16.3785 29.4741 16.1056 29.5047 15.8323 29.4992ZM19.3136 29.4992C19.0686 29.5069 18.8241 29.4699 18.5921 29.3901C18.4029 29.318 18.2308 29.2065 18.087 29.063C17.9563 28.9158 17.8579 28.7423 17.7984 28.5541C17.7356 28.3418 17.7052 28.1212 17.7082 27.8997V25.3915H18.6101V27.8089C18.6023 27.9492 18.6144 28.09 18.6462 28.2269C18.6833 28.327 18.7383 28.4194 18.8086 28.4995C18.8739 28.5664 18.9544 28.6162 19.0431 28.6449C19.1359 28.678 19.2333 28.6964 19.3317 28.6995C19.4307 28.7054 19.5298 28.6907 19.6229 28.6563C19.716 28.6219 19.8011 28.5685 19.8728 28.4995C20.0267 28.3046 20.098 28.0564 20.0712 27.8089V25.3733H20.9731V27.8816C20.9783 28.1031 20.9478 28.3241 20.8829 28.5359C20.8186 28.726 20.714 28.8996 20.5763 29.0448C20.4333 29.1892 20.261 29.3008 20.0712 29.372C19.8274 29.4545 19.5706 29.4915 19.3136 29.481V29.4992ZM22.9212 28.7358C23.0245 28.7355 23.1274 28.7233 23.2279 28.6995C23.3047 28.6819 23.3779 28.6512 23.4443 28.6086C23.4847 28.5747 23.5158 28.5309 23.5345 28.4814C23.5579 28.4236 23.5701 28.3619 23.5706 28.2996C23.5696 28.2368 23.5524 28.1753 23.5208 28.1211C23.4892 28.067 23.4442 28.022 23.3902 27.9906C23.1943 27.8644 22.9818 27.7666 22.7589 27.6998C22.6326 27.6453 22.4883 27.6089 22.362 27.5362C22.2324 27.4806 22.111 27.4072 22.0013 27.3181C21.8984 27.2252 21.8128 27.1144 21.7488 26.991C21.6795 26.8372 21.6485 26.6688 21.6586 26.5002C21.6518 26.3319 21.6827 26.1642 21.7488 26.0095C21.8197 25.8597 21.9248 25.7289 22.0554 25.6278C22.1947 25.5185 22.3541 25.4382 22.5244 25.3915C22.7229 25.3293 22.9298 25.2986 23.1377 25.3006C23.3693 25.2984 23.6 25.329 23.8231 25.3915C23.9915 25.4341 24.1548 25.4951 24.3101 25.5732L24.0576 26.3003C23.9359 26.2404 23.8092 26.1918 23.6788 26.1549C23.5214 26.1047 23.3569 26.0801 23.1918 26.0822C23.0302 26.0694 22.8682 26.1008 22.7228 26.173C22.6758 26.2002 22.6373 26.2402 22.6117 26.2885C22.5862 26.3367 22.5747 26.3912 22.5785 26.4457C22.5783 26.5103 22.5972 26.5736 22.6326 26.6274C22.6731 26.6779 22.7219 26.7209 22.7769 26.7547C22.8463 26.8018 22.9186 26.8443 22.9934 26.8819L23.2639 26.9728C23.4484 27.0417 23.6291 27.1205 23.8051 27.2091C23.9514 27.2692 24.0859 27.3554 24.2019 27.4635C24.301 27.5662 24.3751 27.6906 24.4184 27.827C24.477 27.984 24.5075 28.1501 24.5086 28.3178C24.5157 28.4845 24.4834 28.6505 24.4144 28.8021C24.3454 28.9538 24.2417 29.0868 24.1117 29.1902C23.8412 29.4083 23.4443 29.4992 22.9212 29.4992C22.7642 29.4988 22.6075 29.4866 22.4522 29.4628C22.3185 29.4474 22.186 29.4231 22.0554 29.3901C21.9636 29.3649 21.8733 29.3345 21.7848 29.2993L21.5864 29.1902L21.8389 28.4632C21.9768 28.5384 22.1218 28.5993 22.2719 28.6449C22.4841 28.6982 22.7025 28.7227 22.9212 28.7176V28.7358ZM28.044 25.3915V26.173H26.8355V29.4447H25.9336V26.173H24.725V25.3915H28.044ZM29.2526 27.3908C29.2498 27.5752 29.2741 27.7589 29.3247 27.9361C29.3653 28.0864 29.4325 28.228 29.5231 28.3541C29.6169 28.4638 29.7341 28.5508 29.8658 28.6086C30.0082 28.6706 30.1617 28.7026 30.3168 28.7026C30.4719 28.7026 30.6254 28.6706 30.7677 28.6086C30.894 28.5501 31.0051 28.463 31.0924 28.3541C31.1921 28.2311 31.2658 28.0889 31.3089 27.9361C31.4106 27.586 31.4106 27.2138 31.3089 26.8637C31.2645 26.717 31.1908 26.5809 31.0924 26.4639C31.0082 26.3473 30.8967 26.2537 30.7677 26.1912C30.626 26.1276 30.4719 26.0966 30.3168 26.1003C30.1615 26.0946 30.007 26.1258 29.8658 26.1912C29.7315 26.2531 29.614 26.3466 29.5231 26.4639C29.4314 26.5894 29.3641 26.7312 29.3247 26.8819C29.2759 27.0532 29.2516 27.2307 29.2526 27.409V27.3908ZM32.301 27.3908C32.304 27.7013 32.2489 28.0096 32.1386 28.2996C32.049 28.5508 31.9076 28.78 31.7238 28.9721C31.545 29.1505 31.3294 29.287 31.0924 29.372C30.5903 29.5493 30.0433 29.5493 29.5412 29.372C29.2989 29.2867 29.0776 29.1504 28.8918 28.9721C28.7101 28.7853 28.5688 28.5625 28.4769 28.3178C28.3658 28.0281 28.3107 27.7196 28.3146 27.409C28.3141 27.097 28.3754 26.788 28.495 26.5002C28.5851 26.2493 28.7264 26.0202 28.9098 25.8277C29.09 25.6511 29.3051 25.5149 29.5412 25.4278C30.0368 25.2489 30.5787 25.2489 31.0744 25.4278C31.3173 25.5115 31.539 25.648 31.7238 25.8277C31.9076 26.0198 32.049 26.249 32.1386 26.5002C32.2493 26.7901 32.3044 27.0984 32.301 27.409V27.3908ZM34.1048 25.3915L34.3573 25.8641L34.6279 26.482L34.9345 27.1545L35.2051 27.7907L35.4757 27.1545C35.6553 26.7275 35.8417 26.3033 36.0348 25.8822L36.2874 25.3915H37.0991L37.2073 26.3003L37.2975 27.3363L37.3696 28.4268L37.4238 29.4265H36.5399L36.5038 28.1542L36.4136 26.7547L36.1791 27.2999L35.9266 27.8997L35.6921 28.4632L35.4937 28.9176H34.8624L34.682 28.4632L34.4295 27.8997L34.1769 27.2999L33.9424 26.7547L33.8522 28.1542L33.8162 29.4265H32.9323L32.9864 28.4087L33.0586 27.3181L33.1488 26.3003L33.257 25.3915H34.1048ZM38.2355 29.4265V25.3915H40.9412V26.1549H39.1374V26.9364H40.7247V27.6816H39.1374V28.6631H41.0674V29.4265H38.2355ZM42.9073 25.337C43.5026 25.337 43.9715 25.446 44.2782 25.6641C44.4397 25.7727 44.5698 25.9223 44.6553 26.0979C44.7408 26.2734 44.7787 26.4687 44.7652 26.6638C44.7744 26.9095 44.7048 27.1517 44.5668 27.3545C44.4279 27.5412 44.2407 27.6858 44.0257 27.7725L44.2601 28.136L44.5307 28.5359C44.6209 28.6813 44.7111 28.8085 44.7832 28.9721L44.9997 29.4265H43.9896L43.7731 29.0266L43.5386 28.6268L43.3041 28.2633C43.2317 28.156 43.1534 28.0528 43.0696 27.9543H42.6367V29.4083H41.7348V25.446C41.9317 25.4104 42.1305 25.3861 42.3301 25.3733L42.9073 25.337ZM42.9614 26.1185H42.6367V27.2091H42.8893C43.1364 27.226 43.384 27.1824 43.6108 27.0818C43.6843 27.0374 43.7437 26.9727 43.782 26.8955C43.8203 26.8182 43.836 26.7315 43.8272 26.6456C43.8347 26.5624 43.8183 26.4787 43.7799 26.4046C43.7415 26.3305 43.6828 26.269 43.6108 26.2276C43.4029 26.1279 43.173 26.0841 42.9434 26.1003L42.9614 26.1185ZM18.9709 35.4608C19.0742 35.4605 19.177 35.4483 19.2776 35.4245C19.3481 35.405 19.4151 35.3744 19.476 35.3336C19.523 35.302 19.5604 35.258 19.5842 35.2064C19.6076 35.1486 19.6198 35.087 19.6203 35.0246C19.6193 34.9618 19.6021 34.9003 19.5705 34.8462C19.5389 34.792 19.4939 34.747 19.4399 34.7156C19.2387 34.5872 19.0199 34.4892 18.7905 34.4248L18.4117 34.2612C18.2821 34.2056 18.1607 34.1322 18.051 34.0431C17.948 33.9502 17.8625 33.8394 17.7984 33.716C17.7229 33.5638 17.6858 33.3953 17.6902 33.2252C17.6892 33.0555 17.7261 32.8878 17.7984 32.7345C17.8642 32.5866 17.963 32.456 18.087 32.3528C18.2263 32.2436 18.3857 32.1632 18.556 32.1165C18.7545 32.0543 18.9615 32.0236 19.1693 32.0256C19.4009 32.0234 19.6316 32.054 19.8548 32.1165C20.0232 32.1591 20.1865 32.2201 20.3418 32.2983L20.0893 33.0253C19.9676 32.9655 19.8408 32.9168 19.7105 32.8799C19.553 32.8297 19.3886 32.8051 19.2234 32.8072C19.0618 32.7945 18.8998 32.8258 18.7545 32.8981C18.7074 32.9252 18.6689 32.9652 18.6434 33.0135C18.6179 33.0617 18.6063 33.1162 18.6101 33.1707C18.61 33.2353 18.6288 33.2986 18.6643 33.3524C18.7052 33.4024 18.754 33.4454 18.8086 33.4797C18.8779 33.5268 18.9502 33.5693 19.025 33.6069L19.3136 33.6978C19.4981 33.7667 19.6787 33.8456 19.8548 33.9341C19.9883 33.9979 20.1103 34.0839 20.2155 34.1885C20.3211 34.2893 20.4015 34.4139 20.45 34.552C20.5086 34.709 20.5392 34.8751 20.5402 35.0428C20.5473 35.2095 20.515 35.3755 20.446 35.5271C20.377 35.6788 20.2733 35.8118 20.1434 35.9152C19.8728 36.1333 19.494 36.2242 18.9529 36.2242C18.7959 36.2238 18.6391 36.2116 18.4839 36.1879C18.3502 36.1724 18.2176 36.1481 18.087 36.1152C17.9953 36.0899 17.9049 36.0595 17.8165 36.0243L17.6181 35.9152L17.8706 35.1882C18.0084 35.2634 18.1534 35.3243 18.3035 35.3699C18.5158 35.4233 18.7342 35.4477 18.9529 35.4427L18.9709 35.4608ZM21.2257 36.1515V32.1165H23.9313V32.8799H22.1276V33.6614H23.751V34.4066H22.1276V35.3881H24.0576V36.1515H21.2257ZM25.9155 32.062C26.5108 32.062 26.9617 32.171 27.2864 32.3891C27.4479 32.4977 27.578 32.6473 27.6635 32.8229C27.7491 32.9985 27.787 33.1937 27.7734 33.3888C27.7826 33.6345 27.713 33.8767 27.575 34.0795C27.4312 34.2689 27.2374 34.4137 27.0158 34.4975L27.2684 34.861L27.5209 35.2609C27.5931 35.4063 27.7013 35.5335 27.7734 35.6971L28.0079 36.1515H26.9978L26.7633 35.7516C26.6731 35.6244 26.619 35.479 26.5469 35.3518L26.3124 34.9883C26.2399 34.881 26.1616 34.7778 26.0779 34.6793H25.6269V36.1333H24.725V32.171C24.9279 32.1347 25.1326 32.1104 25.3383 32.0983L25.8975 32.062H25.9155ZM25.9516 32.8435H25.6269V33.9341H25.8795C26.1266 33.951 26.3742 33.9074 26.601 33.8068C26.6745 33.7624 26.7339 33.6977 26.7722 33.6205C26.8105 33.5432 26.8262 33.4565 26.8174 33.3706C26.8249 33.2874 26.8085 33.2037 26.7701 33.1296C26.7317 33.0555 26.673 32.994 26.601 32.9526C26.3985 32.8559 26.1752 32.8122 25.9516 32.8254V32.8435ZM29.6855 36.1515L29.2165 35.0973C28.809 34.1111 28.436 33.1109 28.0981 32.0983H29.0902L29.3427 32.8617L29.6133 33.6614L29.8839 34.4248L30.1364 35.061C30.2086 34.8792 30.2988 34.6793 30.3709 34.4248C30.4431 34.1704 30.5513 33.9159 30.6595 33.6614C30.7677 33.407 30.8399 33.1162 30.9301 32.8617L31.1826 32.0983H32.1567L31.832 32.9708L31.4712 34.0068C31.1857 34.728 30.885 35.4431 30.5693 36.1515H29.6855ZM32.6617 32.1165H33.5636V36.1515H32.6617V32.1165ZM36.3054 36.2242C35.6741 36.2242 35.169 36.0424 34.8263 35.6789C34.4836 35.3154 34.3212 34.8065 34.3212 34.134C34.3102 33.8245 34.3592 33.5158 34.4655 33.2252C34.5632 32.9792 34.7106 32.7564 34.8984 32.5709C35.0839 32.3921 35.3054 32.2558 35.5478 32.171C35.8077 32.0746 36.0825 32.0254 36.3595 32.0256C36.5166 32.0223 36.6737 32.0345 36.8285 32.062C36.9512 32.0812 37.072 32.1116 37.1893 32.1528C37.2758 32.176 37.3603 32.2064 37.4418 32.2437C37.4976 32.2708 37.5518 32.3011 37.6041 32.3346L37.3336 33.0616C37.1958 32.9864 37.0507 32.9255 36.9007 32.8799C36.7234 32.8379 36.5415 32.8195 36.3595 32.8254C36.2182 32.8267 36.0781 32.8512 35.9446 32.8981C35.8095 32.9423 35.6862 33.0169 35.5839 33.1162C35.4781 33.2309 35.3981 33.3673 35.3494 33.516C35.2847 33.7028 35.2541 33.8999 35.2592 34.0977C35.2555 34.2809 35.2737 34.464 35.3133 34.6429C35.3485 34.7863 35.4097 34.9218 35.4937 35.0428C35.592 35.1599 35.7153 35.2531 35.8545 35.3154C36.025 35.3904 36.2095 35.4276 36.3956 35.4245C36.5166 35.422 36.6372 35.4098 36.7563 35.3881L37.0269 35.3518C37.1007 35.3255 37.1729 35.2952 37.2434 35.2609L37.4057 35.1882L37.6582 35.9152C37.4888 36.013 37.3067 36.0864 37.1171 36.1333C36.8516 36.1991 36.5787 36.2297 36.3054 36.2242ZM38.2355 36.1515V32.1165H40.9412V32.8799H39.1374V33.6614H40.7247V34.4066H39.1193V35.3881H41.0855V36.1515H38.2355Z" fill="white"/>
<path d="M22.9393 45.621C22.8023 45.6349 22.664 45.6195 22.5334 45.5756C22.4028 45.5317 22.283 45.4605 22.1817 45.3665C21.9996 45.1492 21.909 44.8687 21.9292 44.585C21.9324 44.4352 21.9629 44.2873 22.0194 44.1488C22.0604 44.0207 22.128 43.903 22.2178 43.8034C22.3117 43.7199 22.4225 43.6579 22.5425 43.6217C22.674 43.5658 22.8147 43.535 22.9573 43.5308C23.0359 43.5288 23.1145 43.5349 23.1918 43.549C23.2535 43.5615 23.3139 43.5798 23.3722 43.6035C23.4161 43.6171 23.4584 43.6354 23.4985 43.658L23.5706 43.6944L23.4444 44.0579C23.3758 44.0195 23.3032 43.989 23.2279 43.967C23.1397 43.9428 23.0487 43.9306 22.9573 43.9307C22.8836 43.9296 22.8103 43.9419 22.7409 43.967C22.6733 43.9891 22.6117 44.0264 22.5605 44.0761C22.5109 44.1343 22.474 44.2024 22.4523 44.276C22.415 44.3746 22.3967 44.4795 22.3982 44.585C22.4011 44.6709 22.4132 44.7562 22.4342 44.8394C22.4514 44.9113 22.482 44.9791 22.5244 45.0394C22.5716 45.1022 22.6336 45.1522 22.7048 45.1848C22.7899 45.2228 22.8823 45.2415 22.9754 45.2393C23.0359 45.2384 23.0962 45.2324 23.1558 45.2211L23.282 45.203C23.3188 45.1932 23.355 45.181 23.3902 45.1666L23.4804 45.1121L23.6067 45.4756C23.5222 45.5249 23.4311 45.5617 23.3361 45.5846C23.2067 45.6198 23.0733 45.6382 22.9393 45.6392V45.621ZM24.4725 45.2938H24.5988C24.6288 45.2955 24.6589 45.2955 24.689 45.2938V44.9667L24.5988 44.9485C24.5687 44.9469 24.5386 44.9469 24.5086 44.9485C24.4726 44.9453 24.4364 44.9453 24.4004 44.9485C24.3694 44.9485 24.3388 44.9547 24.3102 44.9667C24.2819 44.9784 24.2571 44.9972 24.238 45.0212C24.2223 45.0487 24.216 45.0806 24.22 45.1121C24.2145 45.139 24.2166 45.1669 24.2262 45.1927C24.2357 45.2184 24.2524 45.2409 24.2741 45.2575C24.3306 45.2837 24.3924 45.2961 24.4545 45.2938H24.4725ZM24.4364 44.0215C24.5469 44.0214 24.6567 44.0398 24.7611 44.0761C24.8284 44.0987 24.89 44.136 24.9415 44.1851C25.0004 44.2393 25.044 44.3083 25.0678 44.3851C25.092 44.4739 25.1041 44.5656 25.1039 44.6577V45.5665L24.8333 45.6028C24.7022 45.6256 24.5695 45.6378 24.4364 45.6392C24.3452 45.6371 24.2545 45.6249 24.1659 45.6028C24.1022 45.5887 24.0413 45.5641 23.9855 45.5301C23.9206 45.4853 23.8703 45.422 23.8412 45.3484C23.8083 45.2802 23.7899 45.206 23.7871 45.1303C23.7835 45.048 23.8022 44.9663 23.8412 44.894C23.8771 44.8346 23.9266 44.7848 23.9855 44.7486C24.0473 44.7136 24.1143 44.689 24.1839 44.6759C24.2671 44.6597 24.3519 44.6536 24.4364 44.6577C24.4845 44.6538 24.5327 44.6538 24.5808 44.6577C24.6173 44.6605 24.6535 44.6666 24.689 44.6759V44.6395C24.6895 44.6059 24.6833 44.5726 24.6709 44.5414C24.6586 44.5102 24.6402 44.4818 24.6168 44.4578C24.5511 44.4036 24.4669 44.3774 24.3823 44.3851C24.3098 44.3856 24.2375 44.3916 24.1659 44.4032C24.1046 44.4084 24.0441 44.4206 23.9855 44.4396L23.9314 44.0942L24.0216 44.0761L24.1478 44.0579L24.2921 44.0397C24.3402 44.0371 24.3884 44.0371 24.4364 44.0397V44.0215ZM25.9156 45.2938C25.9775 45.2943 26.0389 45.282 26.0959 45.2575C26.1099 45.2474 26.1208 45.2335 26.1272 45.2174C26.1335 45.2013 26.1352 45.1836 26.132 45.1666C26.1314 45.1481 26.1261 45.13 26.1167 45.1141C26.1072 45.0982 26.0938 45.085 26.0779 45.0757C26.0208 45.0397 25.9604 45.0092 25.8975 44.9848C25.8254 44.9667 25.7532 44.9485 25.7171 44.9121C25.6584 44.8912 25.6035 44.8605 25.5548 44.8213C25.5207 44.7786 25.4961 44.729 25.4826 44.6759C25.4593 44.6181 25.447 44.5565 25.4466 44.4941C25.4423 44.4292 25.4531 44.3642 25.4782 44.3042C25.5032 44.2443 25.5418 44.191 25.5909 44.1488C25.7224 44.0557 25.8815 44.0108 26.0418 44.0215C26.1269 44.0259 26.2114 44.0381 26.2944 44.0579C26.3681 44.0689 26.4406 44.0871 26.5108 44.1124L26.4387 44.4396L26.2583 44.4032C26.1989 44.391 26.1385 44.3849 26.0779 44.3851C25.9336 44.3851 25.8614 44.4214 25.8614 44.4941C25.8597 44.5062 25.8597 44.5184 25.8614 44.5305C25.8663 44.5525 25.8792 44.572 25.8975 44.585C25.9208 44.5987 25.9449 44.6108 25.9697 44.6213L26.0779 44.6577C26.1585 44.6886 26.2368 44.725 26.3124 44.7667C26.3668 44.7937 26.4158 44.8307 26.4567 44.8758C26.5006 44.914 26.532 44.9647 26.5469 45.0212C26.5553 45.0754 26.5553 45.1306 26.5469 45.1848C26.5523 45.2516 26.5402 45.3188 26.5117 45.3794C26.4832 45.44 26.4393 45.492 26.3845 45.5301C26.2423 45.6124 26.0791 45.6503 25.9156 45.6392C25.8003 45.6414 25.6851 45.6292 25.5728 45.6028C25.5114 45.5892 25.4512 45.571 25.3925 45.5483L25.4646 45.1848C25.5408 45.2149 25.6192 45.2392 25.6991 45.2575C25.7701 45.2759 25.8425 45.2881 25.9156 45.2938ZM27.3225 45.6028H26.8896V44.0579H27.3225V45.6028ZM27.3586 43.6217C27.3602 43.6554 27.3545 43.6891 27.3421 43.7204C27.3296 43.7518 27.3107 43.7801 27.2864 43.8034C27.2626 43.8269 27.2344 43.8455 27.2035 43.858C27.1725 43.8704 27.1394 43.8766 27.1061 43.8761C27.0391 43.8752 26.9748 43.8493 26.9257 43.8034C26.8982 43.7818 26.8758 43.7543 26.8602 43.7228C26.8446 43.6914 26.8362 43.6568 26.8355 43.6217C26.8362 43.5865 26.8446 43.552 26.8602 43.5205C26.8758 43.4891 26.8982 43.4615 26.9257 43.4399C26.9748 43.394 27.0391 43.3681 27.1061 43.3672C27.1394 43.3667 27.1725 43.3729 27.2035 43.3854C27.2344 43.3979 27.2626 43.4164 27.2864 43.4399C27.3107 43.4633 27.3296 43.4916 27.3421 43.5229C27.3545 43.5543 27.3602 43.5879 27.3586 43.6217ZM27.7194 44.1124C27.8145 44.0889 27.9108 44.0707 28.008 44.0579C28.1271 44.0364 28.2477 44.0243 28.3687 44.0215C28.4734 44.0209 28.5773 44.0394 28.6754 44.0761C28.7601 44.1021 28.8354 44.1526 28.8918 44.2215C28.9433 44.2853 28.9802 44.3598 29.0001 44.4396C29.0173 44.5355 29.0233 44.6331 29.0181 44.7304V45.6028H28.6032V44.7849C28.6048 44.6833 28.5799 44.583 28.5311 44.4941C28.5106 44.4653 28.4835 44.442 28.452 44.4262C28.4206 44.4104 28.3858 44.4025 28.3507 44.4032C28.3147 44.4002 28.2785 44.4002 28.2425 44.4032H28.1523V45.5846H27.7194V44.0942V44.1124ZM30.8399 44.8394C30.8408 44.9508 30.8225 45.0615 30.7858 45.1666C30.7549 45.2602 30.7059 45.3467 30.6415 45.4211C30.5704 45.4937 30.4841 45.5496 30.389 45.5846C30.2916 45.624 30.1872 45.6426 30.0823 45.6392C29.9824 45.6339 29.8844 45.6092 29.7937 45.5665C29.7068 45.534 29.6271 45.4846 29.5592 45.4211C29.4892 45.3477 29.434 45.2613 29.3969 45.1666C29.3585 45.0557 29.3402 44.9387 29.3428 44.8213C29.3415 44.7099 29.3599 44.5991 29.3969 44.4941C29.4336 44.3992 29.4888 44.3127 29.5592 44.2396C29.6252 44.1692 29.705 44.1134 29.7937 44.0761C29.8853 44.0386 29.9835 44.0201 30.0823 44.0215C30.1872 44.0186 30.2915 44.0372 30.389 44.0761C30.48 44.1177 30.5602 44.1799 30.6235 44.2578C30.6923 44.3252 30.7474 44.4055 30.7858 44.4941C30.8259 44.6046 30.8442 44.7219 30.8399 44.8394ZM30.389 44.8394C30.4009 44.7254 30.3756 44.6105 30.3168 44.5123C30.2911 44.4745 30.2557 44.4445 30.2145 44.4253C30.1732 44.4061 30.1275 44.3985 30.0823 44.4032C30.0401 44.4017 29.9981 44.4109 29.9603 44.4299C29.9225 44.449 29.89 44.4773 29.8659 44.5123C29.8046 44.6033 29.773 44.7113 29.7757 44.8213C29.7704 44.9372 29.802 45.0518 29.8659 45.1484C29.8911 45.1823 29.9238 45.2098 29.9613 45.2287C29.9989 45.2476 30.0403 45.2575 30.0823 45.2575C30.1275 45.2623 30.1732 45.2546 30.2145 45.2354C30.2557 45.2163 30.2911 45.1862 30.3168 45.1484C30.3771 45.0569 30.4085 44.9492 30.407 44.8394H30.389ZM31.5073 45.3847C31.5055 45.4196 31.4965 45.4538 31.481 45.4851C31.4655 45.5163 31.4438 45.544 31.4171 45.5665C31.366 45.6078 31.3023 45.6303 31.2368 45.6303C31.1712 45.6303 31.1076 45.6078 31.0564 45.5665C31.0298 45.544 31.008 45.5163 30.9925 45.4851C30.977 45.4538 30.968 45.4196 30.9662 45.3847C30.9588 45.3452 30.9615 45.3044 30.9742 45.2662C30.9868 45.2281 31.0089 45.1938 31.0383 45.1666C31.0907 45.1286 31.1542 45.1094 31.2187 45.1121C31.2834 45.1079 31.3474 45.1273 31.3991 45.1666C31.4324 45.188 31.4598 45.2176 31.4787 45.2526C31.4976 45.2875 31.5075 45.3267 31.5073 45.3665V45.3847ZM33.1307 44.8394C33.1306 44.9507 33.1123 45.0613 33.0766 45.1666C33.0457 45.2602 32.9967 45.3467 32.9323 45.4211C32.8612 45.4937 32.7749 45.5496 32.6798 45.5846C32.5824 45.624 32.478 45.6426 32.3732 45.6392C32.2671 45.6363 32.1627 45.6116 32.0665 45.5665C31.9856 45.5328 31.912 45.4834 31.8501 45.4211C31.78 45.3477 31.7249 45.2613 31.6877 45.1666C31.6485 45.0559 31.6302 44.9388 31.6336 44.8213C31.6324 44.7099 31.6507 44.5991 31.6877 44.4941C31.7249 44.3994 31.78 44.313 31.8501 44.2396C31.9166 44.1699 31.9964 44.1143 32.0845 44.0761C32.1816 44.0356 32.2863 44.017 32.3912 44.0215C32.49 44.0206 32.588 44.0391 32.6798 44.0761C32.7705 44.1182 32.8506 44.1803 32.9143 44.2578C32.9835 44.3249 33.0387 44.4052 33.0766 44.4941C33.1167 44.6046 33.1351 44.7219 33.1307 44.8394ZM32.6798 44.8394C32.6917 44.7254 32.6664 44.6105 32.6076 44.5123C32.5819 44.4745 32.5466 44.4445 32.5053 44.4253C32.464 44.4061 32.4184 44.3985 32.3732 44.4032C32.3309 44.4017 32.2889 44.4109 32.2511 44.4299C32.2133 44.449 32.1808 44.4773 32.1567 44.5123C32.0954 44.6033 32.0638 44.7113 32.0665 44.8213C32.0613 44.9372 32.0928 45.0518 32.1567 45.1484C32.1819 45.1823 32.2146 45.2098 32.2522 45.2287C32.2897 45.2476 32.3312 45.2575 32.3732 45.2575C32.4184 45.2623 32.464 45.2546 32.5053 45.2354C32.5466 45.2163 32.5819 45.1862 32.6076 45.1484C32.6679 45.0569 32.6993 44.9492 32.6978 44.8394H32.6798ZM34.3754 44.4578L34.2311 44.4214C34.1778 44.4095 34.1233 44.4034 34.0687 44.4032C34.0387 44.4009 34.0086 44.4009 33.9785 44.4032C33.9479 44.4062 33.9177 44.4123 33.8883 44.4214V45.6028H33.4554V44.1488C33.5434 44.1121 33.6338 44.0818 33.726 44.0579C33.8443 44.0305 33.9655 44.0183 34.0868 44.0215H34.1589C34.195 44.0194 34.2311 44.0194 34.2671 44.0215C34.2978 44.032 34.3279 44.0442 34.3573 44.0579C34.3881 44.0598 34.4184 44.066 34.4475 44.0761L34.3754 44.4396V44.4578ZM35.0067 44.7849C35.0067 45.0212 35.1149 45.1484 35.3133 45.1484C35.3903 45.1425 35.4647 45.1175 35.5298 45.0757V44.3851H35.4577C35.4216 44.3829 35.3855 44.3829 35.3494 44.3851C35.3 44.3827 35.2509 44.3931 35.2067 44.4154C35.1624 44.4377 35.1246 44.4711 35.0969 44.5123C35.0458 44.5936 35.0207 44.6888 35.0247 44.7849H35.0067ZM35.9627 45.4029C35.971 45.5014 35.9593 45.6005 35.9283 45.6942C35.8973 45.788 35.8476 45.8744 35.7823 45.9482C35.6998 46.0164 35.6048 46.0676 35.5027 46.0988C35.4005 46.13 35.2933 46.1405 35.1871 46.1299C35.0965 46.1324 35.0059 46.1263 34.9165 46.1117C34.8248 46.1025 34.7341 46.0843 34.6459 46.0572L34.7181 45.6937C34.7885 45.7185 34.8609 45.7367 34.9345 45.7482C35.0179 45.7632 35.1025 45.7693 35.1871 45.7664C35.2347 45.7731 35.2832 45.7701 35.3297 45.7576C35.3761 45.7451 35.4196 45.7234 35.4577 45.6937C35.4838 45.6642 35.5036 45.6296 35.516 45.5921C35.5284 45.5546 35.5331 45.515 35.5298 45.4756V45.4392C35.4838 45.4626 35.4354 45.4808 35.3855 45.4938C35.3315 45.4989 35.2772 45.4989 35.2232 45.4938C35.1337 45.5012 35.0438 45.4888 34.9596 45.4574C34.8755 45.426 34.7992 45.3764 34.7361 45.312C34.6229 45.1676 34.5653 44.9869 34.5738 44.8031C34.5727 44.6976 34.5911 44.5929 34.6279 44.4941C34.6587 44.4059 34.7079 44.3253 34.7722 44.2578C34.843 44.1847 34.9293 44.1287 35.0247 44.0942C35.1287 44.0562 35.2388 44.0377 35.3494 44.0397H35.5118C35.5665 44.049 35.6206 44.0612 35.6741 44.0761C35.7225 44.0794 35.7707 44.0854 35.8184 44.0942C35.8671 44.1039 35.9153 44.116 35.9627 44.1306V45.4029ZM25.4646 48.8563L25.3925 48.6563L25.3203 48.4201H24.5266C24.5266 48.5109 24.4906 48.5836 24.4545 48.6563L24.3823 48.8563H23.9133L24.1298 48.2565L24.3282 47.7476L24.5086 47.275L24.707 46.8569H25.1399C25.2757 47.1496 25.402 47.4466 25.5187 47.7476C25.663 48.1148 25.8013 48.4844 25.9336 48.8563H25.4646ZM24.9235 47.3113L24.8694 47.4204L24.8152 47.6021L24.7251 47.8203L24.6349 48.0747H25.2121L25.1219 47.8203L25.0317 47.6021L24.9235 47.3113ZM27.0159 47.9838C26.9393 48.2768 26.8551 48.5677 26.7633 48.8563H26.4206L26.3124 48.5655L26.1861 48.202L26.0418 47.7839L25.9156 47.3295H26.3665L26.4206 47.5658L26.4747 47.8203L26.5469 48.0747L26.619 48.3292C26.619 48.2565 26.6551 48.1474 26.6912 48.0747L26.7453 47.8203L26.8175 47.5658L26.8716 47.3295H27.1963L27.2504 47.5658L27.3045 47.8203L27.3766 48.0747L27.4488 48.3292L27.5209 48.0747L27.5751 47.8203L27.6292 47.5658L27.6833 47.3295H28.1342L28.008 47.7839L27.8637 48.202L27.7374 48.5655L27.6292 48.8563H27.3045L27.1602 48.4201L27.0339 47.9838H27.0159ZM28.9099 48.5655H29.0181C29.0541 48.5678 29.0903 48.5678 29.1263 48.5655V48.2201H29.0361C29.0061 48.2184 28.976 48.2184 28.9459 48.2201C28.9099 48.2168 28.8737 48.2168 28.8377 48.2201C28.8007 48.2175 28.7636 48.2237 28.7295 48.2383C28.7078 48.2524 28.6893 48.271 28.6754 48.2928C28.6617 48.321 28.6555 48.3524 28.6573 48.3837C28.6537 48.4106 28.6567 48.4379 28.6662 48.4633C28.6756 48.4887 28.6912 48.5113 28.7114 48.5291C28.7679 48.5553 28.8297 48.5677 28.8918 48.5655H28.9099ZM28.8738 47.2932C28.9773 47.2891 29.0807 47.3013 29.1804 47.3295C29.2624 47.3522 29.337 47.396 29.3969 47.4567C29.4467 47.5079 29.4838 47.5702 29.5051 47.6385C29.5242 47.728 29.5303 47.8199 29.5232 47.9111V48.8199L29.2706 48.8744C29.139 48.8912 29.0063 48.8973 28.8738 48.8926C28.7832 48.8965 28.6925 48.8904 28.6032 48.8744C28.5321 48.8567 28.4648 48.8259 28.4048 48.7836C28.3515 48.7462 28.3082 48.6963 28.2785 48.6382C28.2431 48.5645 28.2246 48.4837 28.2244 48.4019C28.2209 48.3196 28.2396 48.238 28.2785 48.1656C28.315 48.1067 28.3643 48.0569 28.4228 48.0202C28.4846 47.9852 28.5516 47.9607 28.6213 47.9475C28.7039 47.9262 28.7886 47.914 28.8738 47.9111C28.9218 47.9072 28.9701 47.9072 29.0181 47.9111C29.0552 47.9199 29.0914 47.9321 29.1263 47.9475V47.893C29.1268 47.8594 29.1207 47.826 29.1083 47.7948C29.0959 47.7636 29.0775 47.7352 29.0542 47.7112C28.9858 47.6634 28.9019 47.6439 28.8197 47.6567C28.7476 47.6512 28.6753 47.6512 28.6032 47.6567C28.5412 47.6677 28.4807 47.686 28.4228 47.7112L28.3687 47.3477H28.4589L28.5852 47.3113H28.7295C28.7776 47.3088 28.8257 47.3088 28.8738 47.3113V47.2932ZM30.8399 47.7112C30.7926 47.6961 30.7444 47.684 30.6956 47.6749C30.6417 47.669 30.5872 47.669 30.5333 47.6749C30.5033 47.6726 30.4731 47.6726 30.4431 47.6749C30.4131 47.6719 30.3829 47.6719 30.3529 47.6749V48.8563H29.902V47.4022C29.9905 47.3722 30.0809 47.3479 30.1725 47.3295C30.2908 47.3022 30.412 47.29 30.5333 47.2932H30.6235C30.6535 47.2916 30.6836 47.2916 30.7137 47.2932L30.8219 47.3113C30.8471 47.3211 30.8712 47.3332 30.894 47.3477L30.8219 47.7112H30.8399ZM31.4713 48.0747C31.4647 48.1908 31.4964 48.3058 31.5614 48.4019C31.5921 48.4446 31.633 48.4787 31.6803 48.5009C31.7277 48.5232 31.7799 48.5329 31.832 48.5291H31.9402L32.0124 48.5109V47.7294C31.9851 47.7069 31.9548 47.6885 31.9222 47.6749C31.8743 47.6684 31.8258 47.6684 31.7779 47.6749C31.5975 47.6749 31.4893 47.8203 31.4893 48.0929L31.4713 48.0747ZM32.4453 48.8017L32.319 48.8381L32.1567 48.8563C32.097 48.8657 32.0367 48.8717 31.9763 48.8744H31.832C31.7165 48.8838 31.6003 48.8714 31.4893 48.8381C31.4006 48.8007 31.3207 48.745 31.2548 48.6745C31.1766 48.6043 31.115 48.5173 31.0744 48.4201C31.0439 48.3139 31.0317 48.2032 31.0383 48.0929C31.0403 47.9817 31.0585 47.8715 31.0925 47.7657C31.1175 47.6734 31.1604 47.5869 31.2187 47.5113C31.2754 47.4341 31.3496 47.3718 31.4352 47.3295C31.5279 47.2978 31.6261 47.2854 31.7238 47.2932C31.7718 47.288 31.8201 47.288 31.8681 47.2932C31.9183 47.3128 31.9666 47.3372 32.0124 47.3659V46.657L32.4453 46.6025V48.8199V48.8017ZM33.2931 48.5473C33.349 48.5454 33.404 48.5331 33.4554 48.5109C33.4728 48.5034 33.4873 48.4906 33.497 48.4743C33.5067 48.458 33.5111 48.439 33.5095 48.4201C33.5044 48.4029 33.4951 48.3873 33.4825 48.3746C33.4699 48.3619 33.4544 48.3526 33.4374 48.3474C33.3811 48.305 33.3206 48.2685 33.257 48.2383C33.1849 48.2383 33.1308 48.2019 33.0766 48.1656C33.0242 48.1429 32.9756 48.1123 32.9323 48.0747C32.8922 48.0334 32.8614 47.9838 32.8421 47.9293C32.8199 47.8712 32.8077 47.8098 32.8061 47.7476C32.8053 47.6839 32.8197 47.6211 32.8479 47.5642C32.8762 47.5073 32.9175 47.458 32.9684 47.4204C33.0943 47.33 33.2469 47.2852 33.4013 47.2932C33.4919 47.2904 33.5825 47.2965 33.6719 47.3113C33.7394 47.3239 33.8058 47.3421 33.8703 47.3659L33.7982 47.7112C33.7391 47.6897 33.6789 47.6715 33.6178 47.6567C33.5584 47.6445 33.498 47.6384 33.4374 47.6385C33.2931 47.6385 33.239 47.6749 33.239 47.7476C33.2351 47.7655 33.2351 47.7841 33.239 47.8021C33.2473 47.8174 33.2598 47.8301 33.2751 47.8384L33.3472 47.8748L33.4554 47.9293C33.5361 47.9599 33.6145 47.9963 33.6899 48.0384C33.7446 48.065 33.7936 48.102 33.8342 48.1474C33.8675 48.1838 33.8922 48.2273 33.9064 48.2747C33.928 48.3329 33.9402 48.3943 33.9425 48.4564C33.9428 48.522 33.9264 48.5865 33.8948 48.6438C33.8632 48.7011 33.8175 48.7492 33.7621 48.7836C33.6199 48.8658 33.4567 48.9038 33.2931 48.8926C33.1785 48.9011 33.0634 48.8949 32.9504 48.8744C32.8887 48.8544 32.8284 48.8301 32.77 48.8017L32.8421 48.4564C32.9184 48.4866 32.9968 48.5109 33.0766 48.5291C33.1481 48.5414 33.2206 48.5475 33.2931 48.5473Z" fill="white"/>
</g>
<defs>
<clipPath id="clip0_156_177">
<rect width="57" height="54" fill="white" transform="translate(0.5)"/>
</clipPath>
</defs>
</svg>
