<svg width="32" height="25" viewBox="0 0 32 25" fill="none" xmlns="http://www.w3.org/2000/svg">
<g clip-path="url(#clip0_156_20)">
<path fill-rule="evenodd" clip-rule="evenodd" d="M13.8576 12.7027H15.4237C15.4698 12.2386 15.3777 11.8672 14.9171 11.7744C14.2722 11.6816 13.9497 12.0993 13.8576 12.7027ZM20.1683 11.8673H20.1222C19.6155 11.8208 19.0627 11.6352 18.6021 11.9137C18.3257 12.0993 18.3718 12.3314 18.6021 12.5634C19.0627 12.8419 19.4773 12.7491 19.8919 13.2132C20.5368 14.1414 19.9379 15.2088 18.9706 15.5337C18.2797 15.673 17.1741 15.6266 16.4832 15.3945L16.6674 14.4199C17.2663 14.5591 17.6348 14.6519 18.2336 14.6055C18.8324 14.5127 18.9706 13.9557 18.3257 13.6773C17.819 13.4917 17.4505 13.3524 17.1741 12.9347C16.9438 12.4242 17.036 11.6816 17.3584 11.2639C18.0033 10.6142 19.4773 10.707 20.3064 10.8462H20.3525H20.3986L20.1683 11.8673ZM22.195 3.28125C27.3541 3.28125 31.4998 7.45822 31.4998 12.6562C31.4998 17.8543 27.3541 22.0312 22.195 22.0312C17.9112 22.0312 14.3182 19.1538 13.2127 15.1624C14.0419 15.673 15.3316 15.8122 16.2068 15.3481L16.3911 14.2806C15.5619 14.7448 13.6273 14.8376 13.6733 13.6309V13.5381H16.5293C16.8056 11.9601 16.6674 10.8926 14.9171 10.7534C14.3182 10.7534 13.8115 10.8462 13.3048 11.2175L13.2127 11.3103L13.1206 11.4032L13.0285 11.496C13.0285 11.5424 12.9824 11.5888 12.9363 11.6352C13.443 6.94772 17.4045 3.28125 22.195 3.28125ZM22.7478 15.5801H23.9915L24.4061 13.0739C24.4521 12.8883 24.4982 12.7027 24.5903 12.517C24.8206 12.1457 25.3273 12.0065 25.7419 12.0529H25.7879V12.0065L25.834 11.9137V11.8208L25.8801 11.6816C25.9261 11.496 25.9722 11.3103 26.0643 11.1711L26.1104 11.0783L26.1565 10.9855V10.9391L26.2025 10.8926L26.2486 10.8462H26.2025V10.7998C25.5576 10.707 25.097 11.0783 24.7285 11.5888L24.8206 10.8462H23.5769L22.7478 15.5801ZM29.6573 11.2639C30.5785 12.0065 30.6707 13.3988 30.164 14.4199C29.3348 16.0907 26.571 16.1371 25.7879 14.4199C25.3273 13.1668 25.7419 11.5424 27.0317 10.9855C27.8608 10.6606 28.9202 10.707 29.6573 11.2639ZM27.1699 13.8165C27.4002 14.6983 28.3675 14.5591 28.7821 13.8165C28.9202 13.3988 29.0124 12.9347 28.9663 12.4706C28.736 11.5424 27.7687 11.728 27.3541 12.4706C27.1699 12.8883 27.0777 13.3524 27.1699 13.8165ZM21.1817 9.77878H22.4253L22.195 10.8462H22.9781L22.7938 11.8673L22.0108 11.8208L21.5962 14.2806C21.5962 14.5127 21.6423 14.5591 21.8265 14.6055C22.0568 14.6519 22.3332 14.6519 22.5175 14.5591H22.5635L22.4253 15.3945C22.0568 15.6266 21.412 15.6266 20.9974 15.5801C20.3986 15.4409 20.2604 15.2088 20.3525 14.6055L21.1817 9.77878ZM29.9797 15.3481H30.3482V15.3945H30.21V15.7194H30.1179V15.3945H29.9797V15.3481ZM30.3943 15.3481H30.4864L30.6246 15.6266L30.7628 15.3481H30.8549V15.7194H30.7628V15.4409L30.6707 15.7194H30.5785L30.4864 15.4409V15.7194H30.3943V15.3481Z" fill="#958E97"/>
<path fill-rule="evenodd" clip-rule="evenodd" d="M9.80477 3.28125C12.5225 3.28125 14.9639 4.44153 16.6682 6.29797H15.2863L14.8717 6.85488H17.1288C17.267 7.04053 17.4052 7.22619 17.5434 7.41181H14.4571L14.0886 7.96875H17.8658C17.958 8.15441 18.0961 8.34003 18.1883 8.57209H13.8123L13.5359 9.08262H18.4186C18.5107 9.26825 18.5568 9.45391 18.6489 9.68597H13.3516L13.2134 10.1965H18.7871C18.8332 10.3821 18.8792 10.5677 18.9253 10.7534C18.7871 10.7534 18.6489 10.7534 18.4647 10.7998H15.102C15.056 10.7998 15.0099 10.7534 14.9178 10.7534C14.7796 10.7534 14.6875 10.7534 14.5493 10.7998H13.0292L12.937 11.3103H13.2134L13.1213 11.4032L13.0292 11.496C12.3382 12.3314 12.1079 13.8165 12.7528 14.7448C12.891 14.9304 13.0752 15.0696 13.2595 15.2088L13.3977 15.5801H14.4571C14.7796 15.6266 15.102 15.6266 15.4245 15.5801H17.5894C17.8198 15.6266 18.0961 15.6266 18.3265 15.5801H18.6489C18.5568 15.8122 18.5107 16.0443 18.4186 16.2299H13.5819L13.8583 16.7404H18.1883C18.0501 16.9725 17.958 17.2045 17.8198 17.3902H14.1808L14.5032 17.9471H17.4973C17.3591 18.1327 17.2209 18.3648 17.0367 18.5504H14.9178L15.3324 19.0609H16.6221C14.9178 20.871 12.4764 22.0312 9.80477 22.0312C4.64569 22.0312 0.5 17.8543 0.5 12.6562C0.5 7.45822 4.64569 3.28125 9.80477 3.28125ZM16.2997 11.3103H17.3591C17.2209 11.4496 17.1288 11.6816 17.0827 11.8673H16.576C16.53 11.6352 16.4379 11.4496 16.2997 11.3103ZM19.0635 11.7744C19.0635 11.8208 19.0635 11.8208 19.0635 11.8673H18.6489C18.7871 11.8208 18.9253 11.7744 19.0635 11.7744ZM15.1481 11.8673H14.319C14.4571 11.7744 14.6875 11.728 14.9178 11.7744C15.0099 11.7744 15.102 11.8208 15.1481 11.8673ZM13.9044 12.3778H15.4245C15.4245 12.4706 15.4245 12.6098 15.4245 12.7027H13.8583C13.8583 12.6098 13.9044 12.4706 13.9044 12.3778ZM16.6221 12.3778H17.0367C17.0367 12.5634 17.0827 12.7491 17.1749 12.9347H16.6221C16.6221 12.7491 16.6221 12.5634 16.6221 12.3778ZM18.4647 12.3778H19.1095C19.1095 12.4706 19.1095 12.5634 19.1095 12.6562C19.1095 12.7027 19.1095 12.7491 19.1095 12.7491C18.9713 12.7027 18.7871 12.6562 18.6028 12.5634C18.5568 12.517 18.5107 12.4706 18.4647 12.3778ZM16.53 13.4452H17.8198C17.958 13.5381 18.1422 13.5845 18.3265 13.6773C18.5107 13.7701 18.6489 13.8629 18.695 14.0022H13.7201C13.6741 13.8629 13.6741 13.7701 13.6741 13.6309V13.5381H16.53C16.53 13.5381 16.53 13.4917 16.53 13.4452ZM14.365 14.5127H15.7009C15.2863 14.6055 14.7335 14.6519 14.365 14.5127ZM16.3457 14.5127H16.6221L16.53 15.0696H16.2536L16.3457 14.5127ZM17.0827 14.5127H18.5568C18.4647 14.5591 18.3725 14.6055 18.2343 14.6055C17.8198 14.6519 17.4973 14.6055 17.0827 14.5127ZM11.9697 14.6055L11.7855 15.5801H10.68L10.726 15.4873V15.3945V15.3481V15.2552L10.7721 15.2088V15.116V15.0696L10.726 15.1624C10.1272 15.7194 9.11382 15.8586 8.42286 15.3481C7.6398 14.6055 8.00829 13.4452 8.83745 12.8883L8.97562 12.8419C9.62051 12.5634 10.3575 12.6098 11.0485 12.6098L11.0945 12.5634C11.1867 12.1457 10.9563 11.8672 10.5418 11.8208C10.1272 11.8208 9.02168 11.8673 8.69925 12.0529L9.02168 11.0319C9.57444 10.7534 10.5878 10.7534 11.2327 10.8462C11.9697 11.0319 12.5685 11.4032 12.4304 12.285L11.9697 14.6055ZM10.9103 13.4452C10.9103 13.3988 10.9103 13.3988 10.8182 13.3988C10.4496 13.3524 9.94294 13.4452 9.62051 13.6773C9.29808 13.9557 9.20595 14.5127 9.66658 14.6055C10.0811 14.6519 10.4957 14.5591 10.726 14.1878C10.8642 13.9558 10.8642 13.7237 10.9103 13.4452ZM2.71103 15.5801H1.51339L2.52678 9.77878H4.64569L4.82993 13.2596L6.25791 9.77878H8.42286L7.40947 15.5801H6.21184L6.94884 11.2639H6.90277L5.15239 15.5801H3.7705C3.67837 14.1414 3.6323 12.7027 3.54017 11.2639H3.49411L2.71103 15.5801Z" fill="#958E97"/>
<path d="M29.9851 15.3481H30.3536V15.3946H30.2154V15.7196H30.1233V15.3946H29.9851V15.3481Z" stroke="#958E97" stroke-width="0.314943"/>
<path fill-rule="evenodd" clip-rule="evenodd" d="M30.3944 15.3481H30.4865L30.6247 15.6267L30.7629 15.3481H30.855V15.7196H30.7629V15.441L30.6708 15.7196H30.5787L30.4865 15.441V15.7196H30.3944V15.3481Z" fill="#958E97"/>
</g>
<defs>
<clipPath id="clip0_156_20">
<rect width="31" height="25" fill="white" transform="translate(0.5)"/>
</clipPath>
</defs>
</svg>
