<svg width="70" height="25" viewBox="0 0 70 25" fill="none" xmlns="http://www.w3.org/2000/svg">
<g clip-path="url(#clip0_156_66)">
<path fill-rule="evenodd" clip-rule="evenodd" d="M20.6613 8.77788L19.2804 16.5014H17.3879L15.9067 12.3235C15.8538 12.3259 15.8009 12.3287 15.7481 12.3314L14.9752 16.5056H13.1288L14.4879 8.78826H16.3634L17.9029 13.0862C18.4439 11.5711 18.4097 10.125 18.8516 8.77788H20.6613ZM55.441 11.8261C56.0698 11.8148 56.6278 12.0173 57.0167 11.4691C57.2262 11.1738 57.1679 10.8174 56.9778 10.591C56.5666 10.1009 56.0058 10.3442 55.441 10.3619V11.8261ZM55.3679 14.0615C55.3519 14.8983 55.3688 14.921 56.013 14.9335C57.0367 14.9536 57.383 14.7411 57.3808 14.094C57.3792 13.5045 57.1139 13.292 56.3552 13.2726C55.3839 13.2475 55.3839 13.2475 55.3679 14.0615ZM53.4513 16.5423V8.74772H54.7848C55.5548 8.74757 56.326 8.77544 57.0945 8.73975C57.9316 8.70063 58.5347 9.04372 58.8916 9.78516C59.2777 10.587 59.1121 11.4232 58.493 12.0822C58.4152 12.165 58.3289 12.2398 58.232 12.3325C58.2731 12.4038 58.2954 12.5055 58.3546 12.5374C59.2849 13.0403 59.4232 13.8554 59.3037 14.8173C59.1883 15.7482 58.5162 16.5024 57.3843 16.5341C56.1043 16.5698 54.8228 16.5423 53.4513 16.5423ZM41.8298 10.5529C41.8596 11.9809 41.7372 13.3743 41.8997 14.7416C43.3123 14.9907 43.6561 14.5008 43.8022 13.2516C43.8455 12.882 43.8377 12.5005 43.8044 12.1288C43.6843 10.7909 43.1957 10.304 41.8298 10.5529ZM39.9144 16.548V8.74704H41.4264C41.8834 8.74704 42.3429 8.77754 42.7973 8.74185C44.7497 8.587 45.5348 10.1161 45.6872 11.3836C45.7916 12.2582 45.7803 13.1633 45.6894 14.041C45.5285 15.5866 44.3909 16.5413 42.8378 16.5471C41.8956 16.5508 40.9532 16.548 39.9144 16.548ZM48.8838 14.8116H52.2723V16.4921H46.9229V8.80938H52.1672V10.3503H48.8753V11.6674H51.9358V13.2244H48.8841L48.8838 14.8116ZM20.9354 13.9901C21.531 13.9343 22.0676 13.8838 22.6417 13.8297C22.7254 14.0874 22.7867 14.3653 22.9035 14.6169C23.1404 15.1273 23.7231 15.3599 24.1922 15.0748C24.4351 14.9271 24.6858 14.6219 24.7243 14.3571C24.7535 14.1569 24.4982 13.8368 24.2873 13.6952C23.8639 13.4108 23.3775 13.2243 22.929 12.9754C21.8135 12.356 21.4633 11.6529 21.6853 10.519C21.9028 9.40744 22.6338 8.68538 23.79 8.60554C24.4027 8.56329 25.053 8.63551 25.6427 8.80801C26.4124 9.03332 26.8086 9.68922 27.0032 10.4521C27.087 10.7815 26.9069 10.9448 26.5919 10.9514C26.139 10.9608 25.6857 10.9539 25.2213 10.9539C25.145 10.7533 25.0956 10.5271 24.9809 10.3423C24.7677 9.99888 24.2819 9.87575 23.9198 10.0358C23.4043 10.2637 23.3276 10.7968 23.801 11.0985C24.2568 11.3889 24.7612 11.6004 25.2348 11.8637C25.88 12.2223 26.3622 12.7005 26.5386 13.475C26.8554 14.8656 26.0334 16.5037 24.2777 16.6975C23.7252 16.7583 23.1354 16.682 22.5896 16.5534C21.4136 16.2759 20.8156 15.3246 20.9354 13.9901ZM36.6886 11.4776L36.4983 11.4412C36.1533 12.1359 35.749 12.8065 35.5969 13.6863C36.0313 13.6552 36.3803 13.6297 36.6886 13.6075V11.4776ZM35.8089 8.77476H38.4736V16.5043H36.8122L36.7526 15.3374C36.1727 15.3374 35.5843 15.3062 35.0032 15.3582C34.846 15.3722 34.6293 15.6162 34.5807 15.7939C34.4035 16.4394 34.0114 16.659 33.3798 16.5747C33.1025 16.5376 32.8168 16.5684 32.3802 16.5684L35.8089 8.77476ZM27.7465 10.6721L28.0879 8.79069H34.1322L33.8468 10.6464H31.7487L30.7204 16.4883H28.7273L29.7441 10.6721H27.7465Z" fill="#958E97"/>
<path fill-rule="evenodd" clip-rule="evenodd" d="M67.4924 10.6184V16.4962H65.6018V10.6766H63.5629V8.78564H69.4994V10.6184H67.4924Z" fill="#958E97"/>
<mask id="mask0_156_66" style="mask-type:luminance" maskUnits="userSpaceOnUse" x="0" y="8" width="70" height="9">
<path d="M0.5 16.7188H69.5V8.59375H0.5V16.7188Z" fill="#2F5D92"/>
</mask>
<g mask="url(#mask0_156_66)">
<path fill-rule="evenodd" clip-rule="evenodd" d="M60.51 16.4915H62.4614V8.77539H60.51V16.4915ZM11.0508 8.78023H13.0127C12.657 11.3821 12.1205 13.9102 11.712 16.5019H9.68616L11.0508 8.78023Z" fill="#958E97"/>
</g>
<mask id="mask1_156_66" style="mask-type:luminance" maskUnits="userSpaceOnUse" x="0" y="8" width="70" height="9">
<path d="M0.5 16.7188H69.5V8.59375H0.5V16.7188Z" fill="#1B1B1B"/>
</mask>
<g mask="url(#mask1_156_66)">
<path fill-rule="evenodd" clip-rule="evenodd" d="M9.5581 8.77295L8.98603 11.9602H5.7562L6.31764 8.77295H9.5581ZM8.80791 13.3283L8.23584 16.5152H5.00598L5.56745 13.3281L8.80791 13.3283ZM1.06145 13.3283H4.3019L3.72983 16.5152H0.5" fill="#958E97"/>
</g>
</g>
<defs>
<clipPath id="clip0_156_66">
<rect width="69" height="25" fill="white" transform="translate(0.5)"/>
</clipPath>
</defs>
</svg>
