<svg width="45" height="25" viewBox="0 0 45 25" fill="none" xmlns="http://www.w3.org/2000/svg">
<g clip-path="url(#clip0_156_25)">
<mask id="mask0_156_25" style="mask-type:luminance" maskUnits="userSpaceOnUse" x="0" y="0" width="45" height="25">
<path d="M44.5 0H0.5V25H44.5V0Z" fill="white"/>
</mask>
<g mask="url(#mask0_156_25)">
<mask id="mask1_156_25" style="mask-type:luminance" maskUnits="userSpaceOnUse" x="0" y="0" width="45" height="26">
<path d="M44.5 0.15625H0.5V25.1562H44.5V0.15625Z" fill="white"/>
</mask>
<g mask="url(#mask1_156_25)">
<path d="M39.407 12.1888C39.1864 12.3414 38.8187 12.4178 38.3774 12.4178H38.1568H37.9361L38.2303 10.433H38.4509H38.598C38.9657 10.433 39.2599 10.5093 39.4805 10.5857C39.6276 10.7383 39.7747 10.891 39.7747 11.349C39.7747 11.8071 39.6276 12.0361 39.407 12.1888ZM11.6058 14.7079H8.0019L8.22257 13.3338H10.5026L10.7232 11.8834H8.51674L8.7374 10.5857H12.3412L11.6058 14.7079ZM41.3927 9.44062C40.8043 9.05894 39.9953 8.90625 38.9657 8.90625H36.2443L35.2147 14.7079H31.6109L31.8315 13.3338H33.9645L34.2587 11.8834H32.0521L32.3463 10.5857H34.5529L34.847 8.90625H30.287L29.3309 14.4025H27.6393L28.6689 8.90625H26.2419L25.2857 14.4025H23.6677L24.6238 8.90625H22.2703L21.2406 14.7079H17.6367L17.8574 13.3338H19.9902L20.2844 11.8834H18.078L18.2987 10.5857H20.5786L20.8728 8.90625H6.67804L5.86901 13.4865L4.32451 8.90625H1.82387L0.5 16.3873H2.85354L3.66256 11.6544L5.20709 16.3873H13.6651L14.6948 10.5857H16.0186L14.989 16.3873H37.2004L37.8626 12.7231L38.8922 16.3873H41.2456L40.1424 13.4102L40.4366 13.3338C40.9514 13.1811 41.3927 12.9521 41.6868 12.5704C41.981 12.1887 42.1281 11.6544 42.1281 11.0437C42.1281 10.3567 41.9075 9.82231 41.3927 9.44062Z" fill="#958E97"/>
<path d="M43.4245 14.1738C44.0185 14.1738 44.5003 14.6736 44.5003 15.2901C44.5003 15.9067 44.0185 16.4065 43.4245 16.4065C42.8305 16.4065 42.349 15.9067 42.349 15.2901C42.349 14.6736 42.8305 14.1738 43.4245 14.1738ZM43.4245 14.4028C42.9524 14.4028 42.5696 14.8001 42.5696 15.2901C42.5696 15.7802 42.9524 16.1775 43.4245 16.1775C43.8969 16.1775 44.2797 15.7802 44.2797 15.2901C44.2797 14.8001 43.8969 14.4028 43.4245 14.4028ZM43.5804 14.706C43.6539 14.706 43.8893 14.8158 43.8893 15.0285C43.8893 15.2691 43.7187 15.3465 43.6451 15.3745C43.6932 15.3745 43.7388 15.4694 43.7925 15.5457C43.828 15.5966 43.9016 15.6984 44.0131 15.8511H43.7925C43.6212 15.5849 43.5251 15.4347 43.5031 15.4006L43.4999 15.3958C43.4987 15.394 43.498 15.393 43.498 15.393H43.1303V15.8743H42.9832V14.706H43.5804ZM43.5637 14.8587H43.1303V15.2404H43.5637C43.6373 15.2404 43.7171 15.1531 43.7171 15.0285C43.7171 14.904 43.5945 14.8587 43.5637 14.8587Z" fill="#958E97"/>
</g>
</g>
</g>
<defs>
<clipPath id="clip0_156_25">
<rect width="44" height="25" fill="white" transform="translate(0.5)"/>
</clipPath>
</defs>
</svg>
