<svg width="57" height="25" viewBox="0 0 57 25" fill="none" xmlns="http://www.w3.org/2000/svg">
<g clip-path="url(#clip0_156_144)">
<path d="M3.48667 3.73145H53.5133C54.3533 3.73145 55.1 4.09919 55.66 4.55888C56.1267 5.11049 56.5 5.84598 56.5 6.67339V18.0735C56.5 18.9009 56.1267 19.6364 55.66 20.188C55.1 20.7396 54.3533 21.0154 53.5133 21.0154H3.48667C2.64667 21.0154 1.9 20.7396 1.34 20.188C0.873333 19.6364 0.5 18.9009 0.5 18.0735V6.67339C0.5 5.84598 0.873333 5.11049 1.34 4.55888C1.9 4.09919 2.64667 3.73145 3.48667 3.73145ZM53.5133 4.46694H3.48667C2.83333 4.46694 2.27333 4.74274 1.9 5.11049C1.52667 5.47824 1.24667 6.02984 1.24667 6.67339V18.0735C1.24667 18.717 1.52667 19.2686 1.9 19.6364C2.27333 20.096 2.83333 20.2799 3.48667 20.2799H53.5133C54.1667 20.2799 54.7267 20.096 55.1 19.6364C55.4733 19.2686 55.7533 18.717 55.7533 18.0735V6.67339C55.7533 6.02984 55.4733 5.47824 55.1 5.11049C54.7267 4.74274 54.1667 4.46694 53.5133 4.46694ZM20.8467 10.3508H21.4067V8.69598H21.8733C22.34 8.69598 22.5267 8.97182 22.62 9.43148C22.7133 9.98311 22.8067 10.2589 22.9 10.3508H23.46C23.3667 10.2589 23.2733 9.89117 23.0867 9.33953C22.9933 8.97182 22.9 8.69598 22.5267 8.51212C22.9933 8.42018 23.2733 8.05243 23.2733 7.50083C23.2733 7.22503 23.18 6.94922 22.9933 6.76533C22.7133 6.58148 22.4333 6.48953 21.8733 6.48953C21.5 6.48953 21.1267 6.48953 20.8467 6.58148V10.3508ZM21.4067 6.94922C21.5 6.85728 21.5933 6.85728 21.8733 6.85728C22.4333 6.85728 22.8067 7.13308 22.8067 7.59277C22.8067 8.05243 22.4333 8.32824 21.8733 8.32824H21.4067V6.94922ZM26.0733 8.14438H24.4867V6.94922H26.1667V6.48953H24.02V10.3508H26.26V9.98311H24.4867V8.60407H26.0733V8.14438ZM26.6333 10.167C26.9133 10.3508 27.2867 10.4428 27.66 10.4428C28.5933 10.4428 29.06 9.89117 29.06 9.33953C29.06 8.78793 28.6867 8.42018 28.0333 8.23632C27.4733 7.96052 27.2867 7.77663 27.2867 7.40888C27.2867 7.22503 27.4733 6.85728 28.0333 6.85728C28.4067 6.85728 28.5933 6.94922 28.78 7.04114L28.8733 6.67339C28.6867 6.58148 28.4067 6.48953 28.0333 6.48953C27.2867 6.48953 26.7267 6.94922 26.7267 7.50083C26.7267 8.05243 27.1933 8.42018 27.7533 8.60407C28.3133 8.78793 28.5 8.97182 28.5 9.33953C28.5 9.79922 28.22 10.075 27.7533 10.075C27.38 10.075 27.0067 9.89117 26.82 9.79922L26.6333 10.167ZM29.7133 10.3508H30.2733V8.87987H30.6467C31.1133 8.87987 31.58 8.69598 31.86 8.42018C32.0467 8.23632 32.14 7.96052 32.14 7.59277C32.14 7.31697 32.0467 7.04114 31.86 6.85728C31.58 6.58148 31.2067 6.48953 30.74 6.48953C30.2733 6.48953 29.9933 6.48953 29.7133 6.58148V10.3508ZM30.2733 6.94922C30.3667 6.94922 30.5533 6.85728 30.74 6.85728C31.3 6.85728 31.6733 7.13308 31.6733 7.68469C31.6733 8.14438 31.3 8.51212 30.6467 8.51212C30.46 8.51212 30.3667 8.42018 30.2733 8.42018V6.94922ZM34.4733 6.48953C33.3533 6.48953 32.6067 7.22503 32.6067 8.51212C32.6067 9.70728 33.3533 10.4428 34.38 10.4428C35.4067 10.4428 36.2467 9.70728 36.2467 8.42018C36.2467 7.22503 35.5 6.48953 34.4733 6.48953ZM34.38 6.85728C35.22 6.85728 35.6867 7.68469 35.6867 8.42018C35.6867 9.33953 35.22 10.075 34.38 10.075C33.6333 10.075 33.1667 9.33953 33.1667 8.51212C33.1667 7.59277 33.54 6.85728 34.38 6.85728ZM37.3667 10.3508V8.69598C37.3667 8.05243 37.3667 7.59277 37.2733 7.13308C37.5533 7.59277 37.74 7.96052 38.02 8.42018L39.3267 10.3508H39.7933V6.48953H39.3267V8.14438C39.3267 8.78793 39.3267 9.24762 39.42 9.70728C39.2333 9.33953 38.9533 8.97182 38.6733 8.51212L37.46 6.48953H36.9V10.3508H37.3667ZM40.54 10.167C40.7267 10.3508 41.1 10.4428 41.4733 10.4428C42.4067 10.4428 42.8733 9.89117 42.8733 9.33953C42.8733 8.78793 42.5 8.42018 41.8467 8.23632C41.2867 7.96052 41.1 7.77663 41.1 7.40888C41.1 7.22503 41.2867 6.85728 41.8467 6.85728C42.22 6.85728 42.4067 6.94922 42.5933 7.04114L42.6867 6.67339C42.5 6.58148 42.22 6.48953 41.8467 6.48953C41.1 6.48953 40.54 6.94922 40.54 7.50083C40.54 8.05243 41.0067 8.42018 41.66 8.60407C42.1267 8.78793 42.3133 8.97182 42.3133 9.33953C42.3133 9.79922 42.0333 10.075 41.5667 10.075C41.1933 10.075 40.82 9.89117 40.6333 9.79922L40.54 10.167ZM43.5267 6.48953V10.3508H44.0867V6.48953H43.5267ZM44.9267 10.3508C45.1133 10.4428 45.3933 10.4428 45.7667 10.4428C46.42 10.4428 46.7933 10.3508 47.0733 10.075C47.26 9.89117 47.4467 9.61537 47.4467 9.24762C47.4467 8.69598 46.98 8.42018 46.6067 8.32824C47.0733 8.14438 47.26 7.86858 47.26 7.50083C47.26 7.13308 47.1667 6.94922 46.98 6.76533C46.7 6.58148 46.42 6.48953 45.86 6.48953C45.4867 6.48953 45.2067 6.48953 44.9267 6.58148V10.3508ZM45.4867 6.94922C45.58 6.85728 45.6733 6.85728 45.9533 6.85728C46.42 6.85728 46.7933 7.04114 46.7933 7.50083C46.7933 7.86858 46.42 8.14438 45.9533 8.14438H45.4867V6.94922ZM45.4867 8.51212H45.86C46.42 8.51212 46.8867 8.78793 46.8867 9.24762C46.8867 9.79922 46.42 10.075 45.86 10.075C45.6733 10.075 45.58 9.98311 45.4867 9.98311V8.51212ZM48.1 10.3508H50.34V9.98311H48.66V6.48953H48.1V10.3508ZM52.86 8.14438H51.3667V6.94922H52.9533V6.48953H50.9V10.3508H53.0467V9.98311H51.3667V8.60407H52.86V8.14438ZM25.42 14.396H23.18V15.5912H24.1133V16.9702C24.02 17.0622 23.74 17.0622 23.46 17.0622C22.34 17.0622 21.5933 16.2347 21.5933 14.9476C21.5933 13.4767 22.4333 12.7412 23.5533 12.7412C24.2067 12.7412 24.58 12.9251 24.9533 13.1089L25.2333 11.9138C24.9533 11.7299 24.3 11.546 23.5533 11.546C21.5933 11.546 20.1933 12.8331 20.1933 14.9476C20.1933 15.9589 20.4733 16.7864 21.0333 17.4299C21.5933 17.9815 22.34 18.2573 23.46 18.2573C24.2067 18.2573 25.0467 18.0735 25.42 17.8896V14.396ZM29.5267 16.5105L29.9933 18.1654H31.3933L29.62 11.638H27.8467L26.0733 18.1654H27.38L27.8467 16.5105H29.5267ZM28.0333 15.4073L28.4067 14.0283C28.5 13.6605 28.5933 13.1089 28.6867 12.7412C28.78 13.1089 28.8733 13.5686 28.9667 14.0283L29.34 15.4073H28.0333ZM37.2733 18.1654H38.58L38.3 11.638H36.5267L35.8733 13.8444C35.6867 14.5799 35.5 15.4073 35.3133 16.1428C35.22 15.4073 35.0333 14.5799 34.8467 13.8444L34.2867 11.638H32.42L32.0467 18.1654H33.3533L33.4467 15.6831C33.4467 14.8557 33.54 13.8444 33.54 13.017C33.7267 13.8444 33.9133 14.7638 34.1 15.5912L34.7533 18.0735H35.78L36.5267 15.4993C36.7133 14.7638 36.9933 13.8444 37.18 13.017V15.6831L37.2733 18.1654ZM39.6067 11.638V18.1654H41.0067V11.638H39.6067ZM43.34 18.1654V13.3847C43.62 14.1202 43.9933 14.9476 44.3667 15.6831L45.6733 18.1654H47.0733V11.638H45.86V13.5686C45.86 14.488 45.86 15.4073 45.9533 16.3267C45.6733 15.5912 45.3 14.7638 44.9267 14.0283L43.7133 11.638H42.1267V18.1654H43.34ZM53.14 14.396H50.9933V15.5912H51.8333V16.9702C51.74 17.0622 51.5533 17.0622 51.18 17.0622C50.1533 17.0622 49.3133 16.2347 49.3133 14.9476C49.3133 13.4767 50.1533 12.7412 51.2733 12.7412C51.9267 12.7412 52.3933 12.9251 52.6733 13.1089L52.9533 11.9138C52.6733 11.7299 52.1133 11.546 51.3667 11.546C49.4067 11.546 47.9133 12.8331 47.9133 14.9476C47.9133 15.9589 48.1933 16.7864 48.7533 17.4299C49.3133 17.9815 50.06 18.2573 51.18 18.2573C51.9267 18.2573 52.7667 18.0735 53.14 17.8896V14.396ZM10.58 18.0735H8.24667V13.5686H7.59333C6.66 13.6605 6.19333 14.0283 5.91333 15.4073C5.63333 16.7864 5.35333 17.7976 5.16667 18.0735H2.83333C3.02 17.6138 3.39333 16.1428 3.67333 14.8557C3.95333 13.8444 4.32667 13.017 5.07333 12.7412V12.6492C4.14 12.3734 3.20667 11.3621 3.20667 9.89117C3.20667 8.78793 3.58 8.05243 4.14 7.50083C4.88667 6.85728 6.00667 6.58148 7.5 6.58148C8.71333 6.58148 9.83333 6.67339 10.58 6.85728V7.86858C11.6067 7.04114 12.9133 6.58148 14.5 6.58148C15.8067 6.58148 16.8333 6.85728 17.3 7.13308L16.8333 9.15567C16.2733 8.87987 15.62 8.69598 14.4067 8.69598C12.54 8.69598 11.0467 9.89117 11.0467 12.3734C11.0467 14.7638 12.3533 16.1428 14.3133 16.1428C14.78 16.1428 15.2467 16.0509 15.4333 15.9589V13.5686H13.8467V11.546H17.6733V17.5218C16.9267 17.7976 15.62 18.1654 14.22 18.1654C12.6333 18.1654 11.5133 17.7976 10.58 17.1541V18.0735ZM8.24667 8.60407C8.15333 8.60407 7.78 8.51212 7.22 8.51212C6.19333 8.51212 5.54 9.06373 5.54 10.075C5.54 11.0863 6.19333 11.7299 7.40667 11.7299H8.24667V8.60407Z" fill="#958E97"/>
</g>
<defs>
<clipPath id="clip0_156_144">
<rect width="56" height="25" fill="white" transform="translate(0.5)"/>
</clipPath>
</defs>
</svg>
