<svg width="26" height="25" viewBox="0 0 26 25" fill="none" xmlns="http://www.w3.org/2000/svg">
<path d="M16.5278 11.062C16.5278 11.2495 16.6206 11.437 16.8991 11.3433C17.1776 11.2495 17.3632 11.062 17.3632 10.687V10.2183C17.3632 10.2183 17.1776 10.312 16.8991 10.4995C16.6206 10.5933 16.5278 10.7808 16.5278 11.062Z" fill="#958E97"/>
<path d="M12.0724 10.312C11.794 10.4057 11.7012 10.687 11.7012 11.1557L12.5365 10.9682C12.5365 10.9682 12.5365 10.8745 12.5365 10.7807C12.5365 10.4057 12.4437 10.2182 12.0724 10.312Z" fill="#958E97"/>
<path d="M20.7039 6.5625L20.6111 6.75H20.7039C20.7967 6.75 20.7967 6.75 20.7967 6.65625C20.7967 6.5625 20.7967 6.5625 20.7039 6.5625Z" fill="#958E97"/>
<path d="M20.7053 6.37451C20.4268 6.37451 20.2412 6.56201 20.2412 6.84326C20.2412 7.12451 20.4268 7.31201 20.7053 7.31201C20.9838 7.31201 21.1694 7.12451 21.1694 6.84326C21.1694 6.56201 20.9838 6.37451 20.7053 6.37451ZM20.7981 7.12451C20.7981 7.03076 20.7981 7.03076 20.7981 6.93701C20.7981 6.84326 20.7981 6.84326 20.7053 6.84326H20.6125V7.12451H20.5197V6.46826H20.7053C20.7981 6.46826 20.891 6.46826 20.891 6.65576C20.891 6.74951 20.891 6.84326 20.7981 6.84326C20.891 6.84326 20.891 6.84326 20.891 6.93701C20.891 7.03076 20.891 7.03076 20.7981 7.12451C20.891 7.12451 20.891 7.12451 20.891 7.12451H20.7981Z" fill="#958E97"/>
<path d="M20.6959 3.28125H5.21081C4.278 3.28125 3.625 3.9375 3.625 4.875V20.5312C3.625 21.375 4.278 22.0312 5.21081 22.0312H20.7892C21.6287 22.0312 22.375 21.375 22.375 20.4375V4.875C22.2817 3.9375 21.6287 3.28125 20.6959 3.28125ZM5.86381 11.25L6.70334 11.0625V11.4375C6.70334 11.4375 6.98322 10.875 7.54291 10.7812C8.19591 10.5938 8.47575 11.0625 8.47575 11.625V13.9688L7.54291 14.1562V11.9062C7.54291 11.5312 7.35634 11.5312 7.16978 11.5312C6.98322 11.625 6.79666 11.9062 6.79666 12.2812V13.7812C6.70334 13.6875 6.4235 13.5938 6.23694 13.5938C6.14366 13.5938 6.05037 13.5938 5.86381 13.6875V11.25ZM5.39738 18.375C5.11753 18.4688 4.74441 18.5625 4.74441 18.5625H4.65112C4.37128 18.5625 4.09141 18.2812 4.09141 18C4.09141 17.9062 4.09141 17.8125 4.18469 17.7188L5.39738 17.3438V18.375ZM5.39738 17.1562C5.11753 17.25 4.74441 17.3438 4.74441 17.3438H4.65112C4.37128 17.3438 4.09141 17.0625 4.09141 16.7812C4.09141 16.6875 4.09141 16.5938 4.18469 16.5L5.39738 16.2188V17.1562ZM5.39738 15.8438C5.11753 15.9375 4.74441 16.0312 4.74441 16.0312H4.65112C4.37128 16.0312 4.09141 15.75 4.09141 15.4688C4.09141 15.375 4.09141 15.2812 4.18469 15.1875L5.39738 14.9062V15.8438ZM5.39738 14.7188L4.46456 14.9062V9.65625L5.39738 9.46875V14.7188ZM8.94216 18.9375V21C8.94216 21 7.72947 21 7.26306 21C6.33022 21 5.67725 20.25 5.67725 19.4062V14.5312C5.67725 14.25 5.95709 13.9688 6.23694 13.9688C6.61006 13.9688 6.79666 14.25 6.79666 14.5312C6.79666 14.8125 6.79666 17.3438 6.79666 17.3438C6.79666 17.4375 6.88994 17.4375 6.88994 17.4375C6.98322 17.4375 6.98322 17.3438 6.98322 17.3438C6.98322 17.25 6.98322 15 6.98322 15L8.47575 16.0312C8.66231 16.2188 8.84888 16.4063 8.84888 16.6875C8.94216 16.6875 8.94216 17.8125 8.94216 18.9375ZM10.7146 10.7812L10.0616 10.9687C10.0616 10.9687 10.0616 12.2812 10.0616 12.6562C10.0616 13.4062 10.2481 13.5938 10.2481 13.5938L9.31531 13.7812C9.31531 13.7812 9.222 13.5938 9.222 12.8438V11.1562L8.75559 11.25V10.5938L9.222 10.5V9.75L10.1548 9.5625V10.3125L10.8078 10.125V10.7812H10.7146ZM13.4198 11.25L11.7407 11.7188C11.7407 12.2812 11.834 12.5625 12.2071 12.4688C12.4869 12.375 12.5802 12.1875 12.5802 12V11.9062L13.4198 11.7188C13.4198 11.7188 13.4198 11.8125 13.4198 11.9062C13.4198 12.1875 13.3265 13.0312 12.2071 13.3125C11.0877 13.4062 10.8078 12.75 10.8078 11.8125C10.8078 11.25 10.9011 10.7812 11.0877 10.5C11.2743 10.125 11.6474 9.84375 12.1138 9.75C13.1399 9.5625 13.4198 10.125 13.4198 10.875C13.4198 11.1562 13.4198 11.25 13.4198 11.25ZM15.5653 9.75C15.5653 9.75 15.3787 9.75 15.0989 9.84375C14.819 9.9375 14.6325 10.2188 14.6325 10.6875V12.4688L13.6996 12.6562V9.375L14.5392 9.1875V9.65625C14.5392 9.65625 14.7257 9.09375 15.2854 9C15.472 9 15.5653 9 15.5653 9V9.75ZM17.6175 11.8125C17.6175 11.8125 17.5243 11.625 17.5243 11.5312C17.5243 11.5312 17.3377 12 16.6847 12.0938C16.0317 12.2812 15.6586 11.8125 15.6586 11.25C15.6586 10.5 16.125 10.2187 16.778 9.9375C17.3377 9.65625 17.431 9.5625 17.431 9.375C17.431 9.1875 17.3377 9 17.0578 9.09375C16.778 9.1875 16.6847 9.375 16.6847 9.5625C16.6847 9.65625 16.6847 9.75 16.6847 9.75L15.8452 9.9375C15.8452 9.9375 15.8452 9.65625 15.9384 9.46875C16.0317 9 16.4981 8.71875 17.1511 8.53125C18.084 8.34375 18.3638 8.71875 18.3638 9.375V10.7812C18.3638 11.5312 18.4571 11.625 18.4571 11.625L17.6175 11.8125ZM20.1362 11.25C19.0168 11.5312 18.8302 10.875 18.7369 9.84375C18.7369 8.8125 18.9235 8.0625 20.0429 7.78125C20.7892 7.59375 20.9757 7.78125 21.1623 7.96875C21.3489 8.15625 21.3489 8.4375 21.3489 8.71875V8.8125L20.5093 9V8.90625C20.5093 8.53125 20.416 8.34375 20.1362 8.4375C19.7631 8.53125 19.6698 8.8125 19.6698 9.46875C19.6698 9.65625 19.6698 9.75 19.6698 9.75C19.6698 10.4062 19.7631 10.6875 20.1362 10.5938C20.5093 10.5 20.5093 10.2187 20.5093 9.9375V9.75L21.3489 9.5625V9.65625C21.3489 10.5938 20.8825 11.0625 20.1362 11.25ZM20.7892 7.40625C20.5093 7.40625 20.2295 7.125 20.2295 6.84375C20.2295 6.5625 20.5093 6.28125 20.7892 6.28125C21.069 6.28125 21.3489 6.5625 21.3489 6.84375C21.3489 7.21875 21.069 7.40625 20.7892 7.40625Z" fill="#958E97"/>
</svg>
