<svg width="51" height="25" viewBox="0 0 51 25" fill="none" xmlns="http://www.w3.org/2000/svg">
<g clip-path="url(#clip0_156_146)">
<path fill-rule="evenodd" clip-rule="evenodd" d="M5.70797 3.0249H45.2919C47.5916 3.0249 49.5625 4.91378 49.5625 7.21325V18.7928C49.5625 21.0923 47.5916 22.9812 45.2919 22.9812H5.70797C3.32637 22.9812 1.4375 21.0923 1.4375 18.7928V7.21325C1.4375 4.91378 3.32637 3.0249 5.70797 3.0249Z" stroke="#958E97" stroke-width="4.40481"/>
<path d="M26.1569 10.9908H29.3598V11.8121H27.3067V12.3869H29.1956V13.2082H27.3067V13.9473H29.4419V14.8507H26.1569V10.9908ZM23.1183 12.5512H23.6111C23.6932 12.5512 23.7753 12.5512 23.9396 12.4691C24.0217 12.4691 24.1038 12.3869 24.186 12.3869C24.186 12.3048 24.2681 12.2227 24.2681 12.1406C24.2681 11.9763 24.186 11.8942 24.1038 11.8121C24.0217 11.8121 23.8575 11.7299 23.6932 11.7299H23.1183V12.5512ZM21.9686 14.8507V10.9908H23.9396C24.2681 10.9908 24.5966 10.9908 24.7608 11.0729C25.0072 11.0729 25.1714 11.2372 25.2536 11.4014C25.4178 11.5657 25.4178 11.8121 25.4178 12.0584C25.4178 12.2227 25.4178 12.4691 25.3357 12.5512C25.1714 12.7154 25.0893 12.8797 24.9251 12.9618C24.8429 13.0439 24.6787 13.1261 24.5145 13.1261C24.6787 13.2082 24.7608 13.2082 24.8429 13.2903C24.8429 13.2903 24.9251 13.3724 25.0072 13.4546C25.0893 13.5367 25.1714 13.6188 25.1714 13.7009L25.7463 14.8507H24.4323L23.7753 13.6188C23.6932 13.5367 23.6111 13.3724 23.529 13.3724C23.4468 13.2903 23.3647 13.2903 23.2826 13.2903H23.1183V14.8507H21.9686ZM19.9155 10.9908H21.1473V13.2903C21.1473 13.4546 21.0652 13.7009 20.9831 13.9473C20.9831 14.1116 20.8188 14.2758 20.6546 14.4401C20.5725 14.6043 20.4082 14.6864 20.244 14.7686C19.9976 14.8507 19.6691 14.9328 19.3406 14.9328C19.1763 14.9328 19.0121 14.8507 18.7657 14.8507C18.5194 14.8507 18.3551 14.7686 18.1909 14.6864C18.0266 14.6043 17.8624 14.5222 17.7802 14.3579C17.616 14.1937 17.5339 14.1116 17.5339 13.9473C17.4517 13.7009 17.4517 13.4546 17.4517 13.2903V10.9908H18.6015V13.2903C18.6015 13.5367 18.6836 13.7009 18.7657 13.7831C18.93 13.9473 19.0942 14.0294 19.2585 14.0294C19.5048 14.0294 19.6691 13.9473 19.7512 13.7831C19.8333 13.7009 19.9155 13.5367 19.9155 13.2903V10.9908ZM15.8092 13.2082L16.7947 13.5367C16.7947 13.8652 16.6305 14.1116 16.4662 14.2758C16.302 14.5222 16.1377 14.6864 15.8914 14.7686C15.7271 14.8507 15.3986 14.9328 15.0701 14.9328C14.6595 14.9328 14.331 14.8507 14.0025 14.6864C13.7561 14.6043 13.5097 14.3579 13.3455 14.0294C13.1812 13.7831 13.017 13.3724 13.017 12.8797C13.017 12.2227 13.1812 11.7299 13.5919 11.4014C13.9204 11.0729 14.4131 10.9087 14.988 10.9087C15.4807 10.9087 15.8914 10.9908 16.1377 11.1551C16.4662 11.4014 16.6305 11.6478 16.7947 12.0584L15.7271 12.3048C15.7271 12.2227 15.645 12.1406 15.645 12.0584C15.5629 11.9763 15.4807 11.8942 15.3986 11.8942C15.2344 11.8121 15.1522 11.8121 15.0701 11.8121C14.7416 11.8121 14.5774 11.8942 14.4131 12.1406C14.331 12.3048 14.2489 12.5512 14.2489 12.8797C14.2489 13.2903 14.331 13.6188 14.4131 13.7831C14.5774 13.9473 14.7416 14.0294 14.988 14.0294C15.2344 14.0294 15.3986 13.9473 15.4807 13.7831C15.645 13.7009 15.7271 13.4546 15.8092 13.2082ZM9.23927 10.9908H12.5243V11.8121H10.4712V12.3869H12.36V13.2082H10.4712V13.9473H12.5243V14.8507H9.23927V10.9908ZM5.13306 13.5367L6.28281 13.4546C6.28281 13.7009 6.36493 13.7831 6.44706 13.8652C6.61131 14.0294 6.77556 14.1116 6.93981 14.1116C7.18615 14.1116 7.26828 14.1116 7.3504 14.0294C7.43253 13.9473 7.51465 13.8652 7.51465 13.7009C7.51465 13.6188 7.43253 13.5367 7.3504 13.4546C7.26828 13.3724 7.10406 13.2903 6.77556 13.2082C6.28281 13.1261 5.87218 12.9618 5.62581 12.7976C5.37943 12.5512 5.29731 12.3048 5.29731 12.0584C5.29731 11.8121 5.37943 11.6478 5.46156 11.4836C5.62581 11.3193 5.79006 11.1551 6.03643 11.0729C6.20068 10.9087 6.52918 10.9087 6.93981 10.9087C7.43253 10.9087 7.84315 10.9908 8.08953 11.1551C8.3359 11.3193 8.50015 11.6478 8.58228 12.0584L7.43253 12.1406C7.43253 11.9763 7.3504 11.8121 7.26828 11.7299C7.10406 11.6478 7.02193 11.6478 6.85768 11.6478C6.69343 11.6478 6.61131 11.6478 6.52918 11.7299C6.44706 11.7299 6.44706 11.8121 6.44706 11.8942C6.44706 11.9763 6.44706 12.0584 6.52918 12.0584C6.52918 12.1406 6.69343 12.1406 6.93981 12.2227C7.43253 12.3048 7.76103 12.4691 8.0074 12.5512C8.25378 12.7154 8.41803 12.7976 8.50015 12.9618C8.6644 13.2082 8.6644 13.3724 8.6644 13.5367C8.6644 13.7831 8.58228 14.0294 8.50015 14.2758C8.3359 14.4401 8.17165 14.6043 7.92528 14.7686C7.6789 14.8507 7.3504 14.9328 6.93981 14.9328C6.28281 14.9328 5.87218 14.7686 5.62581 14.5222C5.29731 14.2758 5.21518 13.9473 5.13306 13.5367Z" fill="#958E97"/>
<path d="M24.2681 8.11636C24.1038 8.19849 24.0217 8.28061 23.9396 8.36274C23.9396 8.44486 23.9396 8.52699 23.9396 8.60911C23.9396 8.77336 23.9396 8.85549 24.1038 8.93761C24.1859 9.10186 24.3502 9.10186 24.5144 9.10186C24.6787 9.10186 24.9251 9.01974 25.1714 8.85549C24.9251 8.69124 24.5966 8.44486 24.2681 8.11636ZM24.6787 7.21299C24.7608 7.13086 24.9251 7.04874 25.0072 6.96661C25.0893 6.80236 25.0893 6.72024 25.0893 6.63811C25.0893 6.55599 25.0893 6.55599 25.0072 6.47386C24.9251 6.39174 24.8429 6.39174 24.7608 6.39174C24.5966 6.39174 24.5144 6.39174 24.4323 6.47386C24.4323 6.55599 24.3502 6.63811 24.3502 6.72024C24.3502 6.80236 24.4323 6.96661 24.6787 7.21299ZM25.9106 7.86999L26.7318 8.03424C26.6497 8.19849 26.6497 8.36274 26.5676 8.44486C26.5676 8.52699 26.4854 8.60911 26.4033 8.77336L26.8139 9.01974C26.8961 9.10186 26.9782 9.10186 27.0603 9.18399L26.4854 9.84099C26.3212 9.75886 26.2391 9.67674 26.1569 9.59461C25.9927 9.51249 25.9106 9.51249 25.8284 9.43036C25.6642 9.51249 25.4178 9.59461 25.2536 9.67674C25.0072 9.75886 24.6787 9.84099 24.3502 9.84099C23.8574 9.84099 23.4468 9.67674 23.2004 9.51249C22.9541 9.26611 22.8719 9.01974 22.8719 8.69124C22.8719 8.44486 22.8719 8.28061 23.0362 8.03424C23.2004 7.86999 23.4468 7.70574 23.7753 7.54149C23.6111 7.37724 23.5289 7.29511 23.5289 7.13086C23.4468 6.96661 23.4468 6.88449 23.4468 6.72024C23.4468 6.47386 23.5289 6.22752 23.6932 6.06327C23.9396 5.89902 24.2681 5.81689 24.6787 5.81689C25.0893 5.81689 25.4178 5.89902 25.6642 6.06327C25.8284 6.22752 25.9927 6.39174 25.9927 6.63811C25.9927 6.80236 25.9106 6.88449 25.8284 7.04874C25.8284 7.13086 25.7463 7.29511 25.6642 7.37724C25.5821 7.37724 25.4178 7.54149 25.1714 7.70574C25.3357 7.86999 25.5821 8.03424 25.7463 8.19849C25.8284 8.11636 25.8284 7.95211 25.9106 7.86999Z" fill="#958E97"/>
<path d="M17.1232 5.89902H20.3261V6.72024H18.273V7.29511H20.1618V8.11636H18.273V8.85549H20.4082V9.75886H17.1232V5.89902ZM13.5097 5.89902H16.4662V6.72024H14.7416V7.37724H16.2199V8.19849H14.7416V9.75886H13.5097V5.89902ZM11.3745 8.28061L10.9639 6.88449L10.5533 8.28061H11.3745ZM11.703 9.10186H10.3069L10.1427 9.75886H8.91078L10.389 5.89902H11.6209L13.0991 9.75886H11.8673L11.703 9.10186ZM5.13306 8.44486L6.28281 8.36274C6.28281 8.60911 6.36493 8.69124 6.44706 8.77336C6.61131 8.93761 6.77556 9.01974 6.93981 9.01974C7.18615 9.01974 7.26828 9.01974 7.3504 8.93761C7.43253 8.85549 7.51465 8.77336 7.51465 8.60911C7.51465 8.52699 7.43253 8.44486 7.3504 8.36274C7.26828 8.28061 7.10406 8.19849 6.77556 8.11636C6.28281 8.03424 5.87218 7.86999 5.62581 7.70574C5.37943 7.45936 5.29731 7.21299 5.29731 6.96661C5.29731 6.72024 5.37943 6.55599 5.46156 6.39174C5.62581 6.22752 5.79006 6.06327 6.03643 5.98114C6.20068 5.81689 6.52918 5.81689 6.93981 5.81689C7.43253 5.81689 7.84315 5.89902 8.08953 6.06327C8.3359 6.22752 8.50015 6.55599 8.58228 6.96661L7.43253 7.04874C7.43253 6.88449 7.3504 6.72024 7.26828 6.63811C7.10406 6.55599 7.02193 6.55599 6.85768 6.55599C6.69343 6.55599 6.61131 6.55599 6.52918 6.63811C6.44706 6.63811 6.44706 6.72024 6.44706 6.80236C6.44706 6.88449 6.44706 6.96661 6.52918 6.96661C6.52918 7.04874 6.69343 7.04874 6.93981 7.13086C7.43253 7.21299 7.76103 7.37724 8.0074 7.45936C8.25378 7.62361 8.41803 7.70574 8.50015 7.86999C8.6644 8.11636 8.6644 8.28061 8.6644 8.44486C8.6644 8.69124 8.58228 8.93761 8.50015 9.18399C8.3359 9.34824 8.17165 9.51249 7.92528 9.67674C7.6789 9.75886 7.3504 9.84099 6.93981 9.84099C6.28281 9.84099 5.87218 9.67674 5.62581 9.43036C5.29731 9.18399 5.21518 8.85549 5.13306 8.44486Z" fill="#958E97"/>
<path d="M3.90125 15.3433C6.36496 16.2466 8.58234 17.5606 10.1427 20.1886C17.2876 16.9857 24.5967 15.5896 32.0701 16.8215C24.0218 16.1645 16.3842 17.9712 9.15721 22.406C8.08959 19.3674 6.20075 17.0679 3.90125 15.3433Z" fill="#958E97"/>
<path fill-rule="evenodd" clip-rule="evenodd" d="M46.3597 10.4981V7.45947C46.3597 4.42088 43.8138 1.875 40.7754 1.875C37.6544 1.875 35.1907 4.42088 35.1907 7.45947V10.4981H36.9154V7.62372C36.9154 5.48847 38.64 3.76388 40.7754 3.76388C42.8285 3.76388 44.5529 5.48847 44.5529 7.62372V10.4981H46.3597Z" fill="#958E97" stroke="#958E97" stroke-width="0.335647"/>
<path fill-rule="evenodd" clip-rule="evenodd" d="M34.4516 9.75879H47.1809C47.4272 9.75879 47.6737 9.92304 47.6737 10.2515V19.5316C47.6737 19.8601 47.4272 20.0244 47.1809 20.0244H34.4516C34.2053 20.0244 33.9587 19.8601 33.9587 19.5316V10.2515C33.9587 9.92304 34.2053 9.75879 34.4516 9.75879ZM40.7753 10.58C41.2678 10.58 41.6784 10.9085 41.6784 11.4013C41.6784 11.6477 41.5144 11.894 41.2678 12.0583L41.5966 14.4399H40.0359L40.3647 12.0583C40.1181 11.894 39.9541 11.6477 39.9541 11.4013C39.9541 10.9085 40.3647 10.58 40.7753 10.58Z" fill="#958E97" stroke="#958E97" stroke-width="0.335647"/>
<path d="M47.6678 15.0151H33.9587V18.8067H47.6678V15.0151Z" fill="#958E97"/>
<path fill-rule="evenodd" clip-rule="evenodd" d="M47.1809 15.0151H47.6737V15.59L47.1809 15.0151ZM47.6737 18.1359V18.7929H46.2775L43.2391 15.0151H45.21L47.6737 18.1359ZM33.9587 18.218V15.6721L36.4225 18.7929H34.4516L33.9587 18.218ZM39.3791 15.0151H41.2678L44.3066 18.7929H42.3356L39.3791 15.0151ZM35.4372 15.0151H37.4081L40.3647 18.7929H38.3934L35.4372 15.0151Z" fill="#958E97"/>
<path d="M17.1233 20.3528V20.1064L16.877 19.6958H17.0412L17.2055 20.0243L17.3697 19.6958H17.534L17.2876 20.1064V20.3528H17.1233ZM17.534 20.0243C17.534 20.0243 17.534 19.9422 17.534 19.86C17.6161 19.86 17.6161 19.8601 17.6161 19.7779C17.6982 19.7779 17.6982 19.7779 17.6982 19.7779C17.7803 19.6958 17.7803 19.6958 17.8625 19.6958C17.9446 19.6958 18.0267 19.7779 18.1088 19.7779C18.1088 19.8601 18.191 19.9422 18.191 20.0243C18.191 20.1885 18.1088 20.2707 18.1088 20.2707C18.0267 20.3528 17.9446 20.3528 17.8625 20.3528C17.7803 20.3528 17.6982 20.3528 17.6161 20.2707C17.534 20.2707 17.534 20.1885 17.534 20.0243ZM17.6982 20.0243C17.6982 20.1064 17.6982 20.1886 17.6982 20.1886C17.7803 20.2707 17.7803 20.2707 17.8625 20.2707C17.9446 20.2707 17.9446 20.2707 18.0267 20.1886C18.0267 20.1886 18.0267 20.1064 18.0267 20.0243C18.0267 19.9422 18.0267 19.9422 18.0267 19.86C17.9446 19.86 17.9446 19.86 17.8625 19.86C17.7803 19.86 17.7803 19.86 17.6982 19.86C17.6982 19.9422 17.6982 19.9422 17.6982 20.0243ZM18.2731 19.6958H18.4373V20.1064V20.1886V20.2707H18.5195C18.6016 20.2707 18.6016 20.2707 18.6016 20.2707L18.6837 20.1886V20.1064V19.6958H18.7658V20.1064C18.7658 20.1886 18.7658 20.1885 18.7658 20.2707C18.7658 20.2707 18.7658 20.2707 18.7658 20.3528C18.6837 20.3528 18.6837 20.3528 18.6837 20.3528C18.6016 20.3528 18.6016 20.3528 18.5195 20.3528C18.4373 20.3528 18.4373 20.3528 18.4373 20.3528C18.3552 20.3528 18.3552 20.3528 18.3552 20.3528C18.2731 20.2707 18.2731 20.2707 18.2731 20.2707C18.2731 20.1885 18.2731 20.1886 18.2731 20.1064V19.6958ZM18.9301 20.3528V19.6958H19.1765C19.2586 19.6958 19.3407 19.7779 19.3407 19.7779C19.4228 19.7779 19.4228 19.7779 19.4228 19.7779C19.4228 19.8601 19.4228 19.8601 19.4228 19.9422V20.0243C19.4228 20.1064 19.3407 20.1064 19.2586 20.1064C19.3407 20.1064 19.3407 20.1064 19.3407 20.1886C19.3407 20.1886 19.4228 20.1885 19.4228 20.2707L19.505 20.3528H19.3407L19.2586 20.2707C19.2586 20.1885 19.1765 20.1886 19.1765 20.1064H19.0943V20.3528H18.9301ZM19.0943 20.0243H19.1765H19.2586C19.2586 20.0243 19.2586 20.0243 19.3407 19.9422V19.86C19.2586 19.86 19.2586 19.86 19.2586 19.86H19.1765H19.0943V20.0243ZM19.9977 20.3528V19.86H19.7513V19.6958H20.3262V19.86H20.0798V20.3528H19.9977ZM20.4083 20.3528V19.6958H20.6547C20.7368 19.6958 20.7368 19.7779 20.819 19.7779H20.9011C20.9011 19.8601 20.9011 19.8601 20.9011 19.9422V20.0243C20.819 20.1064 20.819 20.1064 20.7368 20.1064C20.7368 20.1064 20.819 20.1064 20.819 20.1886C20.819 20.1886 20.819 20.1885 20.9011 20.2707L20.9832 20.3528H20.819L20.7368 20.2707C20.6547 20.1885 20.6547 20.1886 20.6547 20.1064C20.6547 20.1064 20.6547 20.1064 20.5726 20.1064H20.4905V20.3528H20.4083ZM20.4905 20.0243H20.5726C20.6547 20.0243 20.7368 20.0243 20.7368 20.0243C20.7368 20.0243 20.7368 20.0243 20.7368 19.9422V19.86H20.6547H20.4905V20.0243ZM21.6402 20.3528H21.476L21.3938 20.2707H21.1475V20.3528H20.9832L21.2296 19.6958H21.3938L21.6402 20.3528ZM21.3938 20.1064L21.3117 19.86L21.2296 20.1064H21.3938ZM21.7223 20.3528V19.6958H21.8045L22.0508 20.1886V19.6958H22.2151V20.3528H22.0508L21.8045 19.9422V20.3528H21.7223ZM22.2972 20.1886H22.4615V20.2707H22.5436C22.6257 20.2707 22.6257 20.2707 22.7078 20.2707V20.1886C22.7078 20.1064 22.6257 20.1064 22.6257 20.1064C22.6257 20.1064 22.6257 20.1064 22.5436 20.1064C22.4615 20.1064 22.3793 20.0243 22.3793 20.0243L22.2972 19.9422C22.2972 19.8601 22.3793 19.8601 22.3793 19.7779C22.3793 19.7779 22.3793 19.7779 22.4615 19.7779C22.4615 19.6958 22.5436 19.6958 22.5436 19.6958C22.6257 19.6958 22.7078 19.7779 22.7078 19.7779C22.79 19.7779 22.79 19.8601 22.79 19.9422H22.7078C22.7078 19.8601 22.6257 19.86 22.6257 19.86C22.6257 19.86 22.6257 19.86 22.5436 19.86H22.4615C22.4615 19.9422 22.4615 19.9422 22.4615 19.9422C22.4615 19.9422 22.5436 19.9422 22.6257 19.9422C22.6257 20.0243 22.7078 20.0243 22.7078 20.0243C22.79 20.0243 22.79 20.0243 22.79 20.1064V20.1886V20.2707C22.79 20.3528 22.79 20.3528 22.7078 20.3528C22.7078 20.3528 22.6257 20.3528 22.5436 20.3528C22.4615 20.3528 22.4615 20.3528 22.3793 20.3528C22.3793 20.2707 22.2972 20.2707 22.2972 20.1886ZM23.529 20.3528H23.3648V20.2707H23.0363V20.3528H22.8721L23.1184 19.6958H23.2827L23.529 20.3528ZM23.2827 20.1064L23.2005 19.86L23.1184 20.1064H23.2827ZM24.0218 20.1064L24.1039 20.1886C24.1039 20.2707 24.1039 20.2707 24.0218 20.3528C24.0218 20.3528 23.9397 20.3528 23.8575 20.3528C23.7754 20.3528 23.6933 20.3528 23.6933 20.2707C23.6112 20.2707 23.6112 20.1885 23.6112 20.0243C23.6112 19.9422 23.6112 19.8601 23.6933 19.7779C23.6933 19.7779 23.7754 19.6958 23.8575 19.6958C23.9397 19.6958 24.0218 19.7779 24.1039 19.7779C24.1039 19.8601 24.1039 19.8601 24.1039 19.9422H24.0218L23.9397 19.86C23.9397 19.86 23.9397 19.86 23.8575 19.86H23.7754C23.6933 19.9422 23.6933 19.9422 23.6933 20.0243C23.6933 20.1064 23.6933 20.1886 23.7754 20.1886C23.7754 20.2707 23.8575 20.2707 23.8575 20.2707C23.9397 20.2707 23.9397 20.2707 23.9397 20.2707C23.9397 20.1885 24.0218 20.1886 24.0218 20.1064ZM24.4324 20.3528V19.86H24.186V19.6958H24.6788V19.86H24.5145V20.3528H24.4324ZM24.7609 20.3528V19.6958H24.9252V20.3528H24.7609ZM25.0073 20.0243C25.0073 20.0243 25.0073 19.9422 25.0894 19.86C25.0894 19.86 25.0894 19.8601 25.0894 19.7779C25.1715 19.7779 25.1715 19.7779 25.1715 19.7779C25.2537 19.6958 25.2537 19.6958 25.3358 19.6958C25.4179 19.6958 25.5 19.7779 25.5822 19.7779C25.5822 19.8601 25.6643 19.9422 25.6643 20.0243C25.6643 20.1885 25.5822 20.2707 25.5822 20.2707C25.5 20.3528 25.4179 20.3528 25.3358 20.3528C25.2537 20.3528 25.1715 20.3528 25.0894 20.2707C25.0894 20.2707 25.0073 20.1885 25.0073 20.0243ZM25.1715 20.0243C25.1715 20.1064 25.1715 20.1886 25.1715 20.1886C25.2537 20.2707 25.2537 20.2707 25.3358 20.2707C25.4179 20.2707 25.4179 20.2707 25.5 20.1886C25.5 20.1886 25.5 20.1064 25.5 20.0243C25.5 19.9422 25.5 19.9422 25.5 19.86C25.4179 19.86 25.4179 19.86 25.3358 19.86C25.2537 19.86 25.2537 19.86 25.1715 19.86C25.1715 19.9422 25.1715 19.9422 25.1715 20.0243ZM25.7464 20.3528V19.6958H25.9107L26.157 20.1886V19.6958H26.2392V20.3528H26.157L25.9107 19.9422V20.3528H25.7464ZM27.2247 20.3528H27.0604L26.9783 20.2707H26.7319V20.3528H26.5677L26.814 19.6958H26.9783L27.2247 20.3528ZM26.9783 20.1064L26.8962 19.86L26.814 20.1064H26.9783ZM27.3068 20.3528V19.6958H27.5532C27.6353 19.6958 27.6353 19.7779 27.7174 19.7779C27.7174 19.7779 27.7174 19.7779 27.7995 19.7779C27.7995 19.8601 27.7995 19.8601 27.7995 19.9422V20.0243C27.7174 20.1064 27.7174 20.1064 27.6353 20.1064C27.6353 20.1064 27.7174 20.1064 27.7174 20.1886C27.7174 20.1886 27.7174 20.1885 27.7995 20.2707L27.8817 20.3528H27.7174L27.6353 20.2707C27.5532 20.1885 27.5532 20.1886 27.5532 20.1064H27.471H27.3889V20.3528H27.3068ZM27.3889 20.0243H27.471C27.5532 20.0243 27.6353 20.0243 27.6353 20.0243C27.6353 20.0243 27.6353 20.0243 27.6353 19.9422V19.86C27.5532 19.86 27.5532 19.86 27.471 19.86H27.3889V20.0243ZM27.9638 20.3528V19.6958H28.3744V19.86H28.0459V20.0243H28.3744V20.1064H28.0459V20.2707H28.4565V20.3528H27.9638ZM28.785 20.1886H28.8672C28.8672 20.1886 28.8672 20.2707 28.9493 20.2707C28.9493 20.2707 28.9493 20.2707 29.0314 20.2707H29.1135V20.1886C29.1135 20.1064 29.1135 20.1064 29.1135 20.1064C29.0314 20.1064 29.0314 20.1064 28.9493 20.1064C28.8672 20.1064 28.8672 20.0243 28.8672 20.0243C28.785 20.0243 28.785 19.9422 28.785 19.9422C28.785 19.8601 28.785 19.8601 28.785 19.7779H28.8672C28.9493 19.6958 28.9493 19.6958 29.0314 19.6958C29.1135 19.6958 29.1135 19.7779 29.1956 19.7779C29.1956 19.7779 29.2778 19.8601 29.2778 19.9422H29.1135C29.1135 19.8601 29.1135 19.86 29.1135 19.86C29.0314 19.86 29.0314 19.86 29.0314 19.86C28.9493 19.86 28.9493 19.86 28.9493 19.86C28.8672 19.86 28.8672 19.86 28.8672 19.86C28.8672 19.9422 28.8672 19.9422 28.9493 19.9422C28.9493 19.9422 28.9493 19.9422 29.0314 19.9422C29.1135 20.0243 29.1135 20.0243 29.1956 20.0243C29.1956 20.0243 29.1956 20.0243 29.2778 20.1064V20.1886V20.2707C29.1956 20.3528 29.1956 20.3528 29.1135 20.3528H29.0314C28.9493 20.3528 28.8672 20.3528 28.785 20.3528C28.785 20.2707 28.785 20.2707 28.785 20.1886ZM29.3599 20.3528V19.6958H29.8526V19.86H29.5241V20.0243H29.8526V20.1064H29.5241V20.2707H29.8526V20.3528H29.3599ZM30.4275 20.1064L30.5096 20.1886C30.5096 20.2707 30.5096 20.2707 30.4275 20.3528C30.3454 20.3528 30.3454 20.3528 30.2633 20.3528C30.1811 20.3528 30.099 20.3528 30.0169 20.2707C30.0169 20.2707 29.9348 20.1885 29.9348 20.0243C29.9348 19.9422 30.0169 19.8601 30.0169 19.7779C30.099 19.7779 30.1811 19.6958 30.2633 19.6958C30.3454 19.6958 30.4275 19.7779 30.4275 19.7779C30.5096 19.8601 30.5096 19.8601 30.5096 19.9422H30.4275L30.3454 19.86H30.2633C30.1811 19.86 30.1811 19.86 30.1811 19.86C30.099 19.9422 30.099 19.9422 30.099 20.0243C30.099 20.1064 30.099 20.1886 30.1811 20.1886C30.1811 20.2707 30.1811 20.2707 30.2633 20.2707H30.3454C30.3454 20.1885 30.4275 20.1886 30.4275 20.1064ZM30.6739 19.6958H30.756V20.1064V20.1886C30.756 20.1886 30.756 20.2707 30.8381 20.2707C30.8381 20.2707 30.8381 20.2707 30.9203 20.2707H31.0024V20.1886V20.1064V19.6958H31.1666V20.1064C31.1666 20.1886 31.1666 20.1885 31.1666 20.2707C31.1666 20.2707 31.0845 20.2707 31.0845 20.3528C31.0845 20.3528 31.0845 20.3528 31.0024 20.3528H30.9203C30.8381 20.3528 30.756 20.3528 30.756 20.3528H30.6739C30.6739 20.2707 30.6739 20.2707 30.6739 20.2707C30.6739 20.1885 30.6739 20.1886 30.6739 20.1064V19.6958ZM31.3309 20.3528V19.6958H31.5773C31.6594 19.6958 31.6594 19.7779 31.7415 19.7779C31.7415 19.7779 31.7415 19.7779 31.8238 19.7779C31.8238 19.8601 31.8238 19.8601 31.8238 19.9422C31.8238 19.9422 31.8238 20.0243 31.7415 20.0243C31.7415 20.1064 31.7415 20.1064 31.6594 20.1064C31.6594 20.1064 31.7415 20.1064 31.7415 20.1886C31.7415 20.1886 31.7415 20.1885 31.8238 20.2707L31.9056 20.3528H31.7415L31.6594 20.2707C31.5773 20.1885 31.5773 20.1886 31.5773 20.1064H31.4951C31.4951 20.1064 31.4951 20.1064 31.413 20.1064V20.3528H31.3309ZM31.413 20.0243H31.4951C31.5773 20.0243 31.6594 20.0243 31.6594 20.0243C31.6594 20.0243 31.6594 20.0243 31.6594 19.9422V19.86C31.5773 19.86 31.5773 19.86 31.4951 19.86H31.413V20.0243ZM31.9056 20.3528V19.6958H32.3985V19.86H32.07V20.0243H32.3985V20.1064H32.07V20.2707H32.3985V20.3528H31.9056ZM17.0412 21.4204L16.877 20.7634H17.0412L17.1233 21.174L17.2876 20.7634H17.3697L17.534 21.174L17.6161 20.7634H17.7803L17.6161 21.4204H17.4518L17.3697 20.9277L17.2055 21.4204H17.0412ZM17.7803 21.4204V20.7634H17.9446V21.4204H17.7803ZM18.191 21.4204V20.8455H18.0267V20.7634H18.5195V20.8455H18.3552V21.4204H18.191ZM18.6016 21.4204V20.7634H18.7658V21.0098H19.0122V20.7634H19.1765V21.4204H19.0122V21.0919H18.7658V21.4204H18.6016ZM19.505 21.174H19.5871C19.6692 21.174 19.6692 21.2562 19.6692 21.2562H19.7513C19.8335 21.2562 19.8335 21.2562 19.8335 21.2562C19.9156 21.2562 19.9156 21.2562 19.9156 21.174C19.8335 21.174 19.8335 21.174 19.8335 21.174C19.8335 21.0919 19.7513 21.0919 19.7513 21.0919C19.6692 21.0919 19.5871 21.0919 19.5871 21.0098C19.505 21.0098 19.505 20.9277 19.505 20.9277C19.505 20.8456 19.505 20.8455 19.505 20.8455C19.5871 20.7634 19.5871 20.7634 19.5871 20.7634C19.6692 20.7634 19.6692 20.7634 19.7513 20.7634C19.8335 20.7634 19.9156 20.7634 19.9156 20.7634C19.9977 20.8456 19.9977 20.8456 19.9977 20.9277H19.8335V20.8455H19.7513H19.6692V20.9277L19.7513 21.0098C19.8335 21.0098 19.9156 21.0098 19.9156 21.0098L19.9977 21.0919V21.174C19.9977 21.2562 19.9977 21.2562 19.9977 21.3383H19.9156C19.8335 21.4204 19.8335 21.4204 19.7513 21.4204C19.6692 21.4204 19.5871 21.4204 19.5871 21.3383C19.505 21.3383 19.505 21.2562 19.505 21.174ZM20.0798 21.174H20.2441V21.2562C20.3262 21.2562 20.3262 21.2562 20.3262 21.2562C20.4083 21.2562 20.4083 21.2562 20.4905 21.2562C20.4905 21.2562 20.4905 21.2562 20.4905 21.174C20.4905 21.174 20.4905 21.174 20.4083 21.174C20.4083 21.0919 20.4083 21.0919 20.3262 21.0919C20.2441 21.0919 20.2441 21.0919 20.162 21.0098L20.0798 20.9277C20.0798 20.8456 20.162 20.8455 20.162 20.8455C20.162 20.7634 20.162 20.7634 20.2441 20.7634H20.3262C20.4083 20.7634 20.4905 20.7634 20.5726 20.7634C20.5726 20.8456 20.5726 20.8456 20.5726 20.9277H20.4905C20.4905 20.9277 20.4905 20.8455 20.4083 20.8455C20.4083 20.8455 20.4083 20.8455 20.3262 20.8455C20.3262 20.8455 20.3262 20.8455 20.2441 20.8455V20.9277C20.2441 20.9277 20.3262 21.0098 20.4083 21.0098H20.4905C20.5726 21.0098 20.5726 21.0919 20.5726 21.0919L20.6547 21.174C20.6547 21.2562 20.5726 21.2562 20.5726 21.3383C20.5726 21.3383 20.5726 21.3383 20.4905 21.3383C20.4905 21.4204 20.4083 21.4204 20.3262 21.4204C20.2441 21.4204 20.2441 21.4204 20.162 21.3383C20.162 21.3383 20.0798 21.2562 20.0798 21.174ZM20.7368 21.4204V20.7634H20.9011V21.2562H21.2296V21.4204H20.7368ZM21.8045 21.4204H21.7223V20.9277C21.6402 20.9277 21.5581 21.0098 21.5581 21.0098V20.9277C21.5581 20.9277 21.5581 20.8455 21.6402 20.8455L21.7223 20.7634H21.8045V21.4204ZM22.3793 21.2562V21.4204H21.9687C21.9687 21.3383 21.9687 21.3383 22.0508 21.2562C22.0508 21.2562 22.0508 21.1741 22.133 21.0919C22.2151 21.0919 22.2151 21.0098 22.2972 21.0098V20.9277V20.8455C22.2151 20.8455 22.2151 20.8455 22.2151 20.8455H22.133V20.9277H21.9687C21.9687 20.8456 22.0508 20.8456 22.0508 20.7634C22.133 20.7634 22.133 20.7634 22.2151 20.7634C22.2972 20.7634 22.2972 20.7634 22.3793 20.7634C22.3793 20.8456 22.3793 20.8456 22.3793 20.9277V21.0098V21.0919C22.2972 21.0919 22.2972 21.174 22.2972 21.174C22.2151 21.174 22.2151 21.2562 22.2151 21.2562H22.133H22.3793ZM22.6257 21.0098C22.5436 21.0098 22.5436 21.0098 22.5436 21.0098C22.5436 20.9277 22.5436 20.9277 22.5436 20.9277C22.5436 20.8456 22.5436 20.8456 22.5436 20.7634C22.6257 20.7634 22.6257 20.7634 22.7078 20.7634C22.79 20.7634 22.79 20.7634 22.8721 20.7634C22.8721 20.8456 22.8721 20.8456 22.8721 20.9277C22.8721 20.9277 22.8721 20.9277 22.8721 21.0098C22.8721 21.0098 22.8721 21.0098 22.79 21.0098C22.8721 21.0919 22.8721 21.0919 22.8721 21.0919L22.9542 21.174C22.9542 21.2562 22.8721 21.3383 22.8721 21.3383C22.79 21.4204 22.79 21.4204 22.7078 21.4204C22.6257 21.4204 22.6257 21.4204 22.5436 21.3383C22.5436 21.3383 22.4615 21.2562 22.4615 21.174C22.4615 21.174 22.5436 21.1741 22.5436 21.0919C22.5436 21.0919 22.5436 21.0919 22.6257 21.0098ZM22.6257 20.9277C22.6257 20.9277 22.6257 20.9277 22.6257 21.0098H22.7078C22.7078 21.0098 22.7078 21.0098 22.79 21.0098C22.79 20.9277 22.79 20.9277 22.79 20.9277V20.8455C22.7078 20.8455 22.7078 20.8455 22.7078 20.8455H22.6257V20.9277ZM22.6257 21.174C22.6257 21.2562 22.6257 21.2562 22.6257 21.2562L22.7078 21.3383L22.79 21.2562C22.79 21.2562 22.79 21.2562 22.79 21.174C22.79 21.174 22.79 21.1741 22.79 21.0919H22.7078H22.6257C22.6257 21.1741 22.6257 21.174 22.6257 21.174ZM23.2827 20.7634H23.529C23.6112 20.7634 23.6112 20.7634 23.6112 20.7634C23.6933 20.7634 23.6933 20.7634 23.6933 20.7634C23.7754 20.7634 23.7754 20.8455 23.7754 20.8455C23.7754 20.8455 23.7754 20.8456 23.7754 20.9277C23.7754 20.9277 23.7754 20.9277 23.7754 21.0098H23.6933C23.7754 21.0919 23.7754 21.0919 23.7754 21.0919L23.8575 21.174C23.8575 21.2562 23.7754 21.2562 23.7754 21.2562C23.7754 21.3383 23.7754 21.3383 23.7754 21.3383C23.6933 21.3383 23.6933 21.4204 23.6933 21.4204C23.6112 21.4204 23.6112 21.4204 23.529 21.4204H23.2827V20.7634ZM23.4469 20.8455V21.0098H23.529H23.6112C23.6933 20.9277 23.6933 20.9277 23.6933 20.9277C23.6933 20.9277 23.6933 20.9277 23.6112 20.8455C23.6112 20.8455 23.529 20.8455 23.4469 20.8455ZM23.4469 21.0919V21.2562H23.529C23.6112 21.2562 23.6112 21.2562 23.6112 21.2562H23.6933C23.6933 21.2562 23.6933 21.2562 23.6933 21.174C23.6933 21.0919 23.6112 21.0919 23.6112 21.0919C23.6112 21.0919 23.6112 21.0919 23.529 21.0919H23.4469ZM23.9397 21.4204V20.7634H24.0218V21.4204H23.9397ZM24.3503 21.4204V20.8455H24.1039V20.7634H24.6788V20.8455H24.4324V21.4204H24.3503ZM25.0073 21.4204V20.7634H25.5V20.8455H25.0894V21.0098H25.4179V21.0919H25.0894V21.2562H25.5V21.4204H25.0073ZM25.5822 21.4204V20.7634H25.7464L25.9928 21.174V20.7634H26.0749V21.4204H25.9928L25.7464 20.9277V21.4204H25.5822ZM26.6498 21.174H26.814C26.7319 21.2562 26.7319 21.3383 26.6498 21.3383C26.6498 21.4204 26.5677 21.4204 26.4855 21.4204C26.4034 21.4204 26.3213 21.3383 26.3213 21.3383C26.2392 21.2562 26.2392 21.1741 26.2392 21.0919C26.2392 20.9277 26.2392 20.8455 26.3213 20.8455C26.3213 20.7634 26.4034 20.7634 26.4855 20.7634C26.5677 20.7634 26.6498 20.7634 26.7319 20.7634C26.7319 20.8456 26.7319 20.8456 26.814 20.9277H26.6498C26.6498 20.9277 26.6498 20.9277 26.5677 20.8455C26.5677 20.8455 26.5677 20.8455 26.4855 20.8455C26.4855 20.8455 26.4034 20.8456 26.4034 20.9277C26.4034 20.9277 26.3213 21.0098 26.3213 21.0919C26.3213 21.1741 26.4034 21.1741 26.4034 21.2562H26.4855C26.5677 21.2562 26.5677 21.2562 26.5677 21.2562C26.6498 21.2562 26.6498 21.174 26.6498 21.174ZM26.8962 21.4204V20.7634H27.1425C27.2247 20.7634 27.3068 20.7634 27.3068 20.7634C27.3889 20.7634 27.3889 20.7634 27.3889 20.8455C27.3889 20.8455 27.3889 20.8456 27.3889 20.9277C27.3889 21.0098 27.3889 21.0098 27.3889 21.0098C27.3889 21.0919 27.3068 21.0919 27.2247 21.0919C27.3068 21.0919 27.3068 21.174 27.3068 21.174C27.3068 21.174 27.3889 21.1741 27.3889 21.2562L27.471 21.4204H27.3068L27.2247 21.2562C27.2247 21.1741 27.1425 21.174 27.1425 21.174V21.0919C27.0604 21.0919 27.0604 21.0919 27.0604 21.0919V21.4204H26.8962ZM27.0604 21.0098H27.1425H27.2247C27.2247 21.0098 27.2247 21.0098 27.3068 21.0098C27.3068 20.9277 27.3068 20.9277 27.3068 20.9277C27.3068 20.9277 27.3068 20.9277 27.3068 20.8455C27.2247 20.8455 27.2247 20.8455 27.2247 20.8455H27.1425H27.0604V21.0098ZM27.7174 21.4204V21.0919L27.471 20.7634H27.6353L27.7174 21.0098L27.8817 20.7634H28.0459L27.7995 21.0919V21.4204H27.7174ZM28.128 21.4204V20.7634H28.2923C28.3744 20.7634 28.4565 20.7634 28.4565 20.7634C28.5387 20.7634 28.5387 20.7634 28.5387 20.8455C28.6208 20.8455 28.6208 20.9277 28.6208 20.9277C28.6208 21.0098 28.6208 21.0098 28.6208 21.0098C28.5387 21.0919 28.5387 21.0919 28.5387 21.0919C28.5387 21.0919 28.4565 21.0919 28.4565 21.174C28.4565 21.174 28.3744 21.174 28.2923 21.174H28.2102V21.4204H28.128ZM28.2102 20.8455V21.0098H28.2923C28.3744 21.0098 28.3744 21.0098 28.4565 21.0098V20.9277C28.4565 20.9277 28.4565 20.9277 28.4565 20.8455C28.4565 20.8455 28.4565 20.8455 28.3744 20.8455C28.3744 20.8455 28.3744 20.8455 28.2923 20.8455H28.2102ZM28.8672 21.4204V20.8455H28.7029V20.7634H29.1956V20.8455H29.0314V21.4204H28.8672ZM29.2778 21.4204V20.7634H29.3599V21.4204H29.2778ZM29.5241 21.0919C29.5241 21.0098 29.5241 20.9277 29.5241 20.9277C29.5241 20.8456 29.5241 20.8455 29.6063 20.8455C29.6063 20.7634 29.6063 20.7634 29.6884 20.7634H29.7705C29.9348 20.7634 30.0169 20.7634 30.0169 20.8455C30.099 20.8455 30.099 20.9277 30.099 21.0919C30.099 21.1741 30.099 21.2562 30.0169 21.3383C30.0169 21.3383 29.9348 21.4204 29.7705 21.4204C29.6884 21.4204 29.6063 21.3383 29.6063 21.3383C29.5241 21.2562 29.5241 21.1741 29.5241 21.0919ZM29.6063 21.0919C29.6063 21.1741 29.6063 21.1741 29.6884 21.2562H29.7705C29.8526 21.2562 29.9348 21.2562 29.9348 21.2562C29.9348 21.1741 30.0169 21.1741 30.0169 21.0919C30.0169 21.0098 29.9348 20.9277 29.9348 20.9277C29.9348 20.8456 29.8526 20.8455 29.7705 20.8455C29.7705 20.8455 29.6884 20.8456 29.6884 20.9277C29.6063 20.9277 29.6063 21.0098 29.6063 21.0919ZM30.1811 21.4204V20.7634H30.3454L30.5918 21.174V20.7634H30.756V21.4204H30.5918L30.3454 20.9277V21.4204H30.1811Z" fill="#958E97"/>
</g>
<defs>
<clipPath id="clip0_156_146">
<rect width="50" height="25" fill="white" transform="translate(0.5)"/>
</clipPath>
</defs>
</svg>
