<svg width="96" height="54" viewBox="0 0 96 54" fill="none" xmlns="http://www.w3.org/2000/svg">
<g clip-path="url(#clip0_156_158)">
<path d="M95.5 0H0.5V54H95.5V0Z" fill="#006838"/>
<path d="M33.6613 16.1553C34.0287 16.1553 34.3453 16.4729 34.3453 16.7969V31.3452C34.3453 31.7581 34.1173 32.1711 33.8007 32.4442C31.0647 34.7758 26.872 36.148 22.4893 36.148C12.641 36.148 6.07333 29.56 6.07333 19.6812C6.07333 9.80236 12.641 3.20801 22.4893 3.20801C25.865 3.20801 29.418 4.21177 32.0653 5.86354C32.4327 6.04777 32.5657 6.40989 32.477 6.68942L30.197 13.4108C30.0577 13.7285 29.741 13.8682 29.3293 13.7793C27.461 12.7755 25.0417 12.1784 22.7617 12.1784C18.569 12.1784 15.738 15.196 15.738 19.6812C15.738 24.1664 18.5627 27.273 22.7617 27.273C24.4463 27.273 25.5863 26.9553 26.093 26.4026V23.7471H21.9003C21.4887 23.7471 21.2163 23.5628 21.172 23.2452L20.5767 16.9304C20.5323 16.4729 20.8047 16.1553 21.305 16.1553H33.6613Z" fill="white"/>
<path d="M62.3007 32.7174C62.44 33.0414 62.2563 33.359 61.889 33.5433C59.2417 35.1887 55.6887 36.1988 52.313 36.1988C42.9207 36.1988 36.6253 29.6108 36.6253 19.732C36.6253 9.85314 42.9207 3.26514 52.313 3.26514C55.6887 3.26514 59.2417 4.2689 61.889 5.92067C62.2563 6.1049 62.4337 6.42255 62.3007 6.74655L59.2923 13.1058C59.1087 13.5188 58.792 13.6522 58.4247 13.4743C56.74 12.515 55.0933 12.191 53.1363 12.191C49.0323 12.191 46.2963 15.2087 46.2963 19.7383C46.2963 24.268 49.0323 27.2856 53.1363 27.2856C55.0997 27.2856 56.74 26.968 58.4247 26.0023C58.792 25.8181 59.1087 25.9578 59.2923 26.3708L62.3007 32.7301V32.7174Z" fill="white"/>
<path d="M79.2613 3.94482C85.2337 3.94482 89.2047 7.51518 89.2047 12.8644C89.2047 16.1552 87.6087 18.582 85.145 19.3126C88.0203 20.0432 89.8887 22.7876 89.8887 26.5867C89.8887 31.9359 85.924 35.5062 79.996 35.5062H65.537C65.176 35.5062 64.8973 35.1886 64.8973 34.8646V4.63094C64.8973 4.31329 65.1697 3.94482 65.537 3.94482H79.2677H79.2613ZM77.165 16.3394C78.533 16.3394 79.445 15.5135 79.445 14.2366C79.445 12.9596 78.533 12.1338 77.165 12.1338H74.2897V16.3394H77.165ZM77.982 27.3173C79.3057 27.3173 80.2177 26.4469 80.2177 25.1192C80.2177 23.7914 79.3057 22.9211 77.982 22.9211H74.2897V27.3109H77.982V27.3173Z" fill="white"/>
<path d="M22.3627 48.7841C22.3943 48.8413 22.3627 48.9239 22.293 48.981C21.6787 49.3686 20.83 49.6354 20.184 49.6354C18.1193 49.6354 16.7513 48.3076 16.7513 46.3192C16.7513 44.3307 18.1193 43.0029 20.184 43.0029C20.8363 43.0029 21.6787 43.2634 22.293 43.6573C22.3627 43.7145 22.3943 43.797 22.3627 43.8542L21.704 45.2519C21.6597 45.3408 21.5773 45.3789 21.5013 45.3217C21.2163 45.1185 20.7857 44.9787 20.4057 44.9787C19.576 44.9787 19.025 45.5187 19.025 46.3255C19.025 47.1323 19.5697 47.6723 20.4057 47.6723C20.7793 47.6723 21.2163 47.5326 21.5013 47.3293C21.5837 47.2721 21.6597 47.3039 21.704 47.3992L22.3627 48.7968V48.7841Z" fill="white"/>
<path d="M28.2907 48.8095C28.316 48.8921 28.2907 48.9366 28.2083 48.981C27.6003 49.3813 26.7263 49.6227 25.846 49.6227C23.8257 49.6227 22.483 48.2949 22.483 46.3192C22.483 44.3434 23.8067 43.0029 25.789 43.0029C27.7713 43.0029 28.7973 44.229 28.7973 46.3065C28.7973 46.478 28.7847 46.6495 28.753 46.821C28.7403 46.91 28.6833 46.9608 28.582 46.9608H24.9213C24.9213 46.9608 24.9213 47.6787 25.8777 47.6787C26.4603 47.6787 27.1063 47.5389 27.6257 47.3039C27.708 47.2721 27.7713 47.3166 27.7967 47.3928L28.2843 48.8095H28.2907ZM26.5363 45.7537C26.5363 45.2519 26.226 44.9215 25.77 44.9215C25.257 44.9215 24.915 45.2519 24.915 45.7537H26.5363Z" fill="white"/>
<path d="M33.0533 43.1553C33.142 43.1553 33.2117 43.2252 33.2117 43.3141V44.8007C33.2117 44.8896 33.142 44.9595 33.0533 44.9595H32.7557C32.325 44.9595 31.9323 45.1564 31.7867 45.4423V49.2732C31.7867 49.3621 31.7043 49.4447 31.6157 49.4447H29.608C29.5193 49.4447 29.437 49.3621 29.437 49.2732V43.3268C29.437 43.2442 29.5193 43.168 29.608 43.168H30.8937C30.9823 43.168 31.0393 43.2506 31.0773 43.3395L31.2483 43.8414C31.5903 43.4157 32.1477 43.1553 32.7557 43.1553H33.0533Z" fill="white"/>
<path d="M37.569 43.1553C37.6703 43.1553 37.74 43.2252 37.74 43.3141L37.6133 44.4259C37.6007 44.5148 37.531 44.5974 37.4423 44.5974H36.714V49.2732C36.714 49.3621 36.6317 49.4447 36.543 49.4447H34.5353C34.4467 49.4447 34.3643 49.3621 34.3643 49.2732V44.5974H33.712C33.6297 44.5974 33.5537 44.5275 33.5537 44.4386V43.3268C33.5537 43.2252 33.636 43.1553 33.712 43.1553H34.3643V41.9101C34.3643 41.8275 34.4467 41.764 34.5353 41.7513L36.543 41.5544C36.6317 41.5417 36.714 41.637 36.714 41.7132V43.1553H37.569Z" fill="white"/>
<path d="M39.1207 49.6036C38.519 49.6036 38.12 49.2288 38.12 48.6634C38.12 48.098 38.519 47.7041 39.1207 47.7041C39.7223 47.7041 40.1213 48.0916 40.1213 48.6634C40.1213 49.2352 39.7223 49.6036 39.1207 49.6036Z" fill="white"/>
<path d="M44.751 48.6253C44.5673 48.9938 44.0227 49.2288 43.383 49.2288C41.7173 49.2288 40.609 48.0281 40.609 46.2175C40.609 44.1909 41.635 42.9902 43.383 42.9902C44.2633 42.9902 44.96 43.2316 45.2513 43.6446L45.454 43.3269C45.5237 43.2253 45.625 43.1554 45.72 43.1554H46.9297C47.031 43.1554 47.1007 43.2253 47.1007 43.3269V48.8604C47.1007 50.5884 45.5363 51.7446 43.5983 51.7446C42.471 51.7446 41.464 51.4841 40.9067 51.0267C40.837 50.9695 40.818 50.8869 40.837 50.8298L41.4197 49.4131C41.4513 49.3305 41.521 49.2987 41.5907 49.3432C42.0783 49.7434 42.832 49.9848 43.5983 49.9848C44.314 49.9848 44.751 49.6036 44.751 48.9556V48.6253ZM44.751 45.6521C44.751 45.6521 44.58 45.1375 43.9657 45.1375C43.3957 45.1375 43.0663 45.5378 43.0663 46.2239C43.0663 46.91 43.3957 47.3229 43.9657 47.3229C44.58 47.3229 44.751 46.8084 44.751 46.8084V45.6521Z" fill="white"/>
<path d="M53.3517 48.7841C53.3834 48.8413 53.3517 48.9239 53.282 48.981C52.6677 49.3686 51.819 49.6354 51.173 49.6354C49.1084 49.6354 47.7404 48.3076 47.7404 46.3192C47.7404 44.3307 49.1084 43.0029 51.173 43.0029C51.8254 43.0029 52.6677 43.2634 53.282 43.6573C53.3517 43.7145 53.3834 43.797 53.3517 43.8542L52.693 45.2519C52.6487 45.3408 52.5664 45.3789 52.4904 45.3217C52.2054 45.1185 51.7684 44.9787 51.3947 44.9787C50.565 44.9787 50.014 45.5187 50.014 46.3255C50.014 47.1323 50.5587 47.6723 51.3947 47.6723C51.7684 47.6723 52.2054 47.5326 52.4904 47.3293C52.5727 47.2721 52.6487 47.3039 52.693 47.3992L53.3517 48.7968V48.7841Z" fill="white"/>
<path d="M56.3473 43.4287C56.6893 43.1555 57.2023 42.9967 57.7407 42.9967C59.5457 42.9967 60.749 44.3244 60.749 46.3002C60.749 48.2759 59.5393 49.6164 57.7407 49.6164C56.9743 49.6164 56.246 49.3178 55.8153 48.8604L55.6443 49.2734C55.6 49.375 55.543 49.4449 55.4607 49.4449H54.1687C54.08 49.4449 53.9977 49.3623 53.9977 49.2734V41.3131C53.9977 41.2305 54.08 41.1543 54.1687 41.1543H56.1763C56.265 41.1543 56.3473 41.2369 56.3473 41.3131V43.4287ZM56.3473 47.0308C56.4867 47.4056 56.8477 47.6597 57.2467 47.6597C57.8737 47.6597 58.298 47.1134 58.298 46.2875C58.298 45.4616 57.8737 44.9597 57.2467 44.9597C56.8477 44.9597 56.4803 45.2138 56.3473 45.5887V47.0308Z" fill="white"/>
<path d="M62.2374 49.6036C61.6357 49.6036 61.2367 49.2288 61.2367 48.6634C61.2367 48.098 61.6357 47.7041 62.2374 47.7041C62.839 47.7041 63.238 48.0916 63.238 48.6634C63.238 49.2352 62.839 49.6036 62.2374 49.6036Z" fill="white"/>
<path d="M69.3433 48.7841C69.375 48.8413 69.3433 48.9239 69.2737 48.981C68.6593 49.3686 67.8107 49.6354 67.1647 49.6354C65.1 49.6354 63.732 48.3076 63.732 46.3192C63.732 44.3307 65.1 43.0029 67.1647 43.0029C67.817 43.0029 68.6593 43.2634 69.2737 43.6573C69.3433 43.7145 69.375 43.797 69.3433 43.8542L68.6847 45.2519C68.6403 45.3408 68.558 45.3789 68.482 45.3217C68.197 45.1185 67.7663 44.9787 67.3863 44.9787C66.5567 44.9787 66.0057 45.5187 66.0057 46.3255C66.0057 47.1323 66.5503 47.6723 67.3863 47.6723C67.7663 47.6723 68.197 47.5326 68.482 47.3293C68.5643 47.2721 68.6403 47.3039 68.6847 47.3992L69.3433 48.7968V48.7841Z" fill="white"/>
<path d="M79.35 43.1553C79.4387 43.1553 79.4957 43.2379 79.464 43.3141L77.6083 49.2859C77.583 49.3685 77.4943 49.4447 77.4057 49.4447H75.6387C75.55 49.4447 75.4423 49.3621 75.4107 49.2859L74.5303 46.2428L73.65 49.2859C73.6183 49.3685 73.5107 49.4447 73.422 49.4447H71.655C71.5663 49.4447 71.4713 49.3621 71.4523 49.2859L69.5967 43.3141C69.565 43.2315 69.622 43.1553 69.7107 43.1553H72.016C72.1173 43.1553 72.2123 43.2252 72.2313 43.3141L72.8267 45.8172L73.441 43.3141C73.4663 43.1997 73.5677 43.1553 73.6437 43.1553H75.4233C75.5943 43.1553 75.607 43.1997 75.626 43.3141L76.2403 45.8172L76.8357 43.3141C76.861 43.2252 76.9497 43.1553 77.051 43.1553H79.3563H79.35Z" fill="white"/>
</g>
<defs>
<clipPath id="clip0_156_158">
<rect width="95" height="54" fill="white" transform="translate(0.5)"/>
</clipPath>
</defs>
</svg>
