<svg width="29" height="25" viewBox="0 0 29 25" fill="none" xmlns="http://www.w3.org/2000/svg">
<path d="M6.86215 20.6734C5.81846 19.6707 4.95631 18.4856 4.3437 17.141C3.68576 15.7052 3.30005 14.0872 3.30005 12.4007V12.3323C3.30005 6.04241 8.38227 0.9375 14.6442 0.9375C20.9289 0.9375 26.0112 6.04241 26.0112 12.3323C26.0112 12.4235 26.0112 12.5147 25.9885 12.6058H23.5154C23.5154 10.6459 22.8802 8.84553 21.7911 7.40978C20.7474 6.04241 19.3181 4.99406 17.6391 4.42431L17.503 4.28759L17.5711 4.03691L17.3215 4.08247L17.1627 3.87738L17.0492 4.10528H16.777L16.8904 4.33316L16.7316 4.53828L16.9585 4.60666L17.0266 4.85734L17.2307 4.72059L17.4576 4.83453V4.58384C19.1366 5.13081 20.5886 6.17912 21.6323 7.54653C22.676 8.93669 23.3112 10.6915 23.3112 12.6058H22.5852C22.5852 10.4636 21.7231 8.54925 20.3164 7.18188C18.9551 5.83728 17.0719 4.99406 14.9846 4.92569L15.1207 4.78897L14.5989 4.60666L14.4854 4.05969L14.0317 4.37875L13.5325 4.10528L13.4872 4.65222L12.9653 4.88013L13.3737 5.26753L13.2149 5.8145L13.7594 5.74613L14.0997 6.20194L14.3947 5.72334L14.9392 5.74613L14.7577 5.22197C16.845 5.22197 18.7509 6.04241 20.1122 7.387C21.4735 8.70878 22.313 10.532 22.313 12.6058H20.7474C20.7474 11.4208 20.4071 10.3269 19.8399 9.41528C19.3635 8.66322 18.7282 8.02509 17.9795 7.54653L18.2517 7.27303L17.8206 7.09072L17.7526 6.63494L17.3442 6.86281L16.9585 6.61212L16.8904 7.06794L16.4367 7.22747L16.7543 7.59209L16.5955 8.02509L17.0719 8.00231L17.3215 8.38975L17.5938 8.00231L18.0475 8.04788L18.0248 7.91116C18.6601 8.34416 19.182 8.91391 19.5903 9.57481C20.1575 10.4408 20.4752 11.4663 20.4752 12.6058H18.3878C18.3878 11.7854 18.1156 11.0789 17.6618 10.5092C17.2761 10.0078 16.7543 9.62037 16.1417 9.36969L16.3005 9.18738L16.0283 9.09622L15.9829 8.77716L15.7333 8.93669L15.4837 8.77716L15.4384 9.07344L15.1434 9.16459L15.3476 9.39247L15.2569 9.68875L15.5518 9.66597L15.7106 9.91666L15.8921 9.66597L16.1871 9.71153L16.1644 9.62037C16.6862 9.84828 17.1627 10.2129 17.503 10.6459C17.9114 11.1701 18.161 11.8538 18.1837 12.6058H6.56718C6.58986 13.4491 6.74868 14.2695 6.99826 15.0215C7.29322 15.8192 7.67891 16.5484 8.17805 17.2093L8.29152 17.0726L8.38227 17.2322H8.58645L8.51838 17.4145L8.63184 17.574L8.45031 17.6196L8.40495 17.8247L8.24612 17.7107L8.06462 17.7791V17.5968L7.88312 17.5056L8.01923 17.3689L7.99655 17.2093C7.52008 16.5484 7.1344 15.842 6.86215 15.0671C6.61257 14.2923 6.45375 13.4718 6.40836 12.6058H4.50252C4.52524 12.8565 4.52524 13.1072 4.54792 13.3579C4.5706 13.6086 4.61599 13.8593 4.66135 14.0872L4.72942 13.996L4.82017 14.1783H5.02438L4.9336 14.3606L5.06974 14.5202L4.86556 14.5658L4.84285 14.7481L4.68406 14.6341L4.50252 14.7253L4.47984 14.5202L4.32102 14.4518L4.45716 14.3151L4.41177 14.1327L4.52524 14.1555C4.47984 13.8821 4.43448 13.6314 4.41177 13.3807C4.38909 13.13 4.36641 12.8793 4.36641 12.6058H3.52693C3.54962 14.2011 3.91263 15.6824 4.52524 17.0498C5.16049 18.3944 6.02264 19.6251 7.11169 20.6278H7.1344L7.3159 20.3771L7.47472 20.6506H7.76966L7.65623 20.9241L7.83773 21.152L7.5428 21.2431L7.4974 21.5394L7.24783 21.3571L6.97558 21.4938L6.9529 21.1976L6.68061 21.0608L6.90751 20.8557L6.86215 20.6734Z" fill="#958E97"/>
<path d="M9.5166 15.4775V15.4547C9.5166 15.2268 9.67542 15.0444 9.90232 15.0444H9.99307C10.22 15.0444 10.3788 15.2268 10.3788 15.4547V15.4775C10.3788 15.6826 10.22 15.8649 9.99307 15.8649H9.90232C9.67542 15.8649 9.5166 15.6826 9.5166 15.4775ZM9.5166 19.2833V16.7309C9.5166 16.503 9.67542 16.3207 9.90232 16.3207H9.99307C10.22 16.3207 10.3788 16.503 10.3788 16.7309V19.2833C10.3788 19.5112 10.22 19.6936 9.99307 19.6936H9.90232C9.67542 19.6936 9.5166 19.5112 9.5166 19.2833ZM12.3527 19.2833V15.8421H10.9687V15.4547C10.9687 15.2268 11.1502 15.0444 11.3771 15.0444H14.6442V15.4319C14.6442 15.6598 14.4627 15.8421 14.2358 15.8421H13.2829V19.2833C13.2829 19.5112 13.1014 19.6936 12.8745 19.6936H12.7384C12.5115 19.6936 12.3527 19.5112 12.3527 19.2833ZM17.0038 18.668L17.0265 18.6908C17.1626 18.7136 17.2761 18.8047 17.3441 18.9415C17.3895 19.101 17.3441 19.2377 17.2534 19.3517C17.1853 19.4201 17.1172 19.4657 17.0492 19.5112C16.7996 19.6936 16.5047 19.7847 16.1189 19.7847C15.5517 19.7847 15.1206 19.5796 14.8257 19.1922C14.6215 18.8959 14.5081 18.5085 14.5081 18.0299C14.5081 17.4829 14.6442 17.0499 14.9391 16.7309C15.2341 16.4118 15.5971 16.2523 16.0282 16.2523C16.5273 16.2523 16.9357 16.4118 17.208 16.7537C17.4349 17.0044 17.571 17.369 17.6164 17.8248C17.6164 17.9615 17.5937 18.0527 17.5029 18.1438C17.4349 18.235 17.3441 18.2578 17.2307 18.2578H15.4156C15.4156 18.5313 15.4837 18.7364 15.6198 18.8959C15.7559 19.0327 15.9374 19.101 16.1416 19.101C16.2778 19.101 16.3912 19.0782 16.4819 18.9871C16.5273 18.9643 16.5727 18.9187 16.5954 18.8503C16.6862 18.7136 16.845 18.6452 17.0038 18.668ZM16.7542 17.7336C16.7542 17.4602 16.6862 17.2778 16.55 17.1411C16.4366 17.0044 16.2778 16.936 16.0963 16.936C15.892 16.936 15.7332 17.0044 15.6198 17.1411C15.4837 17.2778 15.4383 17.4829 15.4383 17.7336H16.7542ZM20.7701 17.4146H20.7247C20.5659 17.4602 20.407 17.369 20.3163 17.2322C20.2936 17.1639 20.2482 17.1183 20.2029 17.0955C20.0894 17.0044 19.9533 16.9588 19.7945 16.9588C19.5676 16.9588 19.4088 17.0272 19.2726 17.1867C19.1365 17.3462 19.0684 17.5969 19.0684 17.9615C19.0684 18.349 19.1365 18.6452 19.2726 18.8047C19.4088 18.9643 19.5903 19.0554 19.7945 19.0554C19.976 19.0554 20.1121 19.0099 20.2255 18.8959C20.2709 18.8503 20.3163 18.782 20.3617 18.6908C20.4298 18.5313 20.6113 18.4401 20.7928 18.4629L20.8608 18.4857C20.9743 18.5085 21.0877 18.5768 21.1331 18.6908C21.2012 18.8047 21.2012 18.9415 21.1331 19.0554C21.0423 19.215 20.9289 19.3517 20.7928 19.4657C20.5432 19.6707 20.2029 19.7847 19.7718 19.7847C19.2726 19.7847 18.8869 19.6252 18.592 19.3061C18.297 18.9871 18.1609 18.5768 18.1609 18.0071C18.1609 17.4602 18.297 17.0272 18.592 16.7081C18.8869 16.4118 19.2726 16.2523 19.7718 16.2523C20.1802 16.2523 20.5205 16.3435 20.7474 16.5258C20.8608 16.5942 20.9516 16.6853 21.0197 16.7765C21.1104 16.8904 21.1104 17.0272 21.065 17.1639C21.0197 17.3006 20.9062 17.3918 20.7701 17.4146ZM22.812 15.4547V16.7765C23.107 16.4346 23.4473 16.2523 23.8557 16.2523C24.0599 16.2523 24.2414 16.2979 24.4002 16.3662C24.559 16.4346 24.6952 16.5486 24.7632 16.6625C24.854 16.7765 24.922 16.9132 24.9447 17.0499C24.9674 17.1867 24.9901 17.4146 24.9901 17.7108V19.2833C24.9901 19.5112 24.8086 19.6936 24.5817 19.6936H24.491C24.2868 19.6936 24.1053 19.5112 24.1053 19.2833V17.916C24.1053 17.5513 24.0826 17.3462 24.0599 17.2551C24.0145 17.1411 23.9691 17.0727 23.8784 17.0272C23.7876 16.9588 23.6742 16.936 23.5608 16.936C23.4019 16.936 23.2658 16.9588 23.1524 17.0499C23.0389 17.1183 22.9482 17.2322 22.9028 17.369C22.8347 17.5057 22.812 17.7336 22.812 18.0071V19.2833C22.812 19.5112 22.6305 19.6936 22.4263 19.6936H22.3356C22.1087 19.6936 21.9272 19.5112 21.9272 19.2833V15.4547C21.9272 15.2268 22.1087 15.0444 22.3356 15.0444H22.4263C22.6305 15.0444 22.812 15.2268 22.812 15.4547Z" fill="#958E97"/>
<path d="M9.58472 24.1145V20.8555C9.58472 20.6504 9.76622 20.4681 9.94772 20.4681H9.9704C10.1746 20.4681 10.3334 20.6504 10.3334 20.8555V23.4992H12.1712V23.7498C12.1712 23.9549 11.9897 24.1145 11.7855 24.1145H9.58472ZM13.2149 22.2685L13.0787 22.2457C12.9426 22.2229 12.8292 22.1317 12.7838 21.9722C12.7611 21.8355 12.8065 21.676 12.9426 21.5848C13.1241 21.4709 13.3737 21.4025 13.714 21.4025C14.0316 21.4025 14.2585 21.4481 14.4174 21.5164C14.5762 21.5848 14.6669 21.676 14.735 21.7899C14.803 21.9039 14.8257 22.109 14.8257 22.428V23.2485C14.8257 23.4763 14.8257 23.6587 14.8484 23.7498C14.8711 23.8638 14.9165 24.0005 14.9845 24.1145H14.5535C14.3946 24.1145 14.2585 24.0233 14.2131 23.8638C14.1905 23.841 14.1905 23.841 14.1905 23.841C14.077 23.9549 13.9409 24.0461 13.8048 24.0917C13.6686 24.16 13.5325 24.1828 13.3737 24.1828C13.1014 24.1828 12.8972 24.1145 12.7384 23.9549C12.5796 23.8182 12.4888 23.6359 12.4888 23.408C12.4888 23.2485 12.5342 23.1117 12.6023 22.9978C12.6703 22.8838 12.7838 22.7927 12.8972 22.7243C13.0334 22.6559 13.2149 22.6103 13.4644 22.5648C13.7821 22.4964 14.009 22.4508 14.1451 22.3824V22.3141C14.1451 22.1773 14.0997 22.0862 14.0543 22.0178C13.9863 21.9722 13.8501 21.9494 13.6686 21.9494C13.5325 21.9494 13.4417 21.9722 13.3737 22.0178C13.3056 22.0634 13.2375 22.1546 13.2149 22.2685ZM14.1451 22.8383C14.0543 22.8838 13.9182 22.9066 13.714 22.9522C13.5325 22.9978 13.3964 23.0433 13.3283 23.0661C13.2375 23.1345 13.1922 23.2257 13.1922 23.3168C13.1922 23.4308 13.2375 23.4992 13.3056 23.5903C13.3737 23.6587 13.4644 23.6815 13.5779 23.6815C13.714 23.6815 13.8274 23.6359 13.9409 23.5675C14.0316 23.4992 14.0997 23.4308 14.1224 23.3396C14.1224 23.2713 14.1451 23.1573 14.1451 22.975V22.8383ZM15.4837 24.1145V20.4453H15.824C16.0282 20.4453 16.1871 20.6048 16.1871 20.81V21.7671C16.4139 21.5164 16.6635 21.4025 16.9585 21.4025C17.2761 21.4025 17.5484 21.5164 17.7525 21.7443C17.9794 21.995 18.0702 22.3141 18.0702 22.7699C18.0702 23.2257 17.9567 23.5675 17.7525 23.8182C17.5257 24.0689 17.2761 24.1828 16.9585 24.1828C16.8223 24.1828 16.6635 24.1372 16.5274 24.0689C16.3686 23.9777 16.2551 23.8866 16.1417 23.727V23.7498C16.1417 23.9549 15.9828 24.1145 15.7787 24.1145H15.4837ZM16.1871 22.7243C16.1871 23.0206 16.2324 23.2257 16.3005 23.3396C16.4366 23.5447 16.5954 23.6359 16.7996 23.6359C16.9585 23.6359 17.0719 23.5675 17.1853 23.4308C17.2988 23.294 17.3441 23.0889 17.3441 22.7927C17.3441 22.4964 17.2988 22.2685 17.1853 22.1317C17.0719 21.995 16.9358 21.9494 16.777 21.9494C16.5954 21.9494 16.4593 21.995 16.3459 22.1317C16.2324 22.2685 16.1871 22.4736 16.1871 22.7243ZM18.3878 23.3624L18.8189 23.294C18.955 23.2712 19.0912 23.3396 19.1819 23.4536C19.2046 23.4992 19.2273 23.5447 19.2727 23.5675C19.3634 23.6359 19.4995 23.6815 19.6584 23.6815C19.8399 23.6815 19.976 23.6359 20.0668 23.5675C20.1348 23.5219 20.1575 23.4763 20.1575 23.3852C20.1575 23.3396 20.1348 23.294 20.1121 23.2485C20.0668 23.2257 19.9987 23.1801 19.8853 23.1573C19.318 23.0433 18.955 22.9294 18.7962 22.8155C18.592 22.6787 18.4786 22.4736 18.4786 22.2229C18.4786 21.995 18.5693 21.7899 18.7508 21.6304C18.9323 21.4709 19.2273 21.4025 19.5903 21.4025C19.9533 21.4025 20.2256 21.4709 20.4071 21.5848C20.5886 21.6988 20.702 21.8811 20.7701 22.109L20.3844 22.1773C20.2483 22.2001 20.1121 22.1546 20.0214 22.0634C19.9987 22.0406 19.976 22.0178 19.9533 21.995C19.8853 21.9267 19.7718 21.9039 19.613 21.9039C19.4315 21.9039 19.2954 21.9267 19.2046 21.995C19.1592 22.0178 19.1365 22.0634 19.1365 22.1317C19.1365 22.1773 19.1592 22.2229 19.2046 22.2457C19.2727 22.3141 19.4769 22.3597 19.8626 22.4508C20.2256 22.542 20.4978 22.6331 20.634 22.7699C20.7928 22.8838 20.8608 23.0661 20.8608 23.294C20.8608 23.5447 20.7701 23.7498 20.5659 23.9322C20.3617 24.0917 20.0668 24.1828 19.6584 24.1828C19.2954 24.1828 19.0231 24.1145 18.7962 23.9549C18.592 23.8182 18.4559 23.6131 18.3878 23.3624Z" fill="#958E97"/>
</svg>
