<svg width="63" height="25" viewBox="0 0 63 25" fill="none" xmlns="http://www.w3.org/2000/svg">
<g clip-path="url(#clip0_156_85)">
<mask id="mask0_156_85" style="mask-type:luminance" maskUnits="userSpaceOnUse" x="0" y="0" width="63" height="25">
<path d="M62.5 0H0.5V25H62.5V0Z" fill="white"/>
</mask>
<g mask="url(#mask0_156_85)">
<mask id="mask1_156_85" style="mask-type:luminance" maskUnits="userSpaceOnUse" x="0" y="0" width="63" height="26">
<path d="M62.5 0.15625H0.5V25.1562H62.5V0.15625Z" fill="white"/>
</mask>
<g mask="url(#mask1_156_85)">
<path d="M18.2423 12.2708L18.2991 12.242C18.3843 11.6383 18.3559 11.092 18.1288 10.7183C18.2423 11.2358 18.2991 11.7533 18.2423 12.2708Z" fill="#958E97"/>
<path d="M18.1268 10.7185C18.0984 10.6898 18.07 10.6323 18.0416 10.6035C18.07 10.6898 18.0984 10.7473 18.0984 10.8335C18.1268 10.891 18.1552 10.9485 18.1836 11.006C18.1836 10.891 18.1552 10.8048 18.1268 10.7185Z" fill="#958E97"/>
<path d="M10.9457 10.9199C13.8414 8.70612 16.7653 8.10237 17.8157 10.0574C17.9008 10.2299 17.986 10.4024 18.0428 10.6036C18.0712 10.6324 18.0996 10.6899 18.128 10.7186C18.0712 10.4599 17.9576 10.2011 17.8441 9.94237C16.7937 7.98737 13.8697 8.59112 10.9741 10.8336C9.89541 11.6386 9.01538 12.6449 8.30566 13.7949C8.30566 13.7949 8.30566 13.7949 8.33406 13.8236C9.01538 12.7024 9.89541 11.7249 10.9457 10.9199Z" fill="#958E97"/>
<path fill-rule="evenodd" clip-rule="evenodd" d="M18.1123 10.6607C18.0981 10.6392 18.0839 10.6176 18.0697 10.6032C17.0194 9.19448 13.698 10.5745 11.143 13.2482C10.9667 13.4268 10.8127 13.6054 10.6414 13.8041C10.6197 13.8293 10.5977 13.8548 10.5753 13.8807C10.4728 13.8288 10.3761 13.7769 10.2825 13.7224C9.53717 14.5485 8.53271 15.3264 7.34058 15.8931C4.3882 17.3306 1.43584 17.0431 0.782907 15.2606C0.527414 14.5706 0.640966 13.7656 1.0384 12.9606C0.86807 13.4781 0.86807 14.0531 1.01001 14.5994C1.09518 14.8869 1.20873 15.1456 1.37906 15.4044C1.37906 15.4187 1.38615 15.4259 1.39325 15.4331C1.40035 15.4403 1.40745 15.4475 1.40745 15.4619C2.25909 16.7556 5.06952 16.0369 7.65284 13.8519C8.2774 13.3344 8.81676 12.7881 9.32774 12.1844C9.35375 12.2078 9.38004 12.2312 9.40657 12.2546C9.88927 11.7124 10.4208 11.2111 11.0011 10.7757C13.8967 8.56198 16.8207 7.98698 17.871 9.94198C17.9846 10.2007 18.0981 10.4595 18.1549 10.7182C18.1407 10.7039 18.1265 10.6823 18.1123 10.6607Z" fill="#958E97"/>
<path d="M3.82222 10.1431C3.68027 10.1431 3.53833 10.1718 3.42478 10.2293V10.2581H3.39639C2.82863 10.6606 2.80024 10.6893 3.42478 10.2581C3.05573 10.4593 2.71508 10.7181 2.40281 11.0343C1.89182 11.5231 1.466 12.0981 1.12534 12.7306C1.09695 12.7881 1.06856 12.8743 1.01179 12.9318C0.841458 13.4781 0.841458 14.0531 0.983397 14.5706C1.06856 14.8581 1.18212 15.1168 1.35244 15.3756C1.12534 14.9731 1.01179 14.5131 1.01179 14.0531C1.01179 12.9031 1.97698 11.4081 2.62991 10.8331C2.91379 10.5743 3.25445 10.4018 3.65188 10.3731C3.70867 10.2868 3.76543 10.2006 3.82222 10.1431Z" fill="#958E97"/>
<path d="M17.6469 9.68329C19.8044 13.8233 14.8932 15.7783 12.3099 12.9033C11.2312 11.5233 11.0892 10.8333 10.4363 10.1145C7.54072 7.26829 3.33926 9.05079 1.18176 12.6158C1.46565 12.2708 3.31087 10.1433 5.97935 10.4883C8.0517 10.747 8.39236 13.4208 11.4299 15.002C14.8932 16.7845 21.1103 14.3695 17.6469 9.68329Z" fill="#958E97"/>
<path opacity="0.57" d="M11.5135 14.8875C8.47597 13.3062 8.13531 10.6325 6.06296 10.3737C3.50803 10.0575 1.71958 11.955 1.32214 12.4437C1.86152 11.84 3.5932 10.1725 5.9778 10.4887C8.05012 10.7475 8.39078 13.4212 11.4283 15.0025C13.5858 16.1237 16.7653 15.6062 18.0712 13.9387C16.7369 15.52 13.6142 15.98 11.5135 14.8875Z" fill="#958E97"/>
<path d="M17.7587 9.79805C17.7303 9.74055 17.702 9.7118 17.6452 9.6543C19.7459 13.708 15.0902 15.663 12.4785 13.0468C15.0618 15.7493 19.7743 13.8518 17.7587 9.79805Z" fill="#958E97"/>
<path d="M28.7468 8.99369C28.7185 8.96494 28.6617 8.96494 28.6333 8.96494C28.321 8.87869 27.5829 8.84994 27.3274 9.05119C27.2991 9.07994 27.2423 9.13744 27.2423 9.19494C26.5326 10.1437 25.8797 11.1212 25.2835 12.1562L23.4667 9.19494V9.16619C23.4383 9.10869 23.4099 9.07994 23.3815 9.02244C23.1828 8.84994 22.5299 8.84994 22.1892 8.90744C22.104 8.90744 22.0189 8.93619 21.9621 8.96494C21.8201 9.02244 21.735 9.16619 21.735 9.30994V15.5487C21.735 15.6637 21.7917 15.8937 22.1608 15.9512C22.2744 15.9799 22.4163 15.9799 22.5299 15.9799C22.7854 15.9799 23.3531 15.9799 23.3531 15.5487V11.9837C23.4667 12.1849 23.6938 12.5587 23.9493 13.0187C24.2899 13.6799 24.517 14.0824 24.659 14.2837L24.7157 14.4274C24.7725 14.5137 24.8577 14.5999 24.9428 14.6862C25.1416 14.8012 25.3687 14.8299 25.5958 14.8012C25.6525 14.7724 25.7093 14.7724 25.7377 14.7149C25.8513 14.6574 25.9364 14.5712 25.9932 14.4562L26.1636 14.1687C26.2487 14.0249 26.419 13.7087 26.7029 13.1624C26.9868 12.6162 27.2139 12.2424 27.3558 11.9837C27.5829 11.6099 27.3558 12.6449 27.3558 12.7024V15.6062C27.3558 16.0374 27.8952 16.0374 28.1791 16.0374C28.4346 16.0374 29.0023 16.0374 29.0023 15.6062V9.33869C28.9456 9.19494 28.8604 9.07994 28.7468 8.99369Z" fill="#958E97"/>
<path d="M30.7326 11.4658C30.1932 11.4658 30.1365 11.5521 30.1365 11.6671V15.6346C30.1365 15.7496 30.2216 15.8358 30.7326 15.8358C31.2436 15.8358 31.3288 15.7496 31.3288 15.6346V11.6671C31.3288 11.5808 31.2436 11.4658 30.7326 11.4658Z" fill="#958E97"/>
<path d="M30.7321 16.0946C30.4766 16.0946 29.9088 16.0946 29.9088 15.6633V11.6671C29.9088 11.2358 30.4482 11.2358 30.7321 11.2358C30.9876 11.2358 31.5555 11.2358 31.5555 11.6671V15.6346C31.527 16.0946 30.9876 16.0946 30.7321 16.0946ZM30.363 15.6058C30.6185 15.6346 30.8456 15.6346 31.1011 15.6058V11.7246C30.8456 11.6958 30.6185 11.6958 30.363 11.7246V15.6058Z" fill="#958E97"/>
<path d="M36.6949 9.22266H33.2598C32.8909 9.22266 32.7207 9.28016 32.7207 9.42391V15.6627C32.7207 15.7777 32.8056 15.8639 33.3168 15.8639C33.8277 15.8639 33.913 15.7777 33.913 15.6627V13.1039H36.3542C36.5529 13.1039 36.6664 12.8739 36.6664 12.5577C36.6664 12.2127 36.5529 12.0114 36.3542 12.0114H33.913V10.3727H36.6949C36.8936 10.3727 37.0071 10.1427 37.0071 9.82641C37.0071 9.45266 36.8936 9.22266 36.6949 9.22266Z" fill="#958E97"/>
<path d="M33.3441 16.0944C33.0884 16.0944 32.5208 16.0944 32.5208 15.6632V9.42441C32.5208 9.02191 32.9749 9.02191 33.2871 8.99316H36.7222C36.9776 8.99316 37.2616 9.19441 37.2616 9.76941C37.2616 10.3444 36.9776 10.5457 36.7222 10.5457H34.1672V11.7244H36.3815C36.6369 11.7244 36.9209 11.9257 36.9209 12.5007C36.9209 13.0757 36.6369 13.2769 36.3815 13.2769H34.1672V15.6344C34.139 16.0944 33.5996 16.0944 33.3441 16.0944ZM32.9749 15.6057C33.2303 15.6344 33.4576 15.6344 33.713 15.6057V12.8744H36.3815C36.41 12.8744 36.4667 12.7594 36.4667 12.5582C36.4667 12.3569 36.41 12.2419 36.3815 12.2419H33.713V10.1432H36.7222C36.7507 10.1432 36.8074 10.0569 36.8074 9.82691C36.8074 9.59691 36.7222 9.51066 36.7222 9.51066H33.2871C33.1736 9.51066 33.0602 9.51066 32.9749 9.53941V15.6057Z" fill="#958E97"/>
<path d="M45.6388 9.22334C45.1279 9.22334 45.0427 9.33838 45.0427 9.42463V13.5359L42.2322 9.33834V9.30963C42.0902 9.16588 41.3806 9.19459 41.2101 9.28084C41.1534 9.30959 41.0967 9.36713 41.0967 9.42463V15.6346C41.0967 15.6921 41.0967 15.8359 41.6928 15.8359C42.2889 15.8359 42.2889 15.6921 42.2889 15.6346V11.5234L45.0994 15.7209C45.1561 15.8071 45.4116 15.8359 45.6388 15.8359C45.7808 15.8359 45.951 15.8358 46.093 15.7783C46.2064 15.7496 46.2349 15.6634 46.2349 15.6059V9.42463C46.2349 9.33838 46.1782 9.22334 45.6388 9.22334Z" fill="#958E97"/>
<path d="M45.6382 16.0944C45.1273 16.0944 44.9853 15.9794 44.9001 15.8644L42.5155 12.2707V15.6344C42.5155 16.0657 41.9762 16.0657 41.6922 16.0657C41.4368 16.0657 40.8691 16.0657 40.8691 15.6344V9.42441C40.8691 9.25191 40.9826 9.13691 41.1246 9.07941C41.2948 9.02191 42.1466 8.93566 42.4021 9.16566L42.4303 9.22316L44.8151 12.8169V9.42441C44.8151 8.99316 45.3827 8.99316 45.6382 8.99316C45.8936 8.99316 46.4615 8.99316 46.4615 9.42441V15.6344C46.4615 15.8069 46.3196 15.9794 46.1494 16.0082C46.0074 16.0657 45.8087 16.0944 45.6382 16.0944ZM45.2693 15.5769C45.3827 15.6057 45.5247 15.6344 45.6382 15.6344C45.7802 15.6344 45.8936 15.6344 46.0074 15.6057V9.48191C45.7519 9.45316 45.5247 9.45316 45.2693 9.48191V14.2832L42.0614 9.48191C41.806 9.42441 41.5502 9.42441 41.2948 9.48191V15.6057C41.5502 15.6344 41.7774 15.6344 42.0329 15.6057V10.8044L45.2693 15.5769Z" fill="#958E97"/>
<path d="M48.3906 9.22266C47.8794 9.22266 47.7942 9.30891 47.7942 9.42391V15.6627C47.7942 15.7777 47.8794 15.8639 48.3906 15.8639C48.9015 15.8639 48.9868 15.7777 48.9868 15.6627V9.42391C48.9868 9.30891 48.9297 9.22266 48.3906 9.22266Z" fill="#958E97"/>
<path d="M48.39 16.0944C48.1346 16.0944 47.5667 16.0944 47.5667 15.6632V9.42441C47.5667 8.99316 48.106 8.99316 48.39 8.99316C48.6454 8.99316 49.2131 8.99316 49.2131 9.42441V15.6632C49.2131 16.0944 48.674 16.0944 48.39 16.0944ZM48.0208 15.6057C48.2762 15.6344 48.5035 15.6344 48.7589 15.6057V9.48191C48.6454 9.45316 48.5035 9.45316 48.39 9.45316C48.2762 9.45316 48.1346 9.45316 48.0208 9.48191V15.6057Z" fill="#958E97"/>
<path d="M38.9366 9.22266C38.4257 9.22266 38.3405 9.30891 38.3405 9.42391V15.6627C38.3405 15.7777 38.4257 15.8639 38.9366 15.8639C39.4478 15.8639 39.533 15.7777 39.533 15.6627V9.42391C39.533 9.30891 39.4478 9.22266 38.9366 9.22266Z" fill="#958E97"/>
<path d="M38.9375 16.0944C38.6817 16.0944 38.1141 16.0944 38.1141 15.6632V9.42441C38.1141 8.99316 38.6535 8.99316 38.9375 8.99316C39.1929 8.99316 39.7605 8.99316 39.7605 9.42441V15.6632C39.7323 16.0944 39.1929 16.0944 38.9375 16.0944ZM38.5683 15.6057C38.8237 15.6344 39.051 15.6344 39.3064 15.6057V9.48191C39.051 9.45316 38.8237 9.45316 38.5683 9.48191V15.6057Z" fill="#958E97"/>
<path d="M55.3179 9.22266H50.5204C50.4069 9.22266 50.3217 9.30891 50.3217 9.82641C50.3217 10.3439 50.4069 10.4302 50.5204 10.4302H52.3373V15.6627C52.3373 15.7777 52.4222 15.8639 52.9334 15.8639C53.4443 15.8639 53.5295 15.7777 53.5295 15.6627V10.4302H55.3464C55.4599 10.4302 55.5452 10.3439 55.5452 9.82641C55.5166 9.30891 55.4032 9.22266 55.3179 9.22266Z" fill="#958E97"/>
<path d="M52.9048 16.0944C52.6494 16.0944 52.0815 16.0944 52.0815 15.6632V10.6607H50.4918C50.0662 10.6607 50.0662 10.1144 50.0662 9.82691C50.0662 9.53941 50.0662 8.99316 50.4918 8.99316H55.2894C55.7153 8.99316 55.7153 9.53941 55.7153 9.82691C55.7153 10.1144 55.7153 10.6607 55.2894 10.6607H53.6997V15.6632C53.7282 16.0944 53.1888 16.0944 52.9048 16.0944ZM52.5641 15.6057C52.8196 15.6344 53.0468 15.6344 53.3023 15.6057V10.2007H55.2611C55.2894 9.94191 55.2894 9.71191 55.2611 9.45316H50.577C50.5485 9.71191 50.5485 9.94191 50.577 10.2007H52.5359V15.6057H52.5641Z" fill="#958E97"/>
<path d="M62.1602 9.28058C61.933 9.19433 61.1099 9.19433 60.9679 9.36683L59.4632 11.7243L57.9588 9.36683C57.8168 9.16558 56.9934 9.19433 56.7665 9.25183C56.6527 9.28058 56.6245 9.36683 56.6245 9.42433V9.45308L58.8671 12.9893V15.5768C58.8671 15.6343 58.8671 15.8068 59.4632 15.8068C60.0593 15.8068 60.0593 15.6343 60.0593 15.5768V12.9893L62.3022 9.45308V9.42433C62.3022 9.39558 62.2736 9.33808 62.1602 9.28058Z" fill="#958E97"/>
<path d="M59.4629 16.0951C59.2642 16.0951 58.6396 16.0951 58.6396 15.6351V13.1051L56.3967 9.56886V9.48261C56.3967 9.31011 56.5387 9.13761 56.7092 9.10886C56.9361 9.02261 57.9015 8.96511 58.1569 9.28136L59.4629 11.3226L60.7687 9.25261C61.0241 8.93636 62.0177 8.99386 62.2164 9.08011C62.3869 9.13761 62.5003 9.28136 62.5003 9.45386V9.54011L60.2578 13.0764V15.6064C60.286 16.0951 59.6617 16.0951 59.4629 16.0951ZM59.0937 15.5776C59.3492 15.6351 59.5764 15.6351 59.8318 15.5776V12.9614L62.0462 9.48261C61.8189 9.42511 61.2795 9.45386 61.1376 9.54011L59.4629 12.1851L57.788 9.56886C57.6742 9.48261 57.1348 9.48261 56.8794 9.51136L59.0655 12.9901L59.0937 15.5776Z" fill="#958E97"/>
<path d="M30.477 9.05127H30.9028C31.2719 9.05127 31.5558 9.33877 31.5558 9.71252V10.1725C31.5558 10.5463 31.2719 10.8338 30.9028 10.8338H30.477C30.108 10.8338 29.8241 10.5463 29.8241 10.1725V9.71252C29.8241 9.33877 30.108 9.05127 30.477 9.05127Z" fill="#958E97"/>
</g>
</g>
</g>
<defs>
<clipPath id="clip0_156_85">
<rect width="62" height="25" fill="white" transform="translate(0.5)"/>
</clipPath>
</defs>
</svg>
