<svg width="57" height="25" viewBox="0 0 57 25" fill="none" xmlns="http://www.w3.org/2000/svg">
<g clip-path="url(#clip0_156_47)">
<mask id="mask0_156_47" style="mask-type:luminance" maskUnits="userSpaceOnUse" x="0" y="0" width="57" height="25">
<path d="M56.5 0H0.5V25H56.5V0Z" fill="white"/>
</mask>
<g mask="url(#mask0_156_47)">
<path d="M46.1829 9.58016C46.751 9.1286 47.5425 9.19097 48.2216 9.28825C48.1949 9.66122 48.1731 10.0354 48.1591 10.4097C47.8234 10.3348 47.3076 10.2475 47.1365 10.6342C47.0307 10.9847 47.088 11.3577 47.0777 11.7169C47.4059 11.7182 47.7354 11.7182 48.0658 11.7194C48.0645 12.0512 48.0645 12.383 48.0645 12.7148C47.7354 12.7161 47.4059 12.7161 47.0777 12.7173C47.0764 13.7975 47.0764 14.8778 47.0777 15.958C46.6309 15.9605 46.1854 15.9593 45.7399 15.9568C45.7427 14.8765 45.7412 13.7975 45.7412 12.7173C45.4425 12.7161 45.1451 12.7161 44.8464 12.7148C44.8476 12.383 44.8476 12.0512 44.8476 11.7194C45.1451 11.7182 45.4425 11.7182 45.7412 11.7169C45.7682 11.0022 45.5946 10.1328 46.1829 9.58016ZM15.9132 9.34813H17.2561C17.26 10.6928 17.2523 12.0363 17.26 13.3797C17.754 12.8283 18.2416 12.2708 18.7344 11.7182C19.2871 11.7182 19.8399 11.7194 20.3939 11.7169C19.799 12.3431 19.2297 12.9918 18.6527 13.6341C19.2578 14.4 19.822 15.1971 20.4322 15.9605C19.868 15.9593 19.3037 15.958 18.7408 15.9605C18.2404 15.247 17.7629 14.5185 17.26 13.8075C17.2536 14.5248 17.2587 15.242 17.2561 15.9593H15.9132C15.9119 13.7551 15.9119 11.5523 15.9132 9.34813ZM0.5 9.72235C1.75486 9.78972 3.05567 9.55022 4.2735 9.92941C5.17476 10.2313 5.45432 11.4375 4.89902 12.151C4.69477 12.4154 4.38074 12.5626 4.06288 12.6562C4.38584 12.751 4.7318 12.8371 4.98199 13.0728C5.63433 13.6516 5.65219 14.7842 4.99095 15.363C4.51094 15.8046 3.82288 15.9368 3.18461 15.9593C2.28974 15.963 1.39487 15.9568 0.5 15.9593V9.72235ZM1.90422 10.8463V12.2159C2.38165 12.1972 2.87568 12.2795 3.34034 12.1485C3.87904 12.0076 3.96077 11.1481 3.42205 10.9523C2.94206 10.7627 2.40846 10.8699 1.90422 10.8463ZM1.90422 13.341V14.8354C2.46463 14.8054 3.04674 14.9152 3.5931 14.7643C4.13054 14.6071 4.2735 13.7913 3.768 13.5144C3.19609 13.2213 2.52207 13.3759 1.90422 13.341ZM23.0364 9.72235C24.6985 9.72235 26.3605 9.7211 28.0239 9.7236C28.0226 10.139 28.0226 10.5531 28.0239 10.9685C27.4201 10.971 26.8175 10.9648 26.2137 10.9772C26.2239 12.6375 26.2163 14.2978 26.2176 15.9593H24.8312C24.8312 14.2965 24.8299 12.6338 24.8325 10.971C24.2325 10.9685 23.6338 10.9697 23.0364 10.9697C23.0351 10.5543 23.0351 10.1377 23.0364 9.72235Z" fill="#958E97"/>
<path d="M5.99042 12.2506C6.81508 11.6107 7.98825 11.3911 8.9763 11.7716C9.59031 12.0136 9.86095 12.6822 9.89032 13.2872C9.93882 14.1765 9.90052 15.0672 9.91328 15.9578C9.49841 15.959 9.08224 15.959 8.66737 15.959C8.66992 15.8368 8.6763 15.5911 8.67885 15.4676C8.10824 16.1848 6.9338 16.2871 6.20617 15.7482C5.51043 15.2218 5.59468 14.0094 6.37467 13.599C7.08189 13.2223 7.9193 13.2136 8.70439 13.2086C8.64693 12.9054 8.47461 12.6061 8.15164 12.5175C7.62188 12.3242 7.09337 12.6186 6.71297 12.9616C6.47426 12.7221 6.23296 12.4863 5.99042 12.2506ZM7.24146 14.315C6.95041 14.4784 6.9389 14.9723 7.25804 15.1096C7.65377 15.3216 8.17846 15.1969 8.48864 14.8963C8.70057 14.6792 8.65589 14.3587 8.68395 14.0867C8.19887 14.0917 7.66401 14.0343 7.24146 14.315ZM12.0694 12.2618C12.6949 11.3001 14.5038 11.3462 14.8485 12.515C15.1089 13.6427 14.934 14.8127 14.9838 15.959H13.6485C13.6447 15.2081 13.6562 14.4584 13.646 13.7075C13.6358 13.3869 13.6217 12.9903 13.3128 12.7957C12.9847 12.6248 12.5098 12.6984 12.3017 13.0165C12.146 13.2585 12.1485 13.5553 12.1358 13.8322C12.1268 14.5407 12.1371 15.2493 12.1332 15.959H10.8069C10.8056 14.5445 10.8056 13.1312 10.8069 11.7179C11.2333 11.7179 11.6596 11.7179 12.0873 11.7192C12.0822 11.8552 12.0732 12.1258 12.0694 12.2618ZM29.8685 11.7317C30.2029 11.5558 30.5935 11.5957 30.9587 11.5907C30.9561 11.9961 30.9561 12.4015 30.9689 12.8069C30.5412 12.7046 30.0446 12.6285 29.6617 12.8942C29.3387 13.0963 29.2787 13.4967 29.2621 13.8422C29.2442 14.547 29.2634 15.253 29.2557 15.959H27.9128C27.9115 14.5445 27.9115 13.1312 27.9128 11.7179C28.3609 11.7179 28.8102 11.7179 29.2596 11.7192C29.2557 11.935 29.2506 12.1508 29.2442 12.3678C29.4242 12.1333 29.5902 11.8651 29.8685 11.7317ZM31.3952 12.2543C32.2134 11.6082 33.3907 11.3936 34.3759 11.7703C34.9913 12.0098 35.2645 12.6797 35.2937 13.2847C35.3423 14.1753 35.3027 15.0672 35.3167 15.9578C34.9008 15.959 34.4858 15.959 34.0711 15.959C34.0735 15.8368 34.0798 15.5911 34.0823 15.4676C33.5145 16.1836 32.3438 16.2871 31.6148 15.7532C30.914 15.2293 30.9957 14.0119 31.7782 13.599C32.4853 13.2223 33.3228 13.2123 34.1081 13.2086C34.0505 12.9017 33.8732 12.5998 33.545 12.5138C33.0189 12.3304 32.4943 12.6161 32.1216 12.9628C31.8802 12.7258 31.6391 12.4888 31.3952 12.2543ZM32.6449 14.315C32.4075 14.4547 32.3643 14.7803 32.5083 14.9998C32.8913 15.3503 33.5359 15.2405 33.8884 14.9012C34.104 14.6855 34.0595 14.3612 34.0875 14.0867C33.6025 14.0905 33.0674 14.0343 32.6449 14.315ZM37.3452 12.2606C37.9733 11.2988 39.7834 11.3475 40.1256 12.5188C40.3835 13.6452 40.2099 14.8139 40.2597 15.959H38.9244C38.9194 15.2069 38.9322 14.4547 38.9219 13.7038C38.9091 13.4044 38.9014 13.0589 38.6562 12.8418C38.332 12.6061 37.7935 12.6797 37.5739 13.0215C37.422 13.2622 37.4233 13.5553 37.4118 13.8285C37.4027 14.5383 37.413 15.248 37.409 15.959H36.0815C36.0815 14.5445 36.0815 13.1312 36.0827 11.7179C36.5092 11.7179 36.9355 11.7179 37.3632 11.7192C37.3579 11.8539 37.3505 12.1246 37.3452 12.2606ZM41.7393 11.8514C42.602 11.4148 43.737 11.5246 44.4877 12.1321C44.2133 12.4003 43.9386 12.6672 43.6642 12.9341C43.3692 12.6784 42.9418 12.4564 42.5551 12.6597C42.3429 12.7371 42.2869 13.0975 42.5308 13.1724C43.0808 13.4119 43.755 13.3682 44.2347 13.7649C44.8859 14.2826 44.7226 15.4239 43.9796 15.7882C43.0195 16.2622 41.7608 16.1898 40.9043 15.5337C41.1737 15.2368 41.4431 14.9399 41.7163 14.6443C42.0035 14.8963 42.3494 15.147 42.7616 15.0896C43.0208 15.1058 43.4601 14.9324 43.2519 14.6144C42.6736 14.2277 41.8476 14.3674 41.3333 13.8559C40.7665 13.2734 41.0219 12.2082 41.7393 11.8514ZM49.1497 12.1009C49.9971 11.4622 51.3579 11.3612 52.1609 12.1283C52.7228 12.6659 52.8096 13.483 52.7726 14.2127C51.7294 14.2202 50.6866 14.1965 49.6437 14.2264C49.7815 14.6718 50.1415 15.1121 50.6623 15.0921C51.0695 15.1245 51.3863 14.8538 51.6467 14.5857C51.9606 14.8077 52.2748 15.031 52.5875 15.258C51.731 16.2509 50.074 16.3632 49.0756 15.515C48.0468 14.6668 48.0798 12.9054 49.1497 12.1009ZM49.6285 13.3283C50.2411 13.3458 50.8539 13.3408 51.4678 13.337C51.399 13.0913 51.3172 12.8206 51.0646 12.6996C50.5167 12.3865 49.7573 12.7233 49.6285 13.3283ZM55.4839 11.6943C55.8006 11.5583 56.154 11.5982 56.4897 11.5907C56.4872 11.9961 56.4872 12.4015 56.5 12.8069C55.9232 12.6223 55.0561 12.6622 54.8673 13.347C54.7002 14.2052 54.8265 15.0896 54.787 15.959H53.4439C53.4427 14.5445 53.4427 13.1312 53.4439 11.7179C53.8919 11.7179 54.3415 11.7179 54.7907 11.7192C54.787 11.935 54.7817 12.1508 54.7755 12.3678C54.9721 12.1096 55.161 11.8115 55.4839 11.6943Z" fill="#958E97"/>
</g>
</g>
<defs>
<clipPath id="clip0_156_47">
<rect width="56" height="25" fill="white" transform="translate(0.5)"/>
</clipPath>
</defs>
</svg>
