<svg width="26" height="25" viewBox="0 0 26 25" fill="none" xmlns="http://www.w3.org/2000/svg">
<g clip-path="url(#clip0_156_134)">
<mask id="mask0_156_134" style="mask-type:luminance" maskUnits="userSpaceOnUse" x="0" y="0" width="26" height="25">
<path d="M25.5 0.027832H0.5V24.7192H25.5V0.027832Z" fill="white"/>
</mask>
<g mask="url(#mask0_156_134)">
<path fill-rule="evenodd" clip-rule="evenodd" d="M13 0.027832C19.9167 0.027832 25.5 5.54225 25.5 12.3735C25.5 19.2048 19.9167 24.7192 13 24.7192C6.08334 24.7192 0.5 19.2048 0.5 12.3735C0.5 5.54225 6.08334 0.027832 13 0.027832ZM13 1.1801C19.25 1.1801 24.3333 6.20067 24.3333 12.3735C24.3333 18.5464 19.25 23.5669 13 23.5669C6.75 23.5669 1.66667 18.5464 1.66667 12.3735C1.66667 6.20067 6.75 1.1801 13 1.1801ZM13 2.33236C18.625 2.33236 23.1667 6.81796 23.1667 12.3735C23.1667 17.9291 18.625 22.4147 13 22.4147C7.375 22.4147 2.83333 17.9291 2.83333 12.3735C2.83333 6.81796 7.375 2.33236 13 2.33236ZM8.20834 16.3241H6.70834V10.7274C6.16666 11.2624 5.54166 11.6328 4.79166 11.8797V10.5217C5.20834 10.3982 5.625 10.1513 6.08334 9.82206C6.54166 9.45169 6.83334 9.04018 7 8.58749H8.20834V16.3241ZM11.75 12.1677C11.375 12.0031 11.0833 11.7562 10.9167 11.5093C10.7083 11.2213 10.625 10.892 10.625 10.5628C10.625 9.98669 10.8333 9.53401 11.25 9.12249C11.6667 8.75212 12.2083 8.58749 12.9583 8.58749C13.7083 8.58749 14.2917 8.75212 14.7083 9.12249C15.125 9.53401 15.2917 9.98669 15.2917 10.5628C15.2917 10.9332 15.2083 11.2213 15.0417 11.5093C14.8333 11.7974 14.5833 12.0031 14.25 12.1677C14.6667 12.3324 15 12.5793 15.2083 12.9085C15.4583 13.2377 15.5417 13.6081 15.5417 14.0608C15.5417 14.7603 15.3333 15.3365 14.875 15.7892C14.4167 16.2418 13.7917 16.4476 13.0417 16.4476C12.3333 16.4476 11.75 16.283 11.2917 15.9126C10.7083 15.4599 10.4583 14.8838 10.4583 14.1019C10.4583 13.6904 10.5417 13.32 10.75 12.9497C10.9583 12.6204 11.2917 12.3324 11.75 12.1677ZM12.0417 10.6863C12.0417 10.9743 12.125 11.1801 12.2917 11.3447C12.4583 11.5093 12.7083 11.5916 12.9583 11.5916C13.25 11.5916 13.5 11.5093 13.6667 11.3447C13.8333 11.1801 13.9167 10.9743 13.9167 10.6863C13.9167 10.3982 13.8333 10.1513 13.6667 9.98669C13.5 9.82206 13.25 9.73978 13 9.73978C12.7083 9.73978 12.4583 9.82206 12.2917 9.98669C12.125 10.1513 12.0417 10.3982 12.0417 10.6863ZM11.9167 13.9785C11.9167 14.39 12 14.7192 12.2083 14.925C12.4583 15.1719 12.7083 15.2953 13 15.2953C13.3333 15.2953 13.5833 15.1719 13.7917 14.925C13.9583 14.7192 14.0833 14.39 14.0833 13.9785C14.0833 13.6081 13.9583 13.32 13.7917 13.1143C13.5833 12.9085 13.2917 12.785 13 12.785C12.625 12.785 12.375 12.9085 12.1667 13.1554C12 13.4023 11.9167 13.6904 11.9167 13.9785ZM18.5417 15.213V13.1966H16.5V11.8385H18.5417V9.82206H19.9167V11.8385H21.9583V13.1966H19.9167V15.213H18.5417Z" fill="#958E97"/>
</g>
</g>
<defs>
<clipPath id="clip0_156_134">
<rect width="25" height="25" fill="white" transform="translate(0.5)"/>
</clipPath>
</defs>
</svg>
