<svg width="131" height="40" viewBox="0 0 131 40" fill="none" xmlns="http://www.w3.org/2000/svg">
<path fill-rule="evenodd" clip-rule="evenodd" d="M7.95495 0H123.195C125.13 0 126.85 0.851064 128.14 1.91489C129.215 3.19149 130.075 4.89362 130.075 6.80851V33.1915C130.075 35.1064 129.215 36.8085 128.14 38.0851C126.85 39.3617 125.13 40 123.195 40H7.95495C6.01995 40 4.29995 39.3617 3.00995 38.0851C1.93495 36.8085 1.07495 35.1064 1.07495 33.1915V6.80851C1.07495 4.89362 1.93495 3.19149 3.00995 1.91489C4.29995 0.851064 6.01995 0 7.95495 0ZM123.195 1.70213H7.95495C6.44995 1.70213 5.15995 2.34043 4.29995 3.19149C3.43995 4.04255 2.79495 5.31915 2.79495 6.80851V33.1915C2.79495 34.6809 3.43995 35.9574 4.29995 36.8085C5.15995 37.8723 6.44995 38.2979 7.95495 38.2979H123.195C124.7 38.2979 125.99 37.8723 126.85 36.8085C127.71 35.9574 128.355 34.6809 128.355 33.1915V6.80851C128.355 5.31915 127.71 4.04255 126.85 3.19149C125.99 2.34043 124.7 1.70213 123.195 1.70213ZM47.945 15.3191H49.235V11.4894H50.31C51.385 11.4894 51.815 12.1277 52.03 13.1915C52.245 14.4681 52.46 15.1064 52.675 15.3191H53.965C53.75 15.1064 53.535 14.2553 53.105 12.9787C52.89 12.1277 52.675 11.4894 51.815 11.0638C52.89 10.8511 53.535 10 53.535 8.7234C53.535 8.08511 53.32 7.44681 52.89 7.02128C52.245 6.59574 51.6 6.38298 50.31 6.38298C49.45 6.38298 48.59 6.38298 47.945 6.59574V15.3191ZM49.235 7.44681C49.45 7.23404 49.665 7.23404 50.31 7.23404C51.6 7.23404 52.46 7.87234 52.46 8.93617C52.46 10 51.6 10.6383 50.31 10.6383H49.235V7.44681ZM59.985 10.2128H56.33V7.44681H60.2V6.38298H55.255V15.3191H60.415V14.4681H56.33V11.2766H59.985V10.2128ZM61.275 14.8936C61.92 15.3191 62.78 15.5319 63.64 15.5319C65.79 15.5319 66.865 14.2553 66.865 12.9787C66.865 11.7021 66.005 10.8511 64.5 10.4255C63.21 9.78723 62.78 9.3617 62.78 8.51064C62.78 8.08511 63.21 7.23404 64.5 7.23404C65.36 7.23404 65.79 7.44681 66.22 7.65957L66.435 6.80851C66.005 6.59574 65.36 6.38298 64.5 6.38298C62.78 6.38298 61.49 7.44681 61.49 8.7234C61.49 10 62.565 10.8511 63.855 11.2766C65.145 11.7021 65.575 12.1277 65.575 12.9787C65.575 14.0426 64.93 14.6809 63.855 14.6809C62.995 14.6809 62.135 14.2553 61.705 14.0426L61.275 14.8936ZM68.3699 15.3191H69.66V11.9149H70.52C71.595 11.9149 72.67 11.4894 73.3149 10.8511C73.7449 10.4255 73.96 9.78723 73.96 8.93617C73.96 8.29787 73.7449 7.65957 73.3149 7.23404C72.67 6.59574 71.81 6.38298 70.735 6.38298C69.66 6.38298 69.015 6.38298 68.3699 6.59574V15.3191ZM69.66 7.44681C69.875 7.44681 70.305 7.23404 70.735 7.23404C72.025 7.23404 72.8849 7.87234 72.8849 9.14894C72.8849 10.2128 72.025 11.0638 70.52 11.0638C70.09 11.0638 69.875 10.8511 69.66 10.8511V7.44681ZM79.335 6.38298C76.755 6.38298 75.035 8.08511 75.035 11.0638C75.035 13.8298 76.755 15.5319 79.1199 15.5319C81.485 15.5319 83.42 13.8298 83.42 10.8511C83.42 8.08511 81.7 6.38298 79.335 6.38298ZM79.1199 7.23404C81.055 7.23404 82.13 9.14894 82.13 10.8511C82.13 12.9787 81.055 14.6809 79.1199 14.6809C77.4 14.6809 76.325 12.9787 76.325 11.0638C76.325 8.93617 77.185 7.23404 79.1199 7.23404ZM86 15.3191V11.4894C86 10 86 8.93617 85.785 7.87234C86.43 8.93617 86.86 9.78723 87.505 10.8511L90.515 15.3191H91.59V6.38298H90.515V10.2128C90.515 11.7021 90.515 12.766 90.7299 13.8298C90.2999 12.9787 89.655 12.1277 89.01 11.0638L86.215 6.38298H84.9249V15.3191H86ZM93.31 14.8936C93.74 15.3191 94.6 15.5319 95.46 15.5319C97.61 15.5319 98.685 14.2553 98.685 12.9787C98.685 11.7021 97.825 10.8511 96.32 10.4255C95.03 9.78723 94.6 9.3617 94.6 8.51064C94.6 8.08511 95.03 7.23404 96.32 7.23404C97.18 7.23404 97.61 7.44681 98.04 7.65957L98.255 6.80851C97.825 6.59574 97.18 6.38298 96.32 6.38298C94.6 6.38298 93.31 7.44681 93.31 8.7234C93.31 10 94.385 10.8511 95.89 11.2766C96.965 11.7021 97.395 12.1277 97.395 12.9787C97.395 14.0426 96.75 14.6809 95.6749 14.6809C94.8149 14.6809 93.955 14.2553 93.525 14.0426L93.31 14.8936ZM100.19 6.38298V15.3191H101.48V6.38298H100.19ZM103.415 15.3191C103.845 15.5319 104.49 15.5319 105.35 15.5319C106.855 15.5319 107.715 15.3191 108.36 14.6809C108.79 14.2553 109.22 13.617 109.22 12.766C109.22 11.4894 108.145 10.8511 107.285 10.6383C108.36 10.2128 108.79 9.57447 108.79 8.7234C108.79 7.87234 108.575 7.44681 108.145 7.02128C107.5 6.59574 106.855 6.38298 105.565 6.38298C104.705 6.38298 104.06 6.38298 103.415 6.59574V15.3191ZM104.705 7.44681C104.92 7.23404 105.135 7.23404 105.78 7.23404C106.855 7.23404 107.715 7.65957 107.715 8.7234C107.715 9.57447 106.855 10.2128 105.78 10.2128H104.705V7.44681ZM104.705 11.0638H105.565C106.855 11.0638 107.93 11.7021 107.93 12.766C107.93 14.0426 106.855 14.6809 105.565 14.6809C105.135 14.6809 104.92 14.4681 104.705 14.4681V11.0638ZM110.725 15.3191H115.885V14.4681H112.015V6.38298H110.725V15.3191ZM121.69 10.2128H118.25V7.44681H121.905V6.38298H117.175V15.3191H122.12V14.4681H118.25V11.2766H121.69V10.2128ZM58.48 24.6809H53.32V27.4468H55.47V30.6383C55.255 30.8511 54.61 30.8511 53.965 30.8511C51.385 30.8511 49.665 28.9362 49.665 25.9574C49.665 22.5532 51.6 20.8511 54.18 20.8511C55.685 20.8511 56.545 21.2766 57.405 21.7021L58.05 18.9362C57.405 18.5106 55.9 18.0851 54.18 18.0851C49.665 18.0851 46.44 21.0638 46.44 25.9574C46.44 28.2979 47.085 30.2128 48.375 31.7021C49.665 32.9787 51.385 33.617 53.965 33.617C55.685 33.617 57.62 33.1915 58.48 32.766V24.6809ZM67.9399 29.5745L69.015 33.4043H72.24L68.155 18.2979H64.07L59.985 33.4043H62.995L64.07 29.5745H67.9399ZM64.5 27.0213L65.36 23.8298C65.575 22.9787 65.79 21.7021 66.005 20.8511C66.22 21.7021 66.435 22.766 66.65 23.8298L67.5099 27.0213H64.5ZM85.785 33.4043H88.795L88.15 18.2979H84.0649L82.56 23.4043C82.13 25.1064 81.7 27.0213 81.27 28.7234C81.055 27.0213 80.625 25.1064 80.195 23.4043L78.905 18.2979H74.6049L73.7449 33.4043H76.755L76.97 27.6596C76.97 25.7447 77.185 23.4043 77.185 21.4894C77.615 23.4043 78.045 25.5319 78.475 27.4468L79.9799 33.1915H82.345L84.0649 27.234C84.4949 25.5319 85.14 23.4043 85.57 21.4894V27.6596L85.785 33.4043ZM91.16 18.2979V33.4043H94.385V18.2979H91.16ZM99.76 33.4043V28.9362V22.3404C100.405 24.0426 101.265 25.9574 102.125 27.6596L105.135 33.4043H108.36V18.2979H105.565V22.766C105.565 24.8936 105.565 27.0213 105.78 29.1489C105.135 27.4468 104.275 25.5319 103.415 23.8298L100.62 18.2979H96.965V33.4043H99.76ZM122.335 24.6809H117.39V27.4468H119.325V30.6383C119.11 30.8511 118.68 30.8511 117.82 30.8511C115.455 30.8511 113.52 28.9362 113.52 25.9574C113.52 22.5532 115.455 20.8511 118.035 20.8511C119.54 20.8511 120.615 21.2766 121.26 21.7021L121.905 18.9362C121.26 18.5106 119.97 18.0851 118.25 18.0851C113.735 18.0851 110.295 21.0638 110.295 25.9574C110.295 28.2979 110.94 30.2128 112.23 31.7021C113.52 32.9787 115.24 33.617 117.82 33.617C119.54 33.617 121.475 33.1915 122.335 32.766V24.6809ZM24.295 33.1915H18.92V22.766H17.415C15.265 22.9787 14.19 23.8298 13.545 27.0213C12.9 30.2128 12.255 32.5532 11.825 33.1915H6.44995C6.87995 32.1277 7.73995 28.7234 8.38495 25.7447C9.02995 23.4043 9.88995 21.4894 11.61 20.8511V20.6383C9.45995 20 7.30995 17.6596 7.30995 14.2553C7.30995 11.7021 8.16995 10 9.45995 8.7234C11.18 7.23404 13.76 6.59574 17.2 6.59574C19.995 6.59574 22.575 6.80851 24.295 7.23404V9.57447C26.66 7.65957 29.67 6.59574 33.325 6.59574C36.335 6.59574 38.7 7.23404 39.775 7.87234L38.7 12.5532C37.41 11.9149 35.905 11.4894 33.11 11.4894C28.81 11.4894 25.37 14.2553 25.37 20C25.37 25.5319 28.38 28.7234 32.895 28.7234C33.97 28.7234 35.045 28.5106 35.475 28.2979V22.766H31.82V18.0851H40.635V31.9149C38.915 32.5532 35.905 33.4043 32.68 33.4043C29.025 33.4043 26.445 32.5532 24.295 31.0638V33.1915ZM18.92 11.2766C18.705 11.2766 17.845 11.0638 16.555 11.0638C14.19 11.0638 12.685 12.3404 12.685 14.6809C12.685 17.0213 14.19 18.5106 16.985 18.5106H18.92V11.2766Z" fill="#505155"/>
</svg>
