<svg width="63" height="25" viewBox="0 0 63 25" fill="none" xmlns="http://www.w3.org/2000/svg">
<g clip-path="url(#clip0_156_14)">
<path fill-rule="evenodd" clip-rule="evenodd" d="M6.91553 17.0785H11.6709V8.23389H6.91553V17.0785Z" fill="#958E97"/>
<path fill-rule="evenodd" clip-rule="evenodd" d="M7.21699 12.6563C7.21699 10.8619 8.02872 9.26407 9.29275 8.23391C8.33596 7.45307 7.15254 7.02932 5.93411 7.03126C2.93294 7.03126 0.5 9.54969 0.5 12.6563C0.5 15.7628 2.93294 18.2813 5.93424 18.2813C7.15269 18.2832 8.33612 17.8594 9.2929 17.0786C8.02888 16.0486 7.21699 14.4505 7.21699 12.6563Z" fill="#958E97"/>
<path fill-rule="evenodd" clip-rule="evenodd" d="M17.9158 16.1424V15.9238H17.8607L17.7973 16.074L17.7341 15.9238H17.679V16.1424H17.7178V15.9773L17.7772 16.1194H17.8175L17.877 15.9769V16.1422L17.9158 16.1424ZM17.5671 16.1424V15.9609H17.6376V15.9241H17.4579V15.9611H17.5284V16.1424H17.5671Z" fill="#958E97"/>
<path fill-rule="evenodd" clip-rule="evenodd" d="M18.0857 12.6563C18.0857 15.7628 15.6524 18.2813 12.6511 18.2813C11.4327 18.2832 10.2493 17.8594 9.2926 17.0786C10.5566 16.0486 11.3684 14.4505 11.3684 12.6563C11.3684 10.8619 10.5566 9.26407 9.2926 8.23391C10.2494 7.45304 11.4328 7.02929 12.6512 7.03126C15.6526 7.03126 18.0857 9.54969 18.0857 12.6563Z" fill="#958E97"/>
<path fill-rule="evenodd" clip-rule="evenodd" d="M28.9397 12.681C28.9397 12.0235 29.3556 11.4837 30.0361 11.4837C30.6863 11.4837 31.1249 12.0003 31.1249 12.681C31.1249 13.3618 30.6863 13.8784 30.0361 13.8784C29.3556 13.8784 28.9397 13.3385 28.9397 12.681ZM31.8661 12.681V10.8106H31.0794V11.2645C30.8299 10.9281 30.4519 10.7167 29.9377 10.7167C28.9244 10.7167 28.1307 11.5385 28.1307 12.681C28.1307 13.8237 28.9244 14.6454 29.9377 14.6454C30.4519 14.6454 30.8299 14.434 31.0794 14.0976V14.5515H31.8661V12.681ZM58.421 12.681C58.421 12.0235 58.837 11.4837 59.5175 11.4837C60.1679 11.4837 60.6065 12.0003 60.6065 12.681C60.6065 13.3618 60.1679 13.8784 59.5175 13.8784C58.837 13.8784 58.421 13.3385 58.421 12.681ZM62.2272 14.3739V14.4326H62.2796C62.2895 14.4332 62.2994 14.4307 62.3081 14.4254C62.3152 14.4204 62.3186 14.4129 62.3186 14.4029C62.3189 14.3986 62.318 14.3944 62.3162 14.3905C62.3143 14.3867 62.3115 14.3834 62.3081 14.381C62.2994 14.3758 62.2895 14.3733 62.2796 14.3739H62.2272ZM62.2802 14.3326C62.3072 14.3326 62.3282 14.3389 62.3434 14.3515C62.358 14.364 62.3654 14.3812 62.3654 14.4029C62.3658 14.4113 62.3642 14.4197 62.3611 14.4274C62.358 14.4352 62.3534 14.4422 62.3478 14.4481C62.3335 14.4608 62.3162 14.4685 62.2976 14.4699L62.3673 14.5531H62.3124L62.248 14.4704H62.2272V14.5531H62.1816V14.3326H62.2802ZM62.2666 14.6287C62.2898 14.6289 62.3131 14.6242 62.3344 14.6149C62.3558 14.6056 62.3754 14.5919 62.3918 14.5746C62.4082 14.5574 62.4212 14.537 62.4302 14.5145C62.4392 14.492 62.4436 14.468 62.4436 14.4437C62.4436 14.3947 62.425 14.3476 62.3918 14.3128C62.3754 14.2957 62.3558 14.2822 62.3341 14.273C62.3127 14.2638 62.2898 14.2591 62.2666 14.2592C62.2312 14.2589 62.1968 14.2694 62.167 14.2894C62.1376 14.3094 62.1147 14.3379 62.1007 14.3715C62.0917 14.3944 62.0871 14.4189 62.0874 14.4437C62.0871 14.4927 62.1057 14.5397 62.1388 14.5746C62.155 14.5912 62.1739 14.6045 62.1959 14.6143C62.2176 14.6239 62.2414 14.6287 62.2666 14.6287ZM62.2666 14.2062C62.2988 14.2062 62.3289 14.2124 62.3571 14.2248C62.4132 14.2486 62.4578 14.2941 62.4817 14.3515C62.4938 14.3803 62.5 14.411 62.5 14.4437C62.5 14.4764 62.4938 14.507 62.4817 14.5357C62.4572 14.5928 62.4129 14.638 62.3571 14.6621C62.3286 14.6749 62.2979 14.6813 62.2666 14.681C62.2356 14.6814 62.2049 14.6754 62.1763 14.6634C62.1475 14.6513 62.1215 14.6335 62.0995 14.6109C62.0784 14.5893 62.0616 14.5638 62.0496 14.5357C62.0375 14.5067 62.0313 14.4754 62.0316 14.4437C62.0316 14.411 62.0375 14.3803 62.0496 14.3515C62.0734 14.2941 62.1181 14.2486 62.1739 14.2248C62.2033 14.2123 62.2346 14.206 62.2666 14.2062ZM61.3474 12.681V9.30811H60.5609V11.2645C60.3117 10.9281 59.9335 10.7167 59.4192 10.7167C58.4061 10.7167 57.6122 11.5385 57.6122 12.681C57.6122 13.8237 58.4061 14.6454 59.4192 14.6454C59.9335 14.6454 60.3117 14.434 60.5609 14.0976V14.5515H61.3474V12.681ZM41.6199 11.4445C42.1268 11.4445 42.4517 11.7732 42.5347 12.3523H40.6599C40.7429 11.8123 41.0604 11.4445 41.6199 11.4445ZM41.6351 10.7167C40.5765 10.7167 39.8356 11.5149 39.8356 12.681C39.8356 13.8707 40.6069 14.6454 41.6878 14.6454C42.2325 14.6454 42.7313 14.5045 43.1702 14.121L42.7843 13.5184C42.4817 13.7689 42.0964 13.9098 41.7334 13.9098C41.2269 13.9098 40.7656 13.6671 40.6521 12.994H43.3364C43.3438 12.8923 43.3513 12.7907 43.3513 12.681C43.3438 11.5149 42.6485 10.7167 41.6351 10.7167ZM51.1245 12.681C51.1245 12.0235 51.5402 11.4837 52.221 11.4837C52.8711 11.4837 53.3097 12.0003 53.3097 12.681C53.3097 13.3618 52.8711 13.8784 52.221 13.8784C51.5402 13.8784 51.1245 13.3385 51.1245 12.681ZM54.0506 12.681V10.8106H53.2645V11.2645C53.0149 10.9281 52.637 10.7167 52.1224 10.7167C51.1093 10.7167 50.3154 11.5385 50.3154 12.681C50.3154 13.8237 51.1093 14.6454 52.1227 14.6454C52.637 14.6454 53.0149 14.434 53.2645 14.0976V14.5515H54.0509L54.0506 12.681ZM46.686 12.681C46.686 13.8159 47.4498 14.6454 48.6142 14.6454C49.1585 14.6454 49.5215 14.5201 49.9146 14.1992L49.5367 13.5418C49.2416 13.7612 48.9319 13.8784 48.5918 13.8784C47.9641 13.8707 47.5025 13.401 47.5025 12.681C47.5025 11.961 47.9641 11.4915 48.5915 11.4837C48.9319 11.4837 49.2416 11.601 49.5367 11.8203L49.9146 11.1628C49.5215 10.8419 49.1585 10.7167 48.6142 10.7167C47.4498 10.7167 46.686 11.5462 46.686 12.681ZM56.8183 10.7167C56.3645 10.7167 56.0697 10.9359 55.8657 11.2645V10.8106H55.0866V14.5515H55.8731V12.454C55.8731 11.8359 56.1301 11.4915 56.6444 11.4915C56.8031 11.4915 56.9696 11.5149 57.1357 11.5854L57.3779 10.8186C57.2039 10.7479 56.977 10.7167 56.8183 10.7167ZM35.7523 11.1081C35.3741 10.8498 34.8526 10.7167 34.2779 10.7167C33.3631 10.7167 32.7732 11.1706 32.7732 11.914C32.7732 12.5246 33.2118 12.9003 34.0209 13.0176L34.3914 13.0723C34.8223 13.1349 35.0262 13.2523 35.0262 13.4635C35.0262 13.7532 34.7392 13.9176 34.2023 13.9176C33.6579 13.9176 33.2648 13.7374 33.0001 13.5264L32.6296 14.1601C33.0605 14.4889 33.6049 14.6454 34.1951 14.6454C35.2383 14.6454 35.8431 14.1367 35.8431 13.4245C35.8431 12.7671 35.3666 12.4228 34.5801 12.3054L34.2097 12.2506C33.8696 12.2037 33.5974 12.1332 33.5974 11.8829C33.5974 11.6089 33.8544 11.4445 34.2853 11.4445C34.7469 11.4445 35.193 11.6246 35.4122 11.7654L35.7523 11.1081ZM45.892 10.7167C45.4385 10.7167 45.1434 10.9359 44.9394 11.2645V10.8106H44.1604V14.5515H44.9469V12.454C44.9469 11.8359 45.2038 11.4915 45.7184 11.4915C45.8769 11.4915 46.0433 11.5149 46.2095 11.5854L46.4516 10.8186C46.2777 10.7479 46.0508 10.7167 45.892 10.7167ZM39.1852 10.8106H37.8999V9.67592H37.106V10.8106H36.3723V11.5542H37.106V13.2603C37.106 14.1289 37.4309 14.6454 38.3609 14.6454C38.7013 14.6454 39.0944 14.5359 39.3439 14.3557L39.1173 13.6593C38.8826 13.8003 38.6256 13.8707 38.4217 13.8707C38.0283 13.8707 37.8999 13.6201 37.8999 13.2445V11.5542H39.1852V10.8106ZM27.435 14.5515V12.2037C27.435 11.3193 26.8905 10.7247 26.0134 10.7167C25.5522 10.7089 25.0759 10.8576 24.7432 11.382C24.4936 10.9671 24.1003 10.7167 23.5484 10.7167C23.1627 10.7167 22.7847 10.834 22.4899 11.2723V10.8106H21.7035V14.5515H22.4976V12.4776C22.4976 11.8281 22.8453 11.4837 23.3822 11.4837C23.9038 11.4837 24.1685 11.8359 24.1685 12.4698V14.5515H24.9625V12.4776C24.9625 11.8281 25.3254 11.4837 25.8472 11.4837C26.3838 11.4837 26.6409 11.8359 26.6409 12.4698V14.5515H27.435Z" fill="#958E97"/>
</g>
<defs>
<clipPath id="clip0_156_14">
<rect width="62" height="25" fill="white" transform="translate(0.5)"/>
</clipPath>
</defs>
</svg>
