<svg width="48" height="48" viewBox="0 0 48 48" fill="none" xmlns="http://www.w3.org/2000/svg">
<rect width="48" height="48" rx="24" fill="#F04E34"/>
<path d="M12.665 18.475L15.425 17.5H17.225V28H15.155V19.69L13.175 20.245L12.665 18.475ZM24.8708 22.54C25.8408 23.12 26.3258 23.965 26.3258 25.075C26.3258 26.045 25.9858 26.81 25.3058 27.37C24.6358 27.93 23.7208 28.21 22.5608 28.21C21.3908 28.21 20.4708 27.93 19.8008 27.37C19.1308 26.81 18.7958 26.045 18.7958 25.075C18.7958 23.975 19.2758 23.13 20.2358 22.54C19.5058 22.02 19.1408 21.295 19.1408 20.365C19.1408 19.395 19.4658 18.64 20.1158 18.1C20.7758 17.56 21.5908 17.29 22.5608 17.29C23.5408 17.29 24.3508 17.56 24.9908 18.1C25.6408 18.64 25.9658 19.395 25.9658 20.365C25.9658 21.295 25.6008 22.02 24.8708 22.54ZM23.9108 20.47C23.9108 20.09 23.7858 19.79 23.5358 19.57C23.2858 19.35 22.9608 19.24 22.5608 19.24C22.1608 19.24 21.8358 19.35 21.5858 19.57C21.3358 19.79 21.2108 20.09 21.2108 20.47C21.2108 20.86 21.3358 21.165 21.5858 21.385C21.8358 21.605 22.1608 21.715 22.5608 21.715C22.9608 21.715 23.2858 21.605 23.5358 21.385C23.7858 21.165 23.9108 20.86 23.9108 20.47ZM23.8058 25.87C24.1158 25.61 24.2708 25.255 24.2708 24.805C24.2708 24.355 24.1158 24.005 23.8058 23.755C23.4958 23.495 23.0808 23.365 22.5608 23.365C22.0408 23.365 21.6258 23.495 21.3158 23.755C21.0058 24.005 20.8508 24.355 20.8508 24.805C20.8508 25.255 21.0058 25.61 21.3158 25.87C21.6258 26.13 22.0408 26.26 22.5608 26.26C23.0808 26.26 23.4958 26.13 23.8058 25.87ZM31.8962 21.835H34.3712V23.65H31.8962V26.125H30.0812V23.65H27.6212V21.835H30.0812V19.375H31.8962V21.835Z" fill="white"/>
</svg>
