<svg width="24" height="24" viewBox="0 0 24 24" fill="none" xmlns="http://www.w3.org/2000/svg">
<path d="M16.6715 0H7.32841H4.94116V24H19.0588V0H16.6715ZM14.3872 1.41176L13.6814 2.82353H10.3186L9.61269 1.41176H14.3872ZM8.03429 1.41176L9.44606 4.23529H14.5539L15.9656 1.41176H17.647V10.9099C16.772 9.98428 15.6774 9.27929 14.4633 8.87172L16.1424 6.35294H7.85754L9.53669 8.87167C8.32257 9.27925 7.22799 9.98424 6.35293 10.9098V1.41176H8.03429ZM12 16.9412C11.6107 16.9412 11.2941 16.6246 11.2941 16.2353C11.3295 15.3001 12.6706 15.3004 12.7059 16.2353C12.7059 16.6246 12.3892 16.9412 12 16.9412ZM12.9124 14.3246C12.8454 14.2925 12.7765 14.2641 12.7059 14.2391V11.5079L13.6454 10.0986C14.4953 10.3266 15.284 10.7304 15.9636 11.2735L12.9124 14.3246ZM12 10.0216L10.4954 7.76471H13.5045L12 10.0216ZM11.2941 11.5079V14.2391C11.2235 14.2641 11.1545 14.2925 11.0875 14.3246L8.03636 11.2735C8.71589 10.7304 9.50464 10.3266 10.3546 10.0986L11.2941 11.5079ZM7.0373 12.2709L10.0893 15.3229C10.0572 15.3898 10.0288 15.4588 10.0038 15.5294H6.35293V13.3226C6.54686 12.9476 6.77679 12.5959 7.0373 12.2709ZM6.35293 16.9412H10.0038C10.0288 17.0118 10.0572 17.0808 10.0893 17.1478L7.47232 19.7647H6.35293V16.9412ZM11.0876 18.146C11.1545 18.1781 11.2235 18.2065 11.2941 18.2315V19.7647H9.46883L11.0876 18.146ZM12.7059 18.2315C12.7765 18.2065 12.8454 18.1781 12.9124 18.146L14.5311 19.7647H12.7059V18.2315ZM16.5277 19.7647L13.9107 17.1478C13.9428 17.0808 13.9712 17.0118 13.9962 16.9412H17.647V19.7647H16.5277ZM13.9962 15.5294C13.9712 15.4588 13.9428 15.3898 13.9107 15.3229L16.9626 12.2709C17.2231 12.5959 17.4531 12.9477 17.647 13.3226V15.5294H13.9962ZM6.35293 22.5882V21.1765H17.647V22.5882H6.35293Z" fill="#445058"/>
</svg>
