<svg width="50" height="35" viewBox="0 0 50 35" fill="none" xmlns="http://www.w3.org/2000/svg">
<g filter="url(#filter0_i_156_535)">
<rect width="50" height="35" rx="4" transform="matrix(1 0 0 -1 0 35)" fill="#291C32"/>
<rect x="0.5" y="-0.5" width="49" height="34" rx="3.5" transform="matrix(1 0 0 -1 0 34)" stroke="#691253"/>
<path d="M24.9169 13.2386L18.2414 19.8388C17.9195 20.157 17.9195 20.6732 18.2414 20.9914L19.0201 21.7613C19.3416 22.0792 19.8624 22.0795 20.1846 21.7627L25.4998 16.5317L30.8155 21.7623C31.1377 22.0795 31.6584 22.0788 31.9799 21.761L32.7586 20.9911C33.0805 20.6729 33.0805 20.1567 32.7586 19.8385L26.0828 13.2386C25.7609 12.9205 25.2388 12.9205 24.9169 13.2386Z" fill="white"/>
</g>
<defs>
<filter id="filter0_i_156_535" x="0" y="0" width="50" height="39" filterUnits="userSpaceOnUse" color-interpolation-filters="sRGB">
<feFlood flood-opacity="0" result="BackgroundImageFix"/>
<feBlend mode="normal" in="SourceGraphic" in2="BackgroundImageFix" result="shape"/>
<feColorMatrix in="SourceAlpha" type="matrix" values="0 0 0 0 0 0 0 0 0 0 0 0 0 0 0 0 0 0 127 0" result="hardAlpha"/>
<feOffset dy="4"/>
<feGaussianBlur stdDeviation="2"/>
<feComposite in2="hardAlpha" operator="arithmetic" k2="-1" k3="1"/>
<feColorMatrix type="matrix" values="0 0 0 0 0 0 0 0 0 0 0 0 0 0 0 0 0 0 0.25 0"/>
<feBlend mode="normal" in2="shape" result="effect1_innerShadow_156_535"/>
</filter>
</defs>
</svg>
