<svg width="24" height="24" viewBox="0 0 24 24" fill="none" xmlns="http://www.w3.org/2000/svg">
<g clip-path="url(#clip0_3921_392)">
<path d="M24 5.64826H18.351C20.0836 3.38267 18.4506 0.0350582 15.5465 0.00145835C13.8717 -0.0400003 12.6838 0.831714 12 2.30347C11.3091 0.816514 10.1123 -0.0402356 8.45349 0.00145835C5.54846 0.0352935 3.91694 3.38337 5.64903 5.64826H6.10352e-05V11.2953H1.41182V24H22.5882C22.5882 23.264 22.5882 11.536 22.5882 11.2953H24V5.64826ZM13.8409 2.05063C14.2723 1.60456 14.8191 1.39675 15.5123 1.41275C18.3478 1.54588 18.3256 5.53894 15.5294 5.64826H12.7083C12.7079 5.63358 12.7074 5.61899 12.7068 5.60398C12.7456 4.6525 12.9467 2.97519 13.8409 2.05063ZM15.5294 14.1177H21.1764V15.5294H15.5294V14.1177ZM8.47062 15.5294H2.82358V14.1177H8.47062V15.5294ZM9.88237 7.06002H14.1177V17.9167L12 16.8579L9.88237 17.9167V7.06002ZM6.35298 3.53062C6.35298 2.37213 7.29071 1.44183 8.48775 1.41275C9.14567 1.39759 9.7052 1.58126 10.1591 2.05063C11.0533 2.97519 11.2544 4.6525 11.2932 5.60398C11.2926 5.61899 11.2922 5.63362 11.2917 5.64826H8.47062C7.3029 5.64826 6.35298 4.69829 6.35298 3.53062ZM1.41182 7.06002H8.47062V9.88354H1.41182V7.06002ZM2.82358 11.2953H8.47062V12.7059H2.82358V11.2953ZM21.1764 22.5882H2.82358V16.9412H8.47062V20.201L12 18.4363L15.5294 20.201V16.9412H21.1764V22.5882ZM21.1764 12.7059H15.5294V11.2953H21.1764V12.7059ZM22.5882 9.88354H15.5294V7.06002H22.5882V9.88354Z" fill="#445058"/>
</g>
<defs>
<clipPath id="clip0_3921_392">
<rect width="24" height="24" fill="white"/>
</clipPath>
</defs>
</svg>
