<svg width="24" height="24" viewBox="0 0 24 24" fill="none" xmlns="http://www.w3.org/2000/svg">
<g clip-path="url(#clip0_497_12342)">
<path d="M11.999 9.37683C11.0541 8.82375 9.81685 8.95186 9.00685 9.76139C8.04521 10.7235 8.04531 12.2887 9.00699 13.2503L11.5021 15.7455C11.634 15.8773 11.8128 15.9514 11.9993 15.9514C12.1857 15.9514 12.3646 15.8773 12.4964 15.7455L14.993 13.2488L14.9932 13.2487C15.9546 12.2867 15.9546 10.7215 14.9929 9.75924C14.1827 8.94956 12.9447 8.82216 11.999 9.37683ZM13.9985 12.2546L11.9993 14.2538L10.0014 12.2559C9.58782 11.8424 9.58787 11.1693 10.0013 10.7557C10.4148 10.3424 11.0881 10.3418 11.5022 10.7557C11.7769 11.0302 12.222 11.0302 12.4965 10.7556C12.9111 10.341 13.585 10.3403 13.9986 10.7536C14.4121 11.1674 14.4121 11.8408 13.9985 12.2546Z" fill="#445058"/>
<path d="M12 0C5.38317 0 0 5.38317 0 12C0 18.6168 5.38317 24 12 24C18.6168 24 24 18.6168 24 12C24 5.38317 18.6168 0 12 0ZM22.0289 8.58525L19.7431 9.19767C19.409 8.27733 18.915 7.4332 18.2952 6.69839L19.9674 5.02598C20.8702 6.05616 21.5771 7.26202 22.0289 8.58525ZM18.8281 12C18.8281 15.765 15.765 18.8281 12 18.8281C8.23495 18.8281 5.17186 15.765 5.17186 12C5.17186 8.23495 8.23495 5.17186 12 5.17186C15.765 5.17186 18.8281 8.23495 18.8281 12ZM15.4142 1.97086C16.7371 2.42245 17.9428 3.12914 18.9729 4.03167L17.3007 5.70408C16.5664 5.08486 15.723 4.59131 14.8035 4.25733L15.4142 1.97086ZM12 1.40625C12.7033 1.40625 13.3905 1.47577 14.0557 1.60716L13.4452 3.89273C12.9759 3.8093 12.4929 3.76561 12 3.76561C11.507 3.76561 11.024 3.8093 10.5547 3.89273L9.94416 1.60716C10.6095 1.47577 11.2967 1.40625 12 1.40625ZM8.58581 1.97086L9.19655 4.25733C8.277 4.59131 7.43358 5.08486 6.69928 5.70408L5.02711 4.03167C6.05719 3.12914 7.26286 2.42245 8.58581 1.97086ZM4.03266 5.02598L5.70483 6.69839C5.085 7.4332 4.59108 8.27733 4.25695 9.19767L1.97109 8.58525C2.42283 7.26202 3.1298 6.05616 4.03266 5.02598ZM1.40625 12C1.40625 11.2965 1.47581 10.6091 1.60725 9.94364L3.8925 10.5559C3.8092 11.0249 3.76556 11.5074 3.76556 12C3.76556 12.4927 3.8092 12.9754 3.89255 13.4445L1.60734 14.0567C1.47586 13.3912 1.40625 12.7036 1.40625 12ZM1.97119 15.4151L4.25705 14.8027C4.59117 15.723 5.08519 16.5671 5.70497 17.3018L4.03284 18.9742C3.12998 17.9441 2.42302 16.7383 1.97119 15.4151ZM8.58591 22.0291C7.263 21.5776 6.05737 20.871 5.0273 19.9685L6.69942 18.2961C7.43372 18.9153 8.27709 19.4088 9.19659 19.7427L8.58591 22.0291ZM12 22.5938C11.2968 22.5938 10.6096 22.5242 9.94434 22.3928L10.5548 20.1073C11.0242 20.1907 11.5071 20.2343 12 20.2343C12.493 20.2343 12.9759 20.1907 13.4452 20.1073L14.0557 22.3928C13.3904 22.5242 12.7032 22.5938 12 22.5938ZM15.4141 22.0291L14.8034 19.7427C15.7228 19.4087 16.5662 18.9152 17.3005 18.2961L18.9727 19.9685C17.9426 20.871 16.737 21.5776 15.4141 22.0291ZM19.9672 18.9743L18.295 17.3018C18.9149 16.5671 19.4088 15.723 19.743 14.8027L22.0288 15.4152C21.577 16.7383 20.8701 17.9441 19.9672 18.9743ZM20.1074 13.4445C20.1908 12.9754 20.2344 12.4927 20.2344 12C20.2344 11.5074 20.1908 11.0249 20.1075 10.5559L22.3927 9.94364C22.5242 10.6091 22.5938 11.2965 22.5938 12C22.5938 12.7036 22.5241 13.3912 22.3927 14.0567L20.1074 13.4445Z" fill="#445058"/>
</g>
<defs>
<clipPath id="clip0_497_12342">
<rect width="24" height="24" fill="white"/>
</clipPath>
</defs>
</svg>
