<svg width="24" height="25" viewBox="0 0 24 25" fill="none" xmlns="http://www.w3.org/2000/svg">
<rect x="0.5" y="1" width="23" height="23" rx="3.5" stroke="white"/>
<path fill-rule="evenodd" clip-rule="evenodd" d="M17.6213 5.34975C17.7875 5.24978 17.9859 5.21808 18.175 5.26129C18.3641 5.3045 18.529 5.41926 18.6353 5.5815L19.3778 6.714C19.4746 6.86195 19.516 7.03933 19.4947 7.21484C19.4735 7.39035 19.3909 7.55271 19.2616 7.67325L19.2593 7.67625L19.2488 7.686L19.2061 7.72575L19.0373 7.887C18.1036 8.79275 17.1982 9.72719 16.3223 10.689C14.6746 12.501 12.7178 14.8725 11.4008 17.1735C11.0333 17.8155 10.1356 17.9535 9.60306 17.3993L4.73931 12.3458C4.66961 12.2733 4.61518 12.1876 4.57927 12.0937C4.54336 11.9998 4.52669 11.8996 4.53026 11.7991C4.53383 11.6987 4.55756 11.5999 4.60004 11.5088C4.64252 11.4177 4.70289 11.3361 4.77756 11.2688L6.24756 9.94275C6.37674 9.82628 6.54238 9.75834 6.71614 9.75054C6.8899 9.74274 7.06096 9.79557 7.20006 9.9L9.68181 11.7608C13.5586 7.938 15.7568 6.471 17.6213 5.34975Z" fill="#289D1D"/>
</svg>
