<svg width="30" height="20" viewBox="0 0 30 20" fill="none" xmlns="http://www.w3.org/2000/svg">
<g filter="url(#filter0_i_187_410)">
<rect width="30" height="20" rx="4" transform="matrix(1 0 0 -1 0 20)" fill="url(#paint0_linear_187_410)"/>
<rect x="0.5" y="-0.5" width="29" height="19" rx="3.5" transform="matrix(1 0 0 -1 0 19)" stroke="#691253"/>
<path fill-rule="evenodd" clip-rule="evenodd" d="M20.3327 8.40051C20.3327 8.12742 20.2281 7.85434 20.0201 7.64632C19.603 7.22922 18.9288 7.22922 18.5117 7.64632L14.9861 11.1719L11.4734 7.77966C11.0488 7.3711 10.3736 7.38284 9.965 7.80633C9.55643 8.2309 9.56817 8.90614 9.9906 9.31471L14.2575 13.4345C14.6768 13.8388 15.3414 13.8334 15.7531 13.4217L20.0201 9.1547C20.2281 8.94668 20.3327 8.6736 20.3327 8.40051Z" fill="white"/>
</g>
<defs>
<filter id="filter0_i_187_410" x="0" y="0" width="30" height="23" filterUnits="userSpaceOnUse" color-interpolation-filters="sRGB">
<feFlood flood-opacity="0" result="BackgroundImageFix"/>
<feBlend mode="normal" in="SourceGraphic" in2="BackgroundImageFix" result="shape"/>
<feColorMatrix in="SourceAlpha" type="matrix" values="0 0 0 0 0 0 0 0 0 0 0 0 0 0 0 0 0 0 127 0" result="hardAlpha"/>
<feOffset dy="3"/>
<feGaussianBlur stdDeviation="2"/>
<feComposite in2="hardAlpha" operator="arithmetic" k2="-1" k3="1"/>
<feColorMatrix type="matrix" values="0 0 0 0 0 0 0 0 0 0 0 0 0 0 0 0 0 0 0.35 0"/>
<feBlend mode="normal" in2="shape" result="effect1_innerShadow_187_410"/>
</filter>
<linearGradient id="paint0_linear_187_410" x1="0" y1="10" x2="30" y2="10" gradientUnits="userSpaceOnUse">
<stop stop-color="#060407" stop-opacity="0"/>
<stop offset="0.5" stop-color="#060407"/>
<stop offset="1" stop-color="#060407" stop-opacity="0"/>
</linearGradient>
</defs>
</svg>
