<svg width="20" height="20" viewBox="0 0 20 20" fill="none" xmlns="http://www.w3.org/2000/svg">
<g clip-path="url(#clip0_497_12358)">
<path d="M10 0C4.48598 0 0 4.48598 0 10C0 15.514 4.48598 20 10 20C15.514 20 20 15.514 20 10C20 4.48598 15.514 0 10 0ZM10 18.8281C5.13215 18.8281 1.17188 14.8679 1.17188 10C1.17188 5.13215 5.13215 1.17188 10 1.17188C14.8679 1.17188 18.8281 5.13215 18.8281 10C18.8281 14.8679 14.8679 18.8281 10 18.8281Z" fill="#1A2930"/>
<path d="M10 3.76562C6.56234 3.76562 3.76562 6.56234 3.76562 10C3.76562 13.4377 6.56234 16.2344 10 16.2344C13.4377 16.2344 16.2344 13.4377 16.2344 10C16.2344 6.56234 13.4377 3.76562 10 3.76562ZM10 15.0625C7.20852 15.0625 4.9375 12.7915 4.9375 10C4.9375 7.20852 7.20852 4.9375 10 4.9375C12.7915 4.9375 15.0625 7.20852 15.0625 10C15.0625 12.7915 12.7915 15.0625 10 15.0625Z" fill="#1A2930"/>
<path d="M12.5104 7.84912H10.6276C10.304 7.84912 10.0417 8.11146 10.0417 8.43506C10.0417 8.75865 10.304 9.021 10.6276 9.021H11.4302C11.0627 9.68338 10.6693 10.6151 10.6693 11.569C10.6693 11.8926 10.9316 12.1549 11.2552 12.1549C11.5788 12.1549 11.8412 11.8926 11.8412 11.569C11.8412 10.232 12.957 8.81482 12.9678 8.80131C13.1086 8.62545 13.1362 8.38443 13.0386 8.18135C12.941 7.97826 12.7357 7.84912 12.5104 7.84912Z" fill="#1A2930"/>
<path d="M8.11719 7.84503C7.79359 7.84503 7.53125 8.10738 7.53125 8.43097V11.569C7.53125 11.8926 7.79359 12.155 8.11719 12.155C8.44078 12.155 8.70312 11.8926 8.70312 11.569V8.43097C8.70312 8.10738 8.44078 7.84503 8.11719 7.84503Z" fill="#1A2930"/>
</g>
<defs>
<clipPath id="clip0_497_12358">
<rect width="20" height="20" fill="white"/>
</clipPath>
</defs>
</svg>
