<svg width="24" height="24" viewBox="0 0 24 24" fill="none" xmlns="http://www.w3.org/2000/svg">
<path d="M22.5469 9.23438C22.5469 8.07127 21.6006 7.125 20.4375 7.125C19.2744 7.125 18.3281 8.07127 18.3281 9.23438C18.3281 10.151 18.916 10.9326 19.7344 11.2228V14.1562H16.9219V7.73438C16.9219 7.72964 16.9219 7.72964 16.9219 7.73438C16.9219 3.46964 13.4522 0 9.1875 0C4.92277 0 1.45312 3.46964 1.45312 7.73438V24H16.9219V18.375H19.0312C20.1944 18.375 21.1406 17.4287 21.1406 16.2656C21.1406 14.7779 21.1406 12.7076 21.1406 11.2228C21.959 10.9326 22.5469 10.151 22.5469 9.23438ZM15.5156 8.4375V16.9688H2.85938V8.4375H15.5156ZM5.74261 7.03125C6.06923 5.4285 7.48969 4.21875 9.1875 4.21875C10.8853 4.21875 12.3057 5.4285 12.6324 7.03125H5.74261ZM9.1875 1.40625C12.4392 1.40625 15.1254 3.87164 15.4763 7.03125H14.0589C13.7167 4.6492 11.6627 2.8125 9.1875 2.8125C6.71231 2.8125 4.6583 4.6492 4.31606 7.03125H2.89866C3.24956 3.87164 5.93583 1.40625 9.1875 1.40625ZM12.7031 22.5938H5.67188V21.1875H12.7031V22.5938ZM15.5156 22.5938H14.1094V19.7812H4.26562V22.5938H2.85938V18.375H15.5156V22.5938ZM19.7344 16.2656C19.7344 16.6533 19.419 16.9688 19.0312 16.9688H16.9219V15.5625H19.7344V16.2656ZM20.4375 9.9375C20.0498 9.9375 19.7344 9.62208 19.7344 9.23438C19.7344 8.84667 20.0498 8.53125 20.4375 8.53125C20.8252 8.53125 21.1406 8.84667 21.1406 9.23438C21.1406 9.62208 20.8252 9.9375 20.4375 9.9375Z" fill="#445058"/>
<path d="M14.1094 15.5625V9.84375H4.26562V15.5625H14.1094ZM8.48438 14.1562V11.25H9.89062V14.1562H8.48438ZM12.7031 14.1562H11.2969V11.25H12.7031V14.1562ZM5.67188 11.25H7.07812V14.1562H5.67188V11.25Z" fill="#445058"/>
</svg>
