<svg width="24" height="24" viewBox="0 0 24 24" fill="none" xmlns="http://www.w3.org/2000/svg">
<g clip-path="url(#clip0_4840_540)">
<path d="M2.85938 2.90625H4.26562V4.3125H2.85938V2.90625Z" fill="#445058"/>
<path d="M5.67188 5.71875H7.07812V7.125H5.67188V5.71875Z" fill="#445058"/>
<path d="M8.48438 8.53125H9.89062V9.9375H8.48438V8.53125Z" fill="#445058"/>
<path d="M14.1562 14.1562H15.5625V15.5625H14.1562V14.1562Z" fill="#445058"/>
<path d="M19.7812 14.1562H21.1875V15.5625H19.7812V14.1562Z" fill="#445058"/>
<path d="M14.1562 19.7812H15.5625V21.1875H14.1562V19.7812Z" fill="#445058"/>
<path d="M19.7812 19.7812H21.1875V21.1875H19.7812V19.7812Z" fill="#445058"/>
<path d="M8.48438 14.1562H9.89062V15.5625H8.48438V14.1562Z" fill="#445058"/>
<path d="M5.67188 16.9688H7.07812V18.375H5.67188V16.9688Z" fill="#445058"/>
<path d="M2.85938 14.1562H4.26562V15.5625H2.85938V14.1562Z" fill="#445058"/>
<path d="M8.48438 19.7812H9.89062V21.1875H8.48438V19.7812Z" fill="#445058"/>
<path d="M2.85938 19.7812H4.26562V21.1875H2.85938V19.7812Z" fill="#445058"/>
<path d="M2.85938 11.3438H9.89062V12.75H2.85938V11.3438Z" fill="#445058"/>
<path d="M12.75 11.3438V0H0V24H24V11.3438H12.75ZM11.3438 22.5938H1.40625V1.40625H11.3438V22.5938ZM22.5938 22.5938H12.75V12.75H22.5938V22.5938Z" fill="#445058"/>
</g>
<defs>
<clipPath id="clip0_4840_540">
<rect width="24" height="24" fill="white"/>
</clipPath>
</defs>
</svg>
