<svg width="211" height="40" viewBox="0 0 211 40" fill="none" xmlns="http://www.w3.org/2000/svg">
<g clip-path="url(#clip0_156_506)">
<path d="M0.210571 8.85474C0.762288 8.80421 1.66483 8.65347 2.8685 8.55284C4.07217 8.4021 5.52642 8.35158 7.33193 8.35158C8.63583 8.35158 9.98943 8.45263 11.3439 8.704C12.6979 8.95537 13.9016 9.40842 15.0046 10.1128C16.108 10.8168 16.9604 11.7731 17.6625 13.0307C18.3145 14.2884 18.6657 15.8985 18.6657 17.9107C18.6657 19.672 18.4151 21.1815 17.8634 22.3385C17.3117 23.4956 16.6096 24.4514 15.7071 25.1558C14.815 25.8549 13.7917 26.3681 12.6979 26.6653C11.5523 26.9671 10.3723 27.1193 9.18755 27.1179C8.73607 27.1179 8.23447 27.1179 7.73287 27.0674C7.23169 27.0173 6.88045 26.9672 6.67997 26.9166V35.6716C6.02802 35.7722 5.42619 35.8728 4.92459 35.9229C4.42341 35.9735 3.92181 35.9735 3.47033 35.9735C2.61791 35.9735 1.51448 35.8724 0.210571 35.6211V8.85474ZM6.67955 21.5335C6.78021 21.584 7.0308 21.6341 7.33193 21.6341C7.63263 21.6341 7.93376 21.6846 8.28458 21.6846C9.33748 21.6846 10.2404 21.3823 10.8924 20.7288C11.5443 20.1246 11.8956 19.1688 11.8956 17.8606C11.8956 17.1061 11.7954 16.4518 11.5945 15.9491C11.394 15.4459 11.0933 15.0434 10.6919 14.6909C10.3407 14.3891 9.88962 14.1377 9.38802 14.0371C8.88684 13.8859 8.38482 13.8358 7.8331 13.8358H7.33193C7.13146 13.8358 6.93056 13.8358 6.72967 13.8863V21.5335H6.67997H6.67955ZM22.1264 8.85474C22.7783 8.7541 23.4303 8.704 23.982 8.65347C24.5337 8.60295 25.0349 8.60295 25.4362 8.60295C25.8877 8.60295 26.3893 8.60295 26.9406 8.65347C27.4923 8.704 28.0946 8.80463 28.7461 8.85474V29.8851H37.3718C37.4721 30.4888 37.5727 31.0425 37.6229 31.4952C37.673 31.9478 37.673 32.4004 37.673 32.7528C37.673 33.1554 37.673 33.6084 37.6224 34.1116C37.5727 34.5642 37.5226 35.1179 37.3718 35.7718H22.1259L22.1264 8.85474ZM44.9447 35.7213C44.393 35.8223 43.8412 35.8724 43.3898 35.9225C42.9387 35.9731 42.4371 35.9731 41.9856 35.9731C41.5346 35.9731 41.033 35.9225 40.4311 35.872C39.7734 35.8133 39.1201 35.7126 38.4753 35.5705L46.8504 8.7541C47.5024 8.70358 48.1042 8.60337 48.6555 8.55284C49.2072 8.50231 49.8091 8.50232 50.3608 8.50232C50.8122 8.50232 51.364 8.50231 51.9153 8.55284C52.467 8.60337 53.1189 8.65389 53.821 8.7541L62.0955 35.6211C60.6913 35.8223 59.4376 35.9735 58.3341 35.9735C57.8325 35.9735 57.3313 35.9735 56.8297 35.9229C56.3281 35.8724 55.7764 35.7722 55.2247 35.7217L53.8206 30.4893C53.1185 30.6905 52.4666 30.8417 51.8146 30.9423C51.1843 31.0425 50.5471 31.0929 49.9089 31.0931C49.3571 31.0931 48.7557 31.0425 48.1539 30.9423C47.5521 30.8413 46.9502 30.7411 46.2983 30.5398L44.9443 35.7217L44.9447 35.7213ZM50.1599 15.8989L47.6523 25.5587C48.0532 25.7099 48.4546 25.76 48.856 25.8606C49.2068 25.9112 49.6082 25.9617 50.0091 25.9617C50.4105 25.9617 50.8619 25.9112 51.2629 25.8606C51.7063 25.8026 52.143 25.7015 52.5668 25.5587L50.1599 15.8989ZM75.1345 8.85516C75.6858 8.75453 76.2877 8.70442 76.9396 8.65389C77.5414 8.60337 78.1934 8.60337 78.8453 8.60337C79.2467 8.60337 79.7984 8.65389 80.5005 8.70442C81.1525 8.75495 81.7543 8.85516 82.2053 8.90568L73.8807 26.1625V35.7217C72.5768 35.9229 71.4734 36.0741 70.5709 36.0741C69.6679 36.0741 68.5143 35.9731 67.261 35.7217V26.1621C66.609 24.8038 65.907 23.3949 65.2045 21.936C64.5024 20.4771 63.8003 19.0181 63.0481 17.5587L60.9419 13.1819C60.2399 11.7225 59.5879 10.3141 58.936 8.95537C59.3373 8.90484 59.9387 8.80463 60.6412 8.7541C61.3433 8.70358 62.0454 8.65347 62.6973 8.65347C63.1985 8.65347 63.8003 8.704 64.4523 8.75453C65.1042 8.80463 65.656 8.90526 66.1074 8.95537L70.7212 19.4202L75.1345 8.85516ZM138.273 35.7217C137.721 35.8227 137.17 35.8728 136.718 35.9229C136.267 35.9735 135.765 35.9735 135.314 35.9735C134.863 35.9735 134.361 35.9229 133.759 35.8724C133.102 35.8137 132.448 35.713 131.803 35.5709L140.179 8.75453C140.83 8.704 141.432 8.60379 141.984 8.55326C142.536 8.50274 143.138 8.50274 143.689 8.50274C144.14 8.50274 144.692 8.50274 145.244 8.55326C145.796 8.60379 146.447 8.65431 147.15 8.75453L155.424 35.6211C154.02 35.8223 152.766 35.9735 151.663 35.9735C151.161 35.9735 150.66 35.9735 150.158 35.9229C149.657 35.8724 149.105 35.7722 148.554 35.7217L147.15 30.4893C146.447 30.6905 145.796 30.8417 145.144 30.9423C144.513 31.0425 143.876 31.0929 143.238 31.0931C142.686 31.0931 142.084 31.0425 141.482 30.9423C140.881 30.8413 140.279 30.7411 139.627 30.5398L138.273 35.7217ZM143.539 15.8989L141.031 25.5587C141.432 25.7099 141.834 25.76 142.235 25.8606C142.586 25.9112 142.987 25.9617 143.388 25.9617C143.79 25.9617 144.241 25.9112 144.642 25.8606C145.043 25.8101 145.494 25.7099 145.946 25.5587L143.539 15.8989ZM158.684 8.85474C159.185 8.80421 159.787 8.704 160.389 8.65347C160.991 8.60295 161.592 8.55284 162.094 8.55284C162.596 8.55284 163.147 8.60337 163.699 8.65389C164.301 8.704 164.852 8.80463 165.304 8.85474L170.619 22.8421L176.136 8.85516C176.637 8.80463 177.139 8.70442 177.641 8.65389C178.142 8.60337 178.643 8.55326 179.145 8.55326C179.646 8.55326 180.198 8.60379 180.75 8.65432C181.301 8.70442 181.853 8.80505 182.355 8.85516L183.608 35.6716C183.207 35.7221 182.756 35.8223 182.254 35.8728C181.753 35.9735 181.101 35.9735 180.349 35.9735C179.496 35.9735 178.443 35.8724 177.239 35.6211L176.738 20.0749L172.625 30.3385C172.174 30.3891 171.723 30.4893 171.271 30.5398C170.82 30.5903 170.419 30.5903 170.018 30.5903C169.667 30.5903 169.265 30.5903 168.864 30.5398C168.463 30.4893 168.062 30.4387 167.611 30.3385L163.95 20.2257L163.548 35.6211C162.495 35.8223 161.492 35.9735 160.539 35.9735C159.687 35.9735 158.634 35.8724 157.53 35.6211L158.684 8.85474ZM187.169 22.3886C187.169 20.376 187.42 18.5149 187.871 16.8042C188.322 15.0935 189.024 13.5844 190.028 12.3768C190.98 11.1187 192.234 10.1629 193.688 9.40842C195.193 8.704 196.948 8.35158 199.004 8.35158C201.06 8.35158 202.816 8.704 204.27 9.40842C205.724 10.1128 206.978 11.1187 207.931 12.3768C208.884 13.6345 209.586 15.0935 210.087 16.8042C210.539 18.5149 210.789 20.3764 210.789 22.3886C210.789 24.4013 210.539 26.2627 210.087 27.9229C209.636 29.6337 208.934 31.0926 207.931 32.3002C206.978 33.5579 205.774 34.5141 204.27 35.1676C202.816 35.8724 201.06 36.2244 199.004 36.2244C196.948 36.2244 195.193 35.8724 193.688 35.1676C192.184 34.4636 190.98 33.5078 190.028 32.3002C189.075 31.0425 188.372 29.5832 187.871 27.9229C187.42 26.2126 187.169 24.4013 187.169 22.3886ZM203.768 22.3886C203.768 16.9549 202.164 14.1878 199.004 14.1878C195.744 14.1878 194.14 16.9048 194.14 22.3886C194.14 25.1057 194.541 27.1684 195.343 28.4766C196.146 29.8349 197.349 30.4893 199.004 30.4893C202.164 30.4893 203.768 27.7722 203.768 22.3886Z" fill="white"/>
<path d="M127.892 13.9865L116.207 4.32674C113.398 2.66653 110.189 2.264 107.38 1.66021C106.177 1.35832 104.974 1.10695 103.72 0.855158L99.6076 0.150737L98.4039 0C102.015 3.11916 105.074 6.69137 108.334 9.71032L112.245 12.88C115.806 14.9928 119.617 14.8926 123.027 15.2947C124.031 15.3958 124.983 15.5465 125.936 15.6467L130.249 15.9992C129.497 15.3954 128.694 14.6909 127.892 13.9865ZM102.717 2.26442C104.121 1.10653 106.929 2.76716 107.581 4.32674C106.127 5.23242 104.071 3.824 102.717 2.26442ZM111.242 9.76042C112.696 8.80463 115.756 10.6156 116.257 12.2762C114.853 13.2825 111.643 11.3204 111.242 9.76042ZM112.997 4.2261C113.9 3.32084 116.859 4.88042 117.31 6.33937C116.458 7.09389 113.75 5.78568 112.997 4.2261ZM121.222 11.4712C122.576 10.2636 125.083 12.1251 126.037 13.6345C124.582 14.6914 122.526 12.9806 121.222 11.4712Z" fill="#CF222D"/>
<path fill-rule="evenodd" clip-rule="evenodd" d="M130.249 17.5587L124.933 16.7537C124.081 16.653 123.178 16.5524 122.175 16.4017C119.868 16.1499 116.608 15.3448 114.903 15.8985C111.593 16.9554 110.139 20.7284 108.584 23.7469C106.729 27.3697 104.974 30.4387 102.968 34.3128C102.215 35.7213 100.46 38.589 101.312 39.5453C102.015 40.4 104.723 39.7966 105.425 39.7461C106.879 39.5954 108.283 39.4947 109.487 39.3941C111.643 39.1928 115.956 39.0922 117.611 38.2872C118.464 37.8846 119.667 36.8783 120.57 35.7213C121.021 35.168 121.423 34.5141 121.824 33.8602L130.349 19.0682C130.55 18.4644 130.5 17.9613 130.249 17.5587ZM105.876 36.4762C104.171 34.9162 108.634 30.5394 110.239 33.256C110.239 35.1175 107.28 37.784 105.876 36.4762ZM109.236 30.4888C107.531 28.9794 111.192 25.6594 112.696 26.3128C115.154 27.3697 111.042 32.0989 109.236 30.4888ZM112.646 24.2C110.991 22.6905 114.602 19.0177 116.307 19.8227C118.714 21.0303 114.452 25.8606 112.646 24.2ZM116.157 35.7213C115.003 34.3629 118.313 31.4952 119.567 32.1996C121.322 33.1554 117.611 37.3815 116.157 35.7213ZM119.567 30.4387C118.012 29.2312 121.373 25.5587 122.977 26.5646C124.733 27.6716 120.871 31.445 119.567 30.4387ZM122.927 24.4514C121.623 23.093 124.833 19.7726 126.337 20.5777C128.243 21.6341 124.482 26.112 122.927 24.4514Z" fill="#CF222D"/>
<path d="M103.77 6.94316C102.516 5.73558 101.162 4.176 99.9083 2.9179L97.8522 1.25769C97.7018 1.20716 97.6016 1.10695 97.4508 1.05642C95.4449 0.301897 94.5924 3.27032 93.7901 5.03116C92.5865 7.79832 90.6807 12.2762 89.3267 15.2446C88.4743 17.1057 87.4711 18.7158 87.1203 20.3259C86.5184 23.0931 88.0228 24.9545 89.9787 27.6211C91.8844 30.2876 93.3888 32.2497 95.3947 34.9667C95.8963 35.6206 97.2504 38.1865 98.6044 38.1364C100.059 38.0859 101.212 35.1175 102.065 33.6084C104.171 29.7343 105.626 26.8665 107.581 23.1436C108.434 21.5335 109.688 19.672 110.239 17.9112C111.694 13.4333 108.233 11.2198 103.77 6.94316ZM90.9819 23.5461C87.7221 23.1937 89.9285 15.9992 92.3359 19.0682C93.1382 20.1251 92.6867 22.9419 90.9819 23.5461ZM97.6016 6.18821C99.2062 7.34569 98.5041 11.1187 96.2977 11.4206C93.5391 11.32 95.094 4.42737 97.6016 6.18821ZM96.8991 16.4017C99.106 15.3954 100.31 20.7789 97.6016 21.8354C95.1943 22.2379 94.843 17.3074 96.8991 16.4017ZM98.0527 32.7027C95.8462 31.8977 95.495 28.3255 97.4007 27.1684C99.8081 25.7095 101.413 32.1996 98.0527 32.7027ZM104.974 19.8733C102.616 20.8291 101.413 15.7478 103.87 14.2884C104.271 14.0371 104.823 14.0872 105.324 14.3895C106.98 15.1941 107.28 18.9171 104.974 19.8733Z" fill="#CF222D"/>
</g>
<defs>
<clipPath id="clip0_156_506">
<rect width="211" height="40" fill="white"/>
</clipPath>
</defs>
</svg>
