<svg width="24" height="24" viewBox="0 0 24 24" fill="none" xmlns="http://www.w3.org/2000/svg">
<g clip-path="url(#clip0_497_12348)">
<path d="M9.54253 5.16675C9.40932 4.99547 9.20452 4.8953 8.98753 4.8953C8.77055 4.8953 8.56571 4.99547 8.43253 5.16675L5.79661 8.55581C5.59913 8.80974 5.59913 9.16524 5.79661 9.41916L8.43253 12.8082C8.56575 12.9795 8.77055 13.0797 8.98753 13.0797C9.20452 13.0797 9.40936 12.9795 9.54253 12.8082L12.1785 9.41916C12.3759 9.16524 12.376 8.80974 12.1785 8.55581L9.54253 5.16675ZM8.98749 11.2313L7.24233 8.98749L8.98749 6.74367L10.7326 8.98749L8.98749 11.2313Z" fill="#445058"/>
<path d="M21.414 6.02498H19.1046V3.69605C19.1046 3.30773 18.7898 2.99292 18.4015 2.99292H16.0922V0.703125C16.0922 0.314812 15.7774 0 15.389 0H2.58594C2.19762 0 1.88281 0.314812 1.88281 0.703125V17.2719C1.88281 17.6602 2.19762 17.975 2.58594 17.975H4.89533V20.2648C4.89533 20.6531 5.21014 20.9679 5.59845 20.9679H7.9078V23.2969C7.9078 23.6852 8.22261 24 8.61092 24H21.414C21.8023 24 22.1172 23.6852 22.1172 23.2969V6.72811C22.1172 6.3398 21.8023 6.02498 21.414 6.02498ZM3.28906 16.5688V1.40625H14.6859V16.5688H3.28906ZM6.30158 19.5616V17.975H15.389C15.7774 17.975 16.0922 17.6602 16.0922 17.2718V4.39917H17.6984V19.5616H6.30158ZM20.7109 22.5938H9.31405V21.0075H18.4015C18.7898 21.0075 19.1046 20.6926 19.1046 20.3043V7.43123H20.7109V22.5938Z" fill="#445058"/>
</g>
<defs>
<clipPath id="clip0_497_12348">
<rect width="24" height="24" fill="white"/>
</clipPath>
</defs>
</svg>
